<svg height="512" viewBox="0 0 64 64" width="512" xmlns="http://www.w3.org/2000/svg"><g id="asteroid"><g fill="#c0ab91"><path d="m61 38v4l-6-1 3-3z"/><path d="m45 26-7.5 7.5-4.5-5.5v-6h4v-4z"/><path d="m36 46v6l-9 9h-4-20v-9l5-5v-8h7v-6l4-4z"/></g><path d="m45 26-7.5 7.5-1.35-1.65 5.85-5.85-5-5v-3z" fill="#b39a7c"/><path d="m36 46v6l-9 9h-3l9-9v-6l-15.5-15.5 1.5-1.5z" fill="#b39a7c"/><path d="m35 4-3 4h-3v-3z" fill="#c0ab91"/><path d="m17.029 14h33.941v2h-33.941z" transform="matrix(.707 -.707 .707 .707 -.648 28.435)"/><path d="m43.586 9h2.828v2h-2.828z" transform="matrix(.707 -.707 .707 .707 6.109 34.749)"/><path d="m52.586 15h2.828v2h-2.828z" transform="matrix(.707 -.707 .707 .707 4.503 42.87)"/><path d="m33.029 26h33.941v2h-33.941z" transform="matrix(.707 -.707 .707 .707 -4.447 43.263)"/><path d="m41.757 36h8.485v2h-8.485z" transform="matrix(.707 -.707 .707 .707 -12.69 43.364)"/><path d="m49.343 27h11.314v2h-11.314z" transform="matrix(.707 -.707 .707 .707 -3.69 47.092)"/><path d="m31.686 50h22.627v2h-22.627z" transform="matrix(.707 -.707 .707 .707 -23.468 45.343)"/><path d="m38.343 56h11.314v2h-11.314z" transform="matrix(.707 -.707 .707 .707 -27.418 47.808)"/><path d="m10 21h2v2h-2z"/><path d="m12 19h2v2h-2z"/><path d="m12 23h2v2h-2z"/><path d="m14 21h2v2h-2z"/><path d="m2 34h2v2h-2z"/><path d="m4 32h2v2h-2z"/><path d="m4 36h2v2h-2z"/><path d="m6 34h2v2h-2z"/><path d="m43 16h2v2h-2z"/><path d="m45 14h2v2h-2z"/><path d="m45 18h2v2h-2z"/><path d="m47 16h2v2h-2z"/><path d="m24 14h2v2h-2z"/><path d="m27 12h2v2h-2z"/><path d="m32 35h2v2h-2z"/><path d="m27 31h2v2h-2z"/><path d="m11 31h2v2h-2z"/><path d="m19 19h2v2h-2z"/><path d="m6 25h2v2h-2z"/><path d="m50 38h2v2h-2z"/><path d="m48 49h2v2h-2z"/><path d="m39 44h2v2h-2z"/><path d="m55 33h2v2h-2z"/><path d="m47.722 7.5h15.556v2h-15.556z" transform="matrix(.707 -.707 .707 .707 10.245 41.734)"/><path d="m37 52v-6a1 1 0 0 0 -.293-.707l-17-17a1 1 0 0 0 -1.414 0l-4 4a1 1 0 0 0 -.293.707v5h-6a1 1 0 0 0 -1 1v7.586l-4.707 4.707a1 1 0 0 0 -.293.707v9a1 1 0 0 0 1 1h24a1 1 0 0 0 .707-.293l9-9a1 1 0 0 0 .293-.707zm-2-.414-8.414 8.414h-22.586v-7.586l4.707-4.707a1 1 0 0 0 .293-.707v-7h6a1 1 0 0 0 1-1v-5.586l3-3 16 16z"/><path d="m37.45 34.5h.05a1 1 0 0 0 .707-.293l7.5-7.5a1 1 0 0 0 0-1.414l-8-8a1 1 0 0 0 -1.707.707v3h-3a1 1 0 0 0 -1 1v6a1 1 0 0 0 .226.633l4.5 5.5a1 1 0 0 0 .724.367zm-3.45-11.5h3a1 1 0 0 0 1-1v-1.586l5.586 5.586-6.012 6.012-3.574-4.369z"/><path d="m61 37h-3a1 1 0 0 0 -.707.293l-3 3a1 1 0 0 0 .543 1.693l6 1a.908.908 0 0 0 .164.014 1 1 0 0 0 1-1v-4a1 1 0 0 0 -1-1zm-1 3.819-2.919-.486 1.333-1.333h1.586z"/><path d="m29 9h3a1 1 0 0 0 .8-.4l3-4a1 1 0 0 0 -.964-1.586l-6 1a1 1 0 0 0 -.836.986v3a1 1 0 0 0 1 1zm1-3.153 2.7-.447-1.2 1.6h-1.5z"/></g></svg>