<svg height="512" viewBox="0 0 64 64" width="512" xmlns="http://www.w3.org/2000/svg"><g id="astronaut"><rect fill="#c0ab91" height="36" rx="2" width="30" x="17" y="8"/><path d="m47 10v32a2.006 2.006 0 0 1 -2 2h-2a2.006 2.006 0 0 0 2-2v-32a2.006 2.006 0 0 0 -2-2h2a2.006 2.006 0 0 1 2 2z" fill="#b39a7c"/><path d="m46 35a4 4 0 0 1 -4 4h-2v-6h4a2.015 2.015 0 0 1 2 2z" fill="#ff7956"/><path d="m44 59v2h-12v-6h8v3h3.87a3.657 3.657 0 0 1 .13 1z" fill="#2488ff"/><path d="m44 21v12h-4v-16a3.995 3.995 0 0 1 4 4z" fill="#2488ff"/><path d="m43.87 58h-3.87v-3a3.992 3.992 0 0 1 3.87 3z" fill="#ff7956"/><path d="m41 11v2a1 1 0 0 1 -1 1h-1a2.006 2.006 0 0 1 -2-2v-2h3a1 1 0 0 1 1 1z" fill="#ff7956"/><path d="m24 32h16v4h-16z" fill="#ffde55"/><path d="m40 17v15h-16v-15h2.72a7.911 7.911 0 0 0 5.28 2c.18 0 .37-.01.55-.02a7.953 7.953 0 0 0 4.74-1.98z" fill="#2488ff"/><path d="m38 17h2v15h-2z" fill="#006df0"/><path d="m39.94 10h-2.94a6.271 6.271 0 0 0 -5-2 6.271 6.271 0 0 0 -5 2h-2.93a6.541 6.541 0 0 1 .59-2c1.21-2.57 4.05-4 7.34-4s6.13 1.43 7.35 4a6.831 6.831 0 0 1 .59 2z" fill="#ffde55"/><path d="m39.42 14a8.016 8.016 0 0 1 -6.87 4.98c-.18.01-.37.02-.55.02a7.911 7.911 0 0 1 -5.28-2h-.01a8.029 8.029 0 0 1 -2.13-3h.42a2.006 2.006 0 0 0 2-2v-2a6.271 6.271 0 0 1 5-2 6.271 6.271 0 0 1 5 2v2a2.006 2.006 0 0 0 2 2z" fill="#44ffe8"/><path d="m39.42 14a8.016 8.016 0 0 1 -6.87 4.98c-.18.01-.37.02-.55.02a7.911 7.911 0 0 1 -5.28-2h-.01a8.029 8.029 0 0 1 -2.13-3h.42a2.006 2.006 0 0 0 2-2v-2a6.271 6.271 0 0 1 5-2 6.271 6.271 0 0 1 5 2v2a2.006 2.006 0 0 0 2 2z" fill="#44ffe8"/><path d="m32 36h6v19h-6z" fill="#2488ff"/><path d="m36 36h2v19h-2z" fill="#006df0"/><path d="m26 36h6v19h-6z" fill="#2488ff"/><path d="m30 36h2v19h-2z" fill="#006df0"/><path d="m38 44v4h-2a1 1 0 0 1 -1-1v-2a1 1 0 0 1 1-1z" fill="#ffde55"/><path d="m37 22v3a1 1 0 0 1 -1 1h-2a1 1 0 0 1 -1-1v-3z" fill="#ffde55"/><path d="m32 55v6h-12v-2a3.657 3.657 0 0 1 .13-1h3.87v-3z" fill="#2488ff"/><path d="m29 45v2a1 1 0 0 1 -1 1h-2v-4h2a1 1 0 0 1 1 1z" fill="#ffde55"/><g fill="#ff7956"><path d="m27 10v2a2.006 2.006 0 0 1 -2 2h-1a1 1 0 0 1 -1-1v-2a1 1 0 0 1 1-1z"/><path d="m24 55v3h-3.87a3.992 3.992 0 0 1 3.87-3z"/><path d="m24 33v6h-2a4 4 0 0 1 -4-4 2.015 2.015 0 0 1 2-2z"/></g><path d="m24 17v16h-4v-12a3.995 3.995 0 0 1 4-4z" fill="#2488ff"/><path d="m34 27h2a2 2 0 0 0 2-2v-3a1 1 0 0 0 -1-1h-4a1 1 0 0 0 -1 1v3a2 2 0 0 0 2 2zm0-4h2v2h-2z"/><path d="m45 7.142v-5.142h-2v5h-3.057c-1.475-2.472-4.372-4-7.943-4s-6.469 1.528-7.939 4h-4.061a4 4 0 0 0 -4 4v29a5.006 5.006 0 0 0 5 5h4v9h-1a5.006 5.006 0 0 0 -5 5v2a1 1 0 0 0 1 1h24a1 1 0 0 0 1-1v-2a5.006 5.006 0 0 0 -5-5h-1v-9h4a5.006 5.006 0 0 0 5-5v-29a4 4 0 0 0 -3-3.858zm-1 1.858a2 2 0 0 1 2 2v21.78a2.989 2.989 0 0 0 -1-.6v-11.18a5.006 5.006 0 0 0 -5-5 .993.993 0 0 0 -.713.3l-.026-.014a8.933 8.933 0 0 0 .782-1.286 2 2 0 0 0 1.957-2v-2a2 2 0 0 0 -1.2-1.828c-.013-.058-.028-.114-.043-.172zm-19 26v-2h14v2zm3-23v-1.608a5.551 5.551 0 0 1 4-1.392 5.551 5.551 0 0 1 4 1.392v1.608a3 3 0 0 0 1.877 2.777 7.013 7.013 0 0 1 -5.384 3.2c-.161.01-.331.019-.493.019a6.965 6.965 0 0 1 -5.88-3.222 3 3 0 0 0 1.88-2.774zm15 20h-2v-13.829a3.006 3.006 0 0 1 2 2.829zm-3-21v2h-1a1 1 0 0 1 -1-1v-1zm-14 1a1 1 0 0 1 -1 1h-1v-2h2zm0 6h.369a8.959 8.959 0 0 0 5.631 2c.2 0 .409-.01.617-.022a8.978 8.978 0 0 0 5-1.978h.383a1 1 0 0 1 1 1v12h-14v-12a1 1 0 0 1 1-1zm-3 1v13h-2v-11a3.006 3.006 0 0 1 2-2.829zm-3 15h3v4h-1a3 3 0 0 1 -3-3 1 1 0 0 1 1-1zm21 0h3a1 1 0 0 1 1 1 3 3 0 0 1 -3 3h-1zm-9-29c3.328 0 5.829 1.536 6.682 4h-1.247a7.407 7.407 0 0 0 -5.435-2 7.407 7.407 0 0 0 -5.435 2h-1.241c.847-2.464 3.345-4 6.676-4zm-12 4h3.246c-.014.056-.03.111-.042.167a2 2 0 0 0 -1.204 1.833v2a2 2 0 0 0 1.96 2 9.018 9.018 0 0 0 .78 1.291l-.027.015a.993.993 0 0 0 -.713-.306 5.006 5.006 0 0 0 -5 5v11.184a2.989 2.989 0 0 0 -1 .6v-21.784a2 2 0 0 1 2-2zm1 34a3 3 0 0 1 -3-3v-2.031a4.982 4.982 0 0 0 4 2.031h2a1 1 0 0 0 1-1v4zm6 2h1v2h-1zm0 4h1a2 2 0 0 0 2-2v-2a2 2 0 0 0 -2-2h-1v-6h4v17h-4zm-4 7.184v.816h-1.22a3 3 0 0 1 1.22-.816zm-2 2.816h3a1 1 0 0 0 1-1v-2h6v4h-10zm22 1h-10v-4h6v2a1 1 0 0 0 1 1h3zm-.78-3h-1.22v-.816a3 3 0 0 1 1.22.816zm-9.22-3v-17h4v6h-1a2 2 0 0 0 -2 2v2a2 2 0 0 0 2 2h1v5zm4-7h-1v-2h1zm6-4h-4v-4a1 1 0 0 0 1 1h2a4.982 4.982 0 0 0 4-2.031v2.031a3 3 0 0 1 -3 3z"/><path d="m50 10h2v2h-2z"/><path d="m52 8h2v2h-2z"/><path d="m52 12h2v2h-2z"/><path d="m54 10h2v2h-2z"/><path d="m56 4h2v2h-2z"/><path d="m58 2h2v2h-2z"/><path d="m58 6h2v2h-2z"/><path d="m60 4h2v2h-2z"/><path d="m12 10h2v2h-2z"/><path d="m10 8h2v2h-2z"/><path d="m10 12h2v2h-2z"/><path d="m8 10h2v2h-2z"/><path d="m6 4h2v2h-2z"/><path d="m4 2h2v2h-2z"/><path d="m4 6h2v2h-2z"/><path d="m2 4h2v2h-2z"/><path d="m50 52h2v2h-2z"/><path d="m52 54h2v2h-2z"/><path d="m52 50h2v2h-2z"/><path d="m54 52h2v2h-2z"/><path d="m56 58h2v2h-2z"/><path d="m58 60h2v2h-2z"/><path d="m58 56h2v2h-2z"/><path d="m60 58h2v2h-2z"/><path d="m12 52h2v2h-2z"/><path d="m10 54h2v2h-2z"/><path d="m10 50h2v2h-2z"/><path d="m8 52h2v2h-2z"/><path d="m6 58h2v2h-2z"/><path d="m4 60h2v2h-2z"/><path d="m4 56h2v2h-2z"/><path d="m2 58h2v2h-2z"/></g></svg>