<svg height="512" viewBox="0 0 64 64" width="512" xmlns="http://www.w3.org/2000/svg"><g id="blackhold"><path d="m46.07 54.82c.51-1.39.16-3.49-.88-6.01a32.451 32.451 0 0 0 -1.55-3.15c-.03-1.59-1.66-4.52-4.33-7.97-.82-1.05-1.73-2.15-2.73-3.27l4.42-4.42-8-8v4h-4v.98c-1.37-1.17-2.69-2.2-3.91-3.07-2.69-1.91-4.93-3.03-6.25-3.05-3.93-2.19-7.22-3.14-9.16-2.43-2.35-.6-4.19-.44-5.25.62-2.72 2.73.47 10.56 7.31 19.21 1.19 1.51 2.49 3.04 3.89 4.57l-7.63 6.17-3 7 2 4 9-5 1-5 3 1 1.84-1.98q1.935 1.77 3.84 3.3c8.87 7.15 16.99 10.53 19.77 7.75 1.06-1.06 1.22-2.9.62-5.25z" fill="#c0ab91"/><path d="m11.74 38.26c-6.84-8.65-10.03-16.48-7.31-19.21 1.06-1.06 2.9-1.22 5.25-.62a2.61 2.61 0 0 0 -1 .62c-3.13 3.13 2.57 13.89 12.72 24.05s20.92 15.85 24.05 12.72a2.61 2.61 0 0 0 .62-1c.6 2.35.44 4.19-.62 5.25-2.78 2.78-10.9-.6-19.77-7.75q-1.905-1.53-3.84-3.3c-1.09-.98-2.18-2.02-3.26-3.1q-1.545-1.545-2.95-3.09c-1.4-1.53-2.7-3.06-3.89-4.57z" fill="#2488ff"/><path d="m45.45 60.07c-1.03 1.03-2.78 1.21-5.04.67a3.052 3.052 0 0 0 1.04-.67 4.171 4.171 0 0 0 .94-3.42 3.7 3.7 0 0 0 3.06-.83 2.61 2.61 0 0 0 .62-1c.6 2.35.44 4.19-.62 5.25z" fill="#006df0"/><path d="m45.19 48.81c1.04 2.52 1.39 4.62.88 6.01a2.61 2.61 0 0 1 -.62 1c-3.13 3.13-13.89-2.57-24.05-12.72s-15.85-20.92-12.72-24.05a2.61 2.61 0 0 1 1-.62c1.94-.71 5.23.24 9.16 2.43a1.322 1.322 0 0 0 -.97.32c-1.56 1.56 2.87 8.52 9.9 15.55s13.99 11.46 15.55 9.9a1.322 1.322 0 0 0 .32-.97 32.451 32.451 0 0 1 1.55 3.15z" fill="#00eed1"/><path d="m46.07 54.82a2.61 2.61 0 0 1 -.62 1c-.95.95-2.61 1.09-4.75.53a2.9 2.9 0 0 0 .75-.53 2.61 2.61 0 0 0 .62-1c.51-1.39.16-3.49-.88-6.01-.35-.82-.76-1.68-1.25-2.59 1.64.77 2.84.95 3.38.41a1.322 1.322 0 0 0 .32-.97 32.451 32.451 0 0 1 1.55 3.15c1.04 2.52 1.39 4.62.88 6.01z" fill="#00ddc2"/><path d="m39.94 46.22c-.11-.05-.22-.11-.34-.17a1.611 1.611 0 0 0 .04-.39c.11.19.21.38.3.56z" fill="#00ddc2"/><path d="m18.84 20.86c1.32.02 3.56 1.14 6.25 3.05 1.22.87 2.54 1.9 3.91 3.07v5.02l4.5 5.5 3.08-3.08c1 1.12 1.91 2.22 2.73 3.27 2.67 3.45 4.3 6.38 4.33 7.97a1.322 1.322 0 0 1 -.32.97c-1.56 1.56-8.52-2.87-15.55-9.9s-11.46-13.99-9.9-15.55a1.322 1.322 0 0 1 .97-.32z" fill="#2488ff"/><path d="m43.64 45.66a1.322 1.322 0 0 1 -.32.97c-.58.58-1.91.33-3.72-.58a1.611 1.611 0 0 0 .04-.39c-.03-1.59-1.66-4.52-4.33-7.97-.28-.36-.58-.73-.89-1.11l2.16-2.16c1 1.12 1.91 2.22 2.73 3.27 2.67 3.45 4.3 6.38 4.33 7.97z" fill="#006df0"/><path d="m41 30-7.5 7.5-.9-1.1 1.98-1.98 4.42-4.42-6-6v-2z" fill="#b39a7c"/><path d="m27 13v4l-6-1 3-3z" fill="#c0ab91"/><path d="m15 50 1.88.63-.88 4.37-9 5-.43-.87 7.43-4.13z" fill="#b39a7c"/><path d="m21.84 49.02-1.84 1.98-1.53-.51 1.37-1.47c-1.09-.98-2.18-2.02-3.26-3.1-.72-.72-1.42-1.45-2.09-2.17l1.14-.92q1.41 1.545 2.95 3.09c1.08 1.08 2.17 2.12 3.26 3.1z" fill="#b39a7c"/><path d="m43.586 9h2.828v2h-2.828z" transform="matrix(.707 -.707 .707 .707 6.109 34.749)"/><path d="m52.586 15h2.828v2h-2.828z" transform="matrix(.707 -.707 .707 .707 4.503 42.87)"/><path d="m41.757 36h8.485v2h-8.485z" transform="matrix(.707 -.707 .707 .707 -12.69 43.364)"/><path d="m49.343 27h11.314v2h-11.314z" transform="matrix(.707 -.707 .707 .707 -3.69 47.092)"/><path d="m33.343 15h11.314v2h-11.314z" transform="matrix(.707 -.707 .707 .707 .109 32.263)"/><path d="m15.586 60h2.828v2h-2.828z" transform="matrix(.707 -.707 .707 .707 -38.154 29.887)"/><path d="m50.293 42.293-4.79 4.79c-.293-.609-.6-1.2-.906-1.747-.212-2.1-2.04-5.015-3.959-7.559l22.069-22.07-1.414-1.414-21.9 21.9c-.511-.629-1-1.214-1.446-1.726l3.758-3.758a1 1 0 0 0 0-1.414l-8-8a1 1 0 0 0 -1.705.705v3h-3a.981.981 0 0 0 -.572.2c-.568-.464-1.173-.941-1.8-1.413l20.079-20.08-1.414-1.414-20.314 20.314c-2.064-1.406-4.18-2.537-5.808-2.7-2.913-1.616-6.82-3.277-9.527-2.5-2.662-.624-4.657-.316-5.917.945-3.4 3.4.345 11.617 6.683 19.828l-7.117 7.113 1.414 1.414 6.953-6.953q1.212 1.494 2.519 2.964l-6.808 5.5a1 1 0 0 0 -.29.383l-3 7a1 1 0 0 0 .024.841l2 4a1 1 0 0 0 1.38.427l9-5a1 1 0 0 0 .5-.678l.779-3.889 1.925.641a1 1 0 0 0 1.048-.267l1.171-1.26c.759.672 1.523 1.331 2.294 1.968l-4.9 4.9 1.414 1.414 5.056-5.056c6.266 4.927 12.6 8.4 16.856 8.4a4.8 4.8 0 0 0 3.533-1.283c1.26-1.259 1.571-3.254.945-5.918a9.747 9.747 0 0 0 -.74-5.8l5.35-5.35zm-7.666 3.618c-.951.542-6.656-2.394-14.15-9.888s-10.421-13.2-9.91-14.128c.457-.264 3.552.592 9.433 5.553v4.552a1 1 0 0 0 .226.633l4.5 5.5a1 1 0 0 0 .724.366h.05a.993.993 0 0 0 .707-.293l2.323-2.323c4.998 5.794 6.445 9.388 6.097 10.028zm-12.627-18.911h3a1 1 0 0 0 1-1v-1.586l5.586 5.586-6.012 6.012-3.574-4.369zm-13.17-6.061c-1.689 3.229 5.492 11.757 10.232 16.5 4.26 4.258 11.579 10.493 15.362 10.493a2.408 2.408 0 0 0 1.137-.263c1.492 3.016 2.066 5.454 1.565 6.815a1.658 1.658 0 0 1 -.388.634c-2.338 2.336-12.209-2.31-22.628-12.728s-15.068-20.29-12.726-22.629a1.675 1.675 0 0 1 .64-.39c1.359-.498 3.791.076 6.806 1.568zm2.87 28.909-2.389-.8a1 1 0 0 0 -1.3.752l-.91 4.547-7.673 4.271-1.328-2.65 2.719-6.346 6.708-5.422c.767.825 1.548 1.639 2.341 2.433.831.831 1.687 1.645 2.552 2.446zm25.033 9.511c-2.673 2.671-13.782-2.473-25.451-14.141s-16.817-22.78-14.141-25.456a3.014 3.014 0 0 1 2.259-.669c-2.727 4.694 4.544 15.957 13.3 24.707 7.481 7.48 16.8 13.883 22.278 13.882a4.759 4.759 0 0 0 2.432-.593 3.01 3.01 0 0 1 -.672 2.27z"/><path d="m40 18h2v2h-2z"/><path d="m48 18h2v2h-2z"/><path d="m41 23h2v2h-2z"/><path d="m43 21h2v2h-2z"/><path d="m43 25h2v2h-2z"/><path d="m45 23h2v2h-2z"/><path d="m54 39h2v2h-2z"/><path d="m56 37h2v2h-2z"/><path d="m56 41h2v2h-2z"/><path d="m58 39h2v2h-2z"/><path d="m30 6h2v2h-2z"/><path d="m32 4h2v2h-2z"/><path d="m32 8h2v2h-2z"/><path d="m34 6h2v2h-2z"/><path d="m23 60h2v2h-2z"/><path d="m25 58h2v2h-2z"/><path d="m27 60h2v2h-2z"/><path d="m50 38h2v2h-2z"/><path d="m55 33h2v2h-2z"/><path d="m47.722 7.5h15.556v2h-15.556z" transform="matrix(.707 -.707 .707 .707 10.245 41.734)"/><path d="m20.836 16.986 6 1a1.009 1.009 0 0 0 .164.014 1 1 0 0 0 .646-.237c.022-.019.031-.046.051-.066l.01.01 3-3-1.414-1.414-1.293 1.293v-1.172l2.707-2.707-1.414-1.414-2.707 2.707h-2.586a1 1 0 0 0 -.707.293l-3 3a1 1 0 0 0 .543 1.693zm3.578-2.986h1.586v1.819l-2.919-.486z"/><path d="m2 34h2v2h-2z"/><path d="m2 38h2v2h-2z"/><path d="m4 36h2v2h-2z"/><path d="m1.586 60h2.828v2h-2.828z" transform="matrix(.707 -.707 .707 .707 -42.255 19.988)"/></g></svg>