<svg height="512" viewBox="0 0 64 64" width="512" xmlns="http://www.w3.org/2000/svg"><g id="comet"><path d="m59.2 4.8s-19.52 43.56-26.16 50.2a17 17 0 0 1 -24.04-24.04c6.64-6.64 50.2-26.16 50.2-26.16z" fill="#ff7956"/><path d="m33.86 54.08a11.641 11.641 0 0 1 -.82.92 17 17 0 0 1 -24.04-24.04 11.641 11.641 0 0 1 .92-.82 17 17 0 0 0 23.94 23.94z" fill="#ff6243"/><path d="m48.07 15.93s-15.23 27.14-20.76 34.63c-.03.04-.05.07-.08.11-.28.37-.53.69-.75.95-.15.18-.29.33-.41.45a10 10 0 1 1 -14.14-14.14c.12-.12.27-.26.45-.41.26-.22.58-.47.95-.75l.11-.08c7.49-5.53 34.63-20.76 34.63-20.76z" fill="#ffde55"/><path d="m26.95 51.04c-.17.22-.33.41-.47.58s-.29.33-.41.45a10 10 0 1 1 -14.14-14.14c.12-.12.27-.26.45-.41s.36-.3.58-.47a10 10 0 0 0 13.99 13.99z" fill="#ffcd00"/><circle cx="18" cy="46" fill="#ff7956" r="5"/><path d="m22.39 48.39a5 5 0 1 1 -6.78-6.78 4.935 4.935 0 0 0 -.61 2.39 5 5 0 0 0 5 5 4.935 4.935 0 0 0 2.39-.61z" fill="#ff6243"/><path d="m11.222 37.222a11 11 0 1 0 15.55 15.55c.143-.142.307-.328.482-.538a10.915 10.915 0 0 0 .893-1.15c5.588-7.618 20.116-33.469 20.79-34.672a1 1 0 0 0 -1.361-1.361c-1.2.674-27.054 15.2-34.672 20.79a10.915 10.915 0 0 0 -1.15.893c-.204.181-.39.345-.532.488zm7.778 16.778a8.988 8.988 0 0 1 -5.912-15.769c.179-.151.383-.314.616-.492a8.984 8.984 0 0 1 12.557 12.561c-.178.233-.341.437-.492.616a8.973 8.973 0 0 1 -6.769 3.084zm10.988-9.24a11 11 0 0 0 -10.748-10.748c7.121-4.5 18.242-10.944 26.2-15.45-4.508 7.956-10.949 19.077-15.452 26.198z"/><path d="m59.911 4.089a1 1 0 0 0 -1.111-.205c-1.785.8-43.811 19.675-50.5 26.367a18 18 0 0 0 25.449 25.456c6.692-6.691 25.567-48.717 26.367-50.5a1 1 0 0 0 -.205-1.118zm-27.576 50.2a16 16 0 0 1 -22.628-22.624c5.544-5.544 38.268-20.665 47.493-24.865-4.2 9.225-19.321 41.949-24.865 47.493z"/><path d="m50.586 36h2.828v2h-2.828z" transform="matrix(.707 -.707 .707 .707 -10.933 47.607)"/><path d="m32.61 46.345h32.089v2h-32.089z" transform="matrix(.707 -.707 .707 .707 -19.227 48.271)"/><path d="m39.343 43h11.314v2h-11.314z" transform="matrix(.707 -.707 .707 .707 -17.933 44.707)"/><path d="m14.586 19h2.828v2h-2.828z" transform="matrix(.707 -.707 .707 .707 -9.456 17.172)"/><path d="m.61 11.345h32.089v2h-32.089z" transform="matrix(.707 -.707 .707 .707 -3.851 15.393)"/><path d="m7.343 8h11.314v2h-11.314z" transform="matrix(.707 -.707 .707 .707 -2.556 11.828)"/><path d="m15.722 11.5h15.556v2h-15.556z" transform="matrix(.707 -.707 .707 .707 -1.956 20.278)"/><path d="m32 8h2v2h-2z"/><path d="m34 10h2v2h-2z"/><path d="m34 6h2v2h-2z"/><path d="m36 8h2v2h-2z"/><path d="m52 28h2v2h-2z"/><path d="m54 30h2v2h-2z"/><path d="m54 26h2v2h-2z"/><path d="m56 28h2v2h-2z"/><path d="m18 40a6 6 0 1 0 6 6 6.006 6.006 0 0 0 -6-6zm0 10a4 4 0 1 1 4-4 4 4 0 0 1 -4 4z"/></g></svg>