<svg height="512" viewBox="0 0 64 64" width="512" xmlns="http://www.w3.org/2000/svg"><g id="copsule"><g fill="#2488ff"><circle cx="25" cy="8" r="2"/><circle cx="32" cy="8" r="2"/><circle cx="39" cy="8" r="2"/><circle cx="46" cy="8" r="2"/><circle cx="18" cy="8" r="2"/><path d="m61 38a4.985 4.985 0 0 1 -5 5l-4 6h-3l-2 8 9 4h-14l-4-12-2 7a4 4 0 0 1 -8 0l-2-7-4 12h-14l9-4-2-8h-3l-4-6a5 5 0 1 1 0-10l1.36-10.18a22.27 22.27 0 0 1 1.59-5.82 2.009 2.009 0 0 1 -1.95-2 2.015 2.015 0 0 1 2-2h42a2.006 2.006 0 0 1 2 2 2.016 2.016 0 0 1 -1.95 2 22.27 22.27 0 0 1 1.59 5.82l1.36 10.18a5 5 0 0 1 5 5z"/></g><path d="m61 38h-22v-5h17a5 5 0 0 1 5 5z" fill="#006df0"/><path d="m42 38h19a4.985 4.985 0 0 1 -5 5h-17v-5z" fill="#2488ff"/><path d="m54.64 22.82 1.36 10.18h-48l1.36-10.18a22.27 22.27 0 0 1 1.59-5.82h42.1a22.27 22.27 0 0 1 1.59 5.82z" fill="#44ffe8"/><path d="m56 33h-2l-1.36-10.18a22.27 22.27 0 0 0 -1.59-5.82h2a22.27 22.27 0 0 1 1.59 5.82z" fill="#00eed1"/><path d="m56 43-4 6h-3-11-12-11-3l-4-6h17 14z" fill="#ffde55"/><path d="m56 61h-14l-4-12h11l-2 8z" fill="#bb7fd9"/><path d="m55 15a2.016 2.016 0 0 1 -1.95 2h-42.1a2.009 2.009 0 0 1 -1.95-2 2.015 2.015 0 0 1 2-2h42a2.006 2.006 0 0 1 2 2z" fill="#bb7fd9"/><path d="m51 7v6h-38v-6a4 4 0 0 1 4-4h30a4 4 0 0 1 4 4z" fill="#2488ff"/><path d="m51 7v6h-2v-6a4 4 0 0 0 -4-4h2a4 4 0 0 1 4 4z" fill="#006df0"/><circle cx="46" cy="8" fill="#ffde55" r="2"/><circle cx="39" cy="8" fill="#ffde55" r="2"/><path d="m39 38v5h-14v-15a7 7 0 1 1 14 0z" fill="#ff7956"/><path d="m39 28v15h-2v-15a6.958 6.958 0 0 0 -2.05-4.95 6.874 6.874 0 0 0 -3.95-1.97 5.474 5.474 0 0 1 1-.08 7 7 0 0 1 7 7z" fill="#ff6243"/><path d="m38 49-2 7h-8l-2-7z" fill="#ff7956"/><path d="m38 49-2 7h-2l2-7z" fill="#ff6243"/><path d="m28 56h8a4 4 0 0 1 -8 0z" fill="#ffde55"/><path d="m56 43-4 6h-2l4-6z" fill="#ffcd00"/><path d="m36 56a3.995 3.995 0 0 1 -4 4 3.657 3.657 0 0 1 -1-.13 4.078 4.078 0 0 0 1.83-1.04 4.025 4.025 0 0 0 1.17-2.83z" fill="#ffcd00"/><circle cx="32" cy="8" fill="#ffde55" r="2"/><circle cx="25" cy="8" fill="#ffde55" r="2"/><path d="m26 49-4 12h-14l9-4-2-8z" fill="#bb7fd9"/><path d="m56 61h-2l-9-4 2-8h2l-2 8z" fill="#a25bcd"/><path d="m26 49-4 12h-2l4-12z" fill="#a25bcd"/><path d="m25 38v5h-17a5 5 0 0 1 -5-5z" fill="#2488ff"/><path d="m25 33v5h-22a4.985 4.985 0 0 1 5-5z" fill="#006df0"/><path d="m61 38h-2a5 5 0 0 0 -5-5h2a5 5 0 0 1 5 5z" fill="#005ece"/><path d="m61 38a4.985 4.985 0 0 1 -5 5h-2a4.985 4.985 0 0 0 5-5z" fill="#006df0"/><path d="m23 38h2v5h-2z" fill="#006df0"/><path d="m23 33h2v5h-2z" fill="#005ece"/><circle cx="18" cy="8" fill="#ffde55" r="2"/><path d="m48 8a2 2 0 0 1 -3 1.73 2 2 0 0 0 0-3.46 2 2 0 0 1 3 1.73z" fill="#ffcd00"/><path d="m41 8a2 2 0 0 1 -3 1.73 2 2 0 0 0 0-3.46 2 2 0 0 1 3 1.73z" fill="#ffcd00"/><path d="m34 8a2 2 0 0 1 -3 1.73 2 2 0 0 0 0-3.46 2 2 0 0 1 3 1.73z" fill="#ffcd00"/><path d="m27 8a2 2 0 0 1 -3 1.73 2 2 0 0 0 0-3.46 2 2 0 0 1 3 1.73z" fill="#ffcd00"/><path d="m20 8a2 2 0 0 1 -3 1.73 2 2 0 0 0 0-3.46 2 2 0 0 1 3 1.73z" fill="#ffcd00"/><path d="m56.885 32.073-1.254-9.384a23.269 23.269 0 0 0 -1.258-5.037 2.99 2.99 0 0 0 -1.373-5.652h-1v-5a5.006 5.006 0 0 0 -5-5h-30a5.006 5.006 0 0 0 -5 5v5h-1a2.99 2.99 0 0 0 -1.373 5.652 23.26 23.26 0 0 0 -1.258 5.036l-1.254 9.384a6 6 0 0 0 .331 11.9l3.722 5.583a1 1 0 0 0 .832.445h2.22l1.606 6.428-8.232 3.658a1 1 0 0 0 .406 1.914h14a1 1 0 0 0 .948-.684l2.979-8.933 1.095 3.835a4.982 4.982 0 0 0 9.956 0l1.095-3.835 2.979 8.933a1 1 0 0 0 .948.684h14a1 1 0 0 0 .406-1.914l-8.232-3.658 1.606-6.428h2.22a1 1 0 0 0 .832-.445l3.721-5.582a6 6 0 0 0 .332-11.9zm-18.885 9.927h-12v-14a6 6 0 0 1 12 0zm-6-22a8.009 8.009 0 0 0 -8 8v4h-14.857l1.209-9.049a21.318 21.318 0 0 1 1.283-4.951h40.73a21.259 21.259 0 0 1 1.283 4.953l1.209 9.047h-14.857v-4a8.009 8.009 0 0 0 -8-8zm-18-13a3 3 0 0 1 3-3h30a3 3 0 0 1 3 3v5h-36zm-3 7h42a1 1 0 0 1 0 2h-42a1 1 0 0 1 0-2zm-6.858 25h17.858v-2h-17.859a3.937 3.937 0 0 1 3.859-3h16v8h-16a4 4 0 0 1 -3.858-3zm17.137 21h-8.567l4.694-2.086a1 1 0 0 0 .564-1.156l-1.69-6.758h8.333zm7.475-5-1.428-5h9.348l-1.428 5zm3.246 4a3 3 0 0 1 -2.816-2h5.632a3 3 0 0 1 -2.816 2zm14.594-1.086 4.694 2.086h-8.567l-3.334-10h8.333l-1.69 6.758a1 1 0 0 0 .564 1.156zm4.871-9.914h-38.93l-2.667-4h44.264zm4.535-6h-16v-8h16a4 4 0 0 1 3.858 3h-17.858v2h17.859a3.937 3.937 0 0 1 -3.859 3z"/><path d="m53 53h2v2h-2z"/><path d="m55 55h2v2h-2z"/><path d="m55 51h2v2h-2z"/><path d="m57 53h2v2h-2z"/><path d="m56 4h2v2h-2z"/><path d="m58 6h2v2h-2z"/><path d="m58 2h2v2h-2z"/><path d="m60 4h2v2h-2z"/><path d="m58 20h2v2h-2z"/><path d="m60 24h2v2h-2z"/><path d="m4 20h2v2h-2z"/><path d="m2 24h2v2h-2z"/><path d="m6 4h2v2h-2z"/><path d="m4 6h2v2h-2z"/><path d="m4 2h2v2h-2z"/><path d="m2 4h2v2h-2z"/><path d="m9 53h2v2h-2z"/><path d="m7 55h2v2h-2z"/><path d="m7 51h2v2h-2z"/><path d="m5 53h2v2h-2z"/><path d="m32 5a3 3 0 1 0 3 3 3 3 0 0 0 -3-3zm0 4a1 1 0 1 1 1-1 1 1 0 0 1 -1 1z"/><path d="m39 5a3 3 0 1 0 3 3 3 3 0 0 0 -3-3zm0 4a1 1 0 1 1 1-1 1 1 0 0 1 -1 1z"/><path d="m46 5a3 3 0 1 0 3 3 3 3 0 0 0 -3-3zm0 4a1 1 0 1 1 1-1 1 1 0 0 1 -1 1z"/><path d="m25 5a3 3 0 1 0 3 3 3 3 0 0 0 -3-3zm0 4a1 1 0 1 1 1-1 1 1 0 0 1 -1 1z"/><path d="m18 5a3 3 0 1 0 3 3 3 3 0 0 0 -3-3zm0 4a1 1 0 1 1 1-1 1 1 0 0 1 -1 1z"/></g></svg>