<svg height="512" viewBox="0 0 64 64" width="512" xmlns="http://www.w3.org/2000/svg"><g id="day_night" data-name="day night"><path d="m61 32a29 29 0 0 1 -29 29v-58a29 29 0 0 1 29 29z" fill="#bddbff"/><path d="m34 3.08v57.84c-.66.06-1.33.08-2 .08v-58c.67 0 1.34.02 2 .08z" fill="#9bc9ff"/><path d="m55.7 33.33.83 3.17-3.17.86-.86 3.17-3.17-.83-2.33 2.3-2.33-2.3-3.17.83-.86-3.17-3.17-.86.83-3.17-2.3-2.33 2.3-2.33-.83-3.17 3.17-.86.86-3.17 3.17.83 2.33-2.3 2.33 2.3 3.17-.83.86 3.17 3.17.86-.83 3.17 2.3 2.33z" fill="#ffde55"/><circle cx="47" cy="31" fill="#ff7956" r="5"/><path d="m47.99 35.9a4.619 4.619 0 0 1 -.99.1 5 5 0 0 1 0-10 4.619 4.619 0 0 1 .99.1 5 5 0 0 0 0 9.8z" fill="#ff6243"/><path d="m46 13a2 2 0 0 1 0 4h-8a2 2 0 0 1 0-4 4 4 0 0 1 8 0z" fill="#ffde55"/><path d="m46 49a2 2 0 0 1 0 4h-8a2 2 0 0 1 0-4 4 4 0 0 1 8 0z" fill="#ffde55"/><g fill="#ffcd00"><path d="m42.64 24.64-3.17.86.83 3.17-2.3 2.33 2.3 2.33-.83 3.17 3.17.86.73 2.68-1.87.49-.86-3.17-3.17-.86.83-3.17-2.3-2.33 2.3-2.33-.83-3.17 3.17-.86.86-3.17 1.87.49z"/><path d="m43 9.13a3.992 3.992 0 0 0 -3 3.87 2 2 0 0 0 0 4h-2a2 2 0 0 1 0-4 4 4 0 0 1 4-4 3.657 3.657 0 0 1 1 .13z"/><path d="m43 45.13a3.992 3.992 0 0 0 -3 3.87 2 2 0 0 0 0 4h-2a2 2 0 0 1 0-4 4 4 0 0 1 4-4 3.657 3.657 0 0 1 1 .13z"/></g><path d="m32 3v58a29 29 0 0 1 0-58z" fill="#006df0"/><path d="m32 3v58c-.67 0-1.34-.02-2-.08v-57.84c.66-.06 1.33-.08 2-.08z" fill="#005ece"/><path d="m22 42a8.621 8.621 0 0 0 6-3 10.457 10.457 0 0 1 -10 9 10 10 0 0 1 -10-10c0-5.05 3.14-9.32 8-10-1.59 1.46-2 3.67-2 6a8 8 0 0 0 8 8z" fill="#ffde55"/><path d="m28 39a10.457 10.457 0 0 1 -10 9c-.34 0-.69-.02-1.02-.05a10.494 10.494 0 0 0 8.53-6.96 10.435 10.435 0 0 0 2.49-1.99z" fill="#ffcd00"/><path d="m62 32a30.031 30.031 0 0 0 -29-29.975v-.025h-2v.025a29.991 29.991 0 0 0 0 59.95v.025h2v-.025a30.031 30.031 0 0 0 29-29.975zm-58 0a28.03 28.03 0 0 1 27-27.975v55.95a28.03 28.03 0 0 1 -27-27.975zm29 27.975v-55.95a27.993 27.993 0 0 1 0 55.95z"/><path d="m47 25a6 6 0 1 0 6 6 6.006 6.006 0 0 0 -6-6zm0 10a4 4 0 1 1 4-4 4 4 0 0 1 -4 4z"/><path d="m58.711 30.3-1.9-1.925.686-2.62a1 1 0 0 0 -.7-1.218l-2.611-.712-.712-2.613a1 1 0 0 0 -1.219-.7l-2.619.688-1.926-1.9a1 1 0 0 0 -1.406 0l-1.926 1.9-2.618-.688a1 1 0 0 0 -1.219.7l-.712 2.612-2.612.712a1 1 0 0 0 -.7 1.219l.686 2.619-1.9 1.926a1 1 0 0 0 0 1.406l1.9 1.925-.686 2.62a1 1 0 0 0 .7 1.218l2.611.712.712 2.613a1 1 0 0 0 1.219.7l2.619-.688 1.926 1.9a1 1 0 0 0 1.406 0l1.926-1.9 2.618.688a1 1 0 0 0 1.219-.7l.712-2.612 2.612-.712a1 1 0 0 0 .7-1.219l-.686-2.619 1.9-1.926a1 1 0 0 0 0-1.406zm-3.982 3.288.58 2.212-2.208.6a1 1 0 0 0 -.7.7l-.6 2.208-2.212-.581a1 1 0 0 0 -.957.256l-1.632 1.611-1.628-1.61a1 1 0 0 0 -.957-.256l-2.213.581-.602-2.209a1 1 0 0 0 -.7-.7l-2.207-.6.58-2.213a1 1 0 0 0 -.255-.957l-1.612-1.63 1.61-1.628a1 1 0 0 0 .255-.957l-.58-2.212 2.208-.6a1 1 0 0 0 .7-.7l.6-2.208 2.212.581a1 1 0 0 0 .957-.256l1.632-1.614 1.628 1.61a1 1 0 0 0 .957.256l2.213-.581.6 2.208a1 1 0 0 0 .7.7l2.207.6-.58 2.213a1 1 0 0 0 .255.957l1.614 1.631-1.61 1.628a1 1 0 0 0 -.255.957z"/><path d="m22 30h2v2h-2z"/><path d="m20 28h2v2h-2z"/><path d="m20 32h2v2h-2z"/><path d="m18 30h2v2h-2z"/><path d="m27 53h2v2h-2z"/><path d="m25 51h2v2h-2z"/><path d="m25 55h2v2h-2z"/><path d="m23 53h2v2h-2z"/><path d="m13 21h2v2h-2z"/><path d="m11 19h2v2h-2z"/><path d="m11 23h2v2h-2z"/><path d="m9 21h2v2h-2z"/><path d="m27 19h2v2h-2z"/><path d="m25 17h2v2h-2z"/><path d="m25 21h2v2h-2z"/><path d="m23 19h2v2h-2z"/><path d="m21 11h2v2h-2z"/><path d="m19 9h2v2h-2z"/><path d="m19 13h2v2h-2z"/><path d="m17 11h2v2h-2z"/><path d="m28.99 39.139a1 1 0 0 0 -1.727-.815 7.552 7.552 0 0 1 -5.263 2.676 7.008 7.008 0 0 1 -7-7c0-2.542.532-4.214 1.676-5.263a1 1 0 0 0 -.815-1.727c-5.217.732-8.861 5.252-8.861 10.99a11.013 11.013 0 0 0 11 11 11.45 11.45 0 0 0 10.99-9.861zm-10.99 7.861a9.224 9.224 0 0 1 -4.347-17.235 11.875 11.875 0 0 0 -.653 4.235 9.01 9.01 0 0 0 9 9 8.287 8.287 0 0 0 4.076-1.179 9.262 9.262 0 0 1 -8.076 5.179z"/><path d="m38 18h8a3 3 0 0 0 .927-5.854 5 5 0 0 0 -9.854 0 3 3 0 0 0 .927 5.854zm0-4a1 1 0 0 0 1-1 3 3 0 0 1 6 0 1 1 0 0 0 1 1 1 1 0 0 1 0 2h-8a1 1 0 0 1 0-2z"/><path d="m46.927 48.146a5 5 0 0 0 -9.854 0 3 3 0 0 0 .927 5.854h8a3 3 0 0 0 .927-5.854zm-.927 3.854h-8a1 1 0 0 1 0-2 1 1 0 0 0 1-1 3 3 0 0 1 6 0 1 1 0 0 0 1 1 1 1 0 0 1 0 2z"/></g></svg>