<svg height="512" viewBox="0 0 64 64" width="512" xmlns="http://www.w3.org/2000/svg"><g id="eslipse"><circle cx="55" cy="5" fill="#ffde55" r="2"/><path d="m40 40a2 2 0 1 1 2-2 2.006 2.006 0 0 1 -2 2zm-3-14a5 5 0 1 1 5-5 5 5 0 0 1 -5 5zm15 6a2 2 0 1 1 2-2 2.006 2.006 0 0 1 -2 2z" fill="#00b6bd"/><path d="m61 32a19 19 0 0 1 -19 19 18.769 18.769 0 0 1 -4.88-.64 22 22 0 1 1 0-36.72 18.769 18.769 0 0 1 4.88-.64 19 19 0 0 1 19 19z" fill="#2488ff"/><path d="m61 32a19 19 0 0 1 -19 19 18.769 18.769 0 0 1 -4.88-.64 19 19 0 0 1 0-36.72 18.769 18.769 0 0 1 4.88-.64 19 19 0 0 1 19 19z" fill="#ffde55"/><path d="m61 32a19 19 0 0 1 -19 19c-.32 0-.64-.01-.95-.03a19 19 0 0 0 0-37.94c.31-.02.63-.03.95-.03a19 19 0 0 1 19 19z" fill="#ffcd00"/><g fill="#c0ab91"><circle cx="52" cy="34" r="2"/><circle cx="40" cy="42" r="2"/><circle cx="37" cy="25" r="5"/></g><path d="m42 25a5 5 0 0 1 -5 5 4.619 4.619 0 0 1 -.99-.1 5 5 0 0 0 0-9.8 4.619 4.619 0 0 1 .99-.1 5 5 0 0 1 5 5z" fill="#b39a7c"/><path d="m37.12 50.36a21.871 21.871 0 0 1 -12.12 3.64c-.69 0-1.36-.03-2.03-.09a21.83 21.83 0 0 0 10.15-3.55 19 19 0 0 1 0-36.72 21.939 21.939 0 0 0 -10.12-3.55c.66-.06 1.33-.09 2-.09a21.871 21.871 0 0 1 12.12 3.64 19 19 0 0 0 0 36.72z" fill="#006df0"/><path d="m21.66 45.45a1 1 0 0 1 -.02 1.09l-4.11 6.16a22.014 22.014 0 0 1 -4.04-39.46l6.27 3.14a1 1 0 0 1 .26 1.6l-3.54 3.54a1 1 0 0 0 -.21 1.1l2.6 6.08a.925.925 0 0 1 .06.61l-1.84 8.29a.993.993 0 0 0 .13.75z" fill="#00b6bd"/><path d="m21.64 46.54-4.11 6.16a22.347 22.347 0 0 1 -3.07-1.39l3.18-4.77a1 1 0 0 0 .02-1.09l-4.44-7.1a.993.993 0 0 1 -.13-.75l1.84-8.29a.925.925 0 0 0 -.06-.61l-2.6-6.08a1 1 0 0 1 .21-1.1l3.54-3.54a1 1 0 0 0 -.26-1.6l-3.95-1.98a19.283 19.283 0 0 1 1.68-1.16l6.27 3.14a1 1 0 0 1 .26 1.6l-3.54 3.54a1 1 0 0 0 -.21 1.1l2.6 6.08a.925.925 0 0 1 .06.61l-1.84 8.29a.993.993 0 0 0 .13.75l4.44 7.1a1 1 0 0 1 -.02 1.09z" fill="#009698"/><circle cx="15" cy="58" fill="#ffde55" r="2"/><circle cx="13" cy="5" fill="#ffde55" r="2"/><path d="m42 12a19.939 19.939 0 0 0 -4.7.58 23 23 0 1 0 0 38.84 19.991 19.991 0 1 0 4.7-39.42zm-38 20a20.986 20.986 0 0 1 9.577-17.6l5.736 2.87-3.542 3.541a1.99 1.99 0 0 0 -.423 2.2l2.606 6.089-1.841 8.285a1.987 1.987 0 0 0 .256 1.495l4.441 7.1-3.658 5.482a21.022 21.022 0 0 1 -13.152-19.462zm21 21a20.883 20.883 0 0 1 -5.9-.858l3.37-5.05a2.006 2.006 0 0 0 .032-2.17l-4.441-7.1 1.841-8.286a1.979 1.979 0 0 0 -.114-1.22l-2.606-6.082 3.541-3.541a2 2 0 0 0 -.519-3.2l-4.536-2.27a20.835 20.835 0 0 1 19.043.18 19.971 19.971 0 0 0 0 37.212 20.876 20.876 0 0 1 -9.711 2.385zm17-3a18 18 0 1 1 18-18 18.021 18.021 0 0 1 -18 18z"/><path d="m13 8a3 3 0 1 0 -3-3 3 3 0 0 0 3 3zm0-4a1 1 0 1 1 -1 1 1 1 0 0 1 1-1z"/><path d="m15 55a3 3 0 1 0 3 3 3 3 0 0 0 -3-3zm0 4a1 1 0 1 1 1-1 1 1 0 0 1 -1 1z"/><path d="m55 8a3 3 0 1 0 -3-3 3 3 0 0 0 3 3zm0-4a1 1 0 1 1 -1 1 1 1 0 0 1 1-1z"/><path d="m56 12h2v2h-2z"/><path d="m58 10h2v2h-2z"/><path d="m58 14h2v2h-2z"/><path d="m60 12h2v2h-2z"/><path d="m35 6h2v2h-2z"/><path d="m37 4h2v2h-2z"/><path d="m37 8h2v2h-2z"/><path d="m39 6h2v2h-2z"/><path d="m37 58h2v2h-2z"/><path d="m39 56h2v2h-2z"/><path d="m39 60h2v2h-2z"/><path d="m41 58h2v2h-2z"/><path d="m56 51h2v2h-2z"/><path d="m58 49h2v2h-2z"/><path d="m58 53h2v2h-2z"/><path d="m60 51h2v2h-2z"/><path d="m2 58h2v2h-2z"/><path d="m4 56h2v2h-2z"/><path d="m4 60h2v2h-2z"/><path d="m6 58h2v2h-2z"/><path d="m2 12h2v2h-2z"/><path d="m4 10h2v2h-2z"/><path d="m4 14h2v2h-2z"/><path d="m6 12h2v2h-2z"/><path d="m37 19a6 6 0 1 0 6 6 6.006 6.006 0 0 0 -6-6zm0 10a4 4 0 1 1 4-4 4 4 0 0 1 -4 4z"/><path d="m52 31a3 3 0 1 0 3 3 3 3 0 0 0 -3-3zm0 4a1 1 0 1 1 1-1 1 1 0 0 1 -1 1z"/><path d="m40 39a3 3 0 1 0 3 3 3 3 0 0 0 -3-3zm0 4a1 1 0 1 1 1-1 1 1 0 0 1 -1 1z"/></g></svg>