<svg height="512" viewBox="0 0 64 64" width="512" xmlns="http://www.w3.org/2000/svg"><g id="falling_star" data-name="falling star"><path d="m34.39 41a1 1 0 0 1 .59 1.81l-8.34 6.05a1 1 0 0 0 -.36 1.12l3.18 9.8a1 1 0 0 1 -1.54 1.12l-8.33-6.06a1.022 1.022 0 0 0 -1.18 0l-8.33 6.06a1 1 0 0 1 -1.54-1.12l3.18-9.8a1 1 0 0 0 -.36-1.12l-8.34-6.05a1 1 0 0 1 .59-1.81h10.3a1.012 1.012 0 0 0 .96-.69l3.18-9.8a1 1 0 0 1 1.9 0l3.18 9.8a1.012 1.012 0 0 0 .96.69z" fill="#ffde55"/><path d="m24.09 41h-2a1.012 1.012 0 0 1 -.96-.69l-3.13-9.65.05-.15a1 1 0 0 1 1.9 0l3.18 9.8a1.012 1.012 0 0 0 .96.69z" fill="#ffcd00"/><path d="m26.64 48.86a1 1 0 0 0 -.36 1.12l3.18 9.8a1 1 0 0 1 -1.54 1.12l-.51-.37a.958.958 0 0 0 .05-.75l-3.18-9.8a1 1 0 0 1 .36-1.12l8.34-6.05a1 1 0 0 0 -.59-1.81h2a1 1 0 0 1 .59 1.81z" fill="#ffcd00"/><path d="m27.229 49.674 8.335-6.056a2 2 0 0 0 -1.176-3.618h-10.3l-3.188-9.8a2 2 0 0 0 -3.8 0l-3.186 9.8h-10.302a2 2 0 0 0 -1.176 3.618l8.335 6.056-3.184 9.8a2 2 0 0 0 3.078 2.236l8.335-6.058 8.335 6.056a1.967 1.967 0 0 0 2.351 0 1.972 1.972 0 0 0 .727-2.236zm-7.054 4.36a2 2 0 0 0 -2.351 0l-8.334 6.056 3.183-9.8a2 2 0 0 0 -.726-2.236l-8.335-6.054h10.3a1.994 1.994 0 0 0 1.9-1.382l3.188-9.81v.012l3.184 9.8a1.994 1.994 0 0 0 1.902 1.38h10.3l-8.335 6.056a2 2 0 0 0 -.726 2.236l3.184 9.8z"/><path d="m17.029 14h33.941v2h-33.941z" transform="matrix(.707 -.707 .707 .707 -.648 28.435)"/><path d="m27.515 18h16.971v2h-16.971z" transform="matrix(.707 -.707 .707 .707 -2.891 31.021)"/><path d="m43.586 9h2.828v2h-2.828z" transform="matrix(.707 -.707 .707 .707 6.109 34.749)"/><path d="m33.029 26h33.941v2h-33.941z" transform="matrix(.707 -.707 .707 .707 -4.447 43.263)"/><path d="m41.757 36h8.485v2h-8.485z" transform="matrix(.707 -.707 .707 .707 -12.69 43.364)"/><path d="m49.343 27h11.314v2h-11.314z" transform="matrix(.707 -.707 .707 .707 -3.69 47.092)"/><path d="m29.686 50h22.627v2h-22.627z" transform="matrix(.707 -.707 .707 .707 -24.054 43.929)"/><path d="m36.343 56h11.314v2h-11.314z" transform="matrix(.707 -.707 .707 .707 -28.004 46.393)"/><path d="m2 58h2v2h-2z"/><path d="m4 50h2v2h-2z"/><path d="m18 59h2v2h-2z"/><path d="m10 21h2v2h-2z"/><path d="m12 19h2v2h-2z"/><path d="m12 23h2v2h-2z"/><path d="m14 21h2v2h-2z"/><path d="m2 34h2v2h-2z"/><path d="m4 32h2v2h-2z"/><path d="m4 36h2v2h-2z"/><path d="m6 34h2v2h-2z"/><path d="m29 31h2v2h-2z"/><path d="m31 29h2v2h-2z"/><path d="m31 33h2v2h-2z"/><path d="m33 31h2v2h-2z"/><path d="m30 50h2v2h-2z"/><path d="m32 48h2v2h-2z"/><path d="m32 52h2v2h-2z"/><path d="m34 50h2v2h-2z"/><path d="m49 12h2v2h-2z"/><path d="m51 10h2v2h-2z"/><path d="m51 14h2v2h-2z"/><path d="m53 12h2v2h-2z"/><path d="m24 14h2v2h-2z"/><path d="m27 12h2v2h-2z"/><path d="m41 27h2v2h-2z"/><path d="m11 31h2v2h-2z"/><path d="m19 19h2v2h-2z"/><path d="m6 25h2v2h-2z"/><path d="m47 22h2v2h-2z"/><path d="m50 38h2v2h-2z"/><path d="m48 49h2v2h-2z"/><path d="m38 44h2v2h-2z"/><path d="m55 33h2v2h-2z"/><path d="m33.515 21h16.971v2h-16.971z" transform="matrix(.707 -.707 .707 .707 -3.255 36.142)"/><path d="m53.757 5h8.485v2h-8.485z" transform="matrix(.707 -.707 .707 .707 12.745 42.77)"/></g></svg>