<svg height="512" viewBox="0 0 64 64" width="512" xmlns="http://www.w3.org/2000/svg"><g id="flag"><path d="m61 11v12h-18l7-6v-6z" fill="#bb7fd9"/><path d="m61 61h-58a28.818 28.818 0 0 1 7.31-19.24 12.01 12.01 0 0 0 2.49.24c6.4 0 6.4-4 12.8-4s6.39 4 12.79 4c5.88 0 6.36-3.37 11.37-3.92a28.808 28.808 0 0 1 6.43 6.92h-9.19a6.009 6.009 0 0 0 -6 6 6 6 0 0 0 6 6h13.72a27.8 27.8 0 0 1 .28 4zm-35-10a6 6 0 1 0 -6 6 6 6 0 0 0 6-6z" fill="#2488ff"/><path d="m49.76 38.08a9.8 9.8 0 0 0 -1.61.31 28.8 28.8 0 0 1 6.04 6.61h2a28.808 28.808 0 0 0 -6.43-6.92zm10.96 18.92h-2a27.8 27.8 0 0 1 .28 4h2a27.8 27.8 0 0 0 -.28-4z" fill="#006df0"/><path d="m60.72 57h-13.72a6 6 0 0 1 -6-6 6.009 6.009 0 0 1 6-6h9.19a28.615 28.615 0 0 1 4.53 12z" fill="#ffde55"/><path d="m50 11v6h-7-11v-12h18z" fill="#bb7fd9"/><path d="m59 11h2v12h-2z" fill="#a25bcd"/><path d="m48 5h2v12h-2z" fill="#a25bcd"/><path d="m50 17-7 6v-6z" fill="#933ec5"/><path d="m49.76 38.08c-5.01.55-5.49 3.92-11.37 3.92-6.4 0-6.4-4-12.79-4s-6.4 4-12.8 4a12.01 12.01 0 0 1 -2.49-.24 28.98 28.98 0 0 1 39.45-3.68z" fill="#009698"/><path d="m49.76 38.08c-5.01.55-5.49 3.92-11.37 3.92-.37 0-.71-.01-1.04-.04 4.99-.34 5.69-3.36 10.41-3.88a28.7 28.7 0 0 0 -16.87-6.06c.37-.01.74-.02 1.11-.02a28.807 28.807 0 0 1 17.76 6.08z" fill="#007579"/><circle cx="20" cy="51" fill="#ff7956" r="6"/><path d="m60.72 57h-2a28.615 28.615 0 0 0 -4.53-12h2a28.615 28.615 0 0 1 4.53 12z" fill="#ffcd00"/><path d="m26 51a6 6 0 0 1 -6 6 5.47 5.47 0 0 1 -1-.09 5.993 5.993 0 0 0 0-11.82 5.47 5.47 0 0 1 1-.09 6 6 0 0 1 6 6z" fill="#ff6243"/><path d="m20 44a7 7 0 1 0 7 7 7.008 7.008 0 0 0 -7-7zm0 12a5 5 0 1 1 5-5 5.006 5.006 0 0 1 -5 5z"/><path d="m22 4h2v2h-2z"/><path d="m24 2h2v2h-2z"/><path d="m24 6h2v2h-2z"/><path d="m26 4h2v2h-2z"/><path d="m10 18h2v2h-2z"/><path d="m12 16h2v2h-2z"/><path d="m12 20h2v2h-2z"/><path d="m14 18h2v2h-2z"/><path d="m21 24h2v2h-2z"/><path d="m23 22h2v2h-2z"/><path d="m23 26h2v2h-2z"/><path d="m25 24h2v2h-2z"/><path d="m49 30h2v2h-2z"/><path d="m51 28h2v2h-2z"/><path d="m51 32h2v2h-2z"/><path d="m53 30h2v2h-2z"/><path d="m56 4h2v2h-2z"/><path d="m58 2h2v2h-2z"/><path d="m58 6h2v2h-2z"/><path d="m60 4h2v2h-2z"/><path d="m2 35h2v2h-2z"/><path d="m4 33h2v2h-2z"/><path d="m4 37h2v2h-2z"/><path d="m6 35h2v2h-2z"/><path d="m4 7h2v2h-2z"/><path d="m6 5h2v2h-2z"/><path d="m6 9h2v2h-2z"/><path d="m8 7h2v2h-2z"/><path d="m61 10h-10v-5a1 1 0 0 0 -1-1h-17v-2h-2v29.025a30.031 30.031 0 0 0 -29 29.975 1 1 0 0 0 1 1h58a1 1 0 0 0 1-1 30.031 30.031 0 0 0 -29-29.975v-13.025h9v5a1 1 0 0 0 1 1h18a1 1 0 0 0 1-1v-12a1 1 0 0 0 -1-1zm-29 23a27.84 27.84 0 0 1 15.35 4.592 14.367 14.367 0 0 0 -3.087 1.563 9.657 9.657 0 0 1 -5.873 1.845 9.625 9.625 0 0 1 -5.87-1.849 11.561 11.561 0 0 0 -6.92-2.151 11.579 11.579 0 0 0 -6.93 2.152 9.629 9.629 0 0 1 -5.87 1.848c-.124 0-.236-.013-.356-.016a27.9 27.9 0 0 1 19.556-7.984zm27.55 23h-12.55a5.006 5.006 0 0 1 -5-5 5.009 5.009 0 0 1 5-5h8.633a27.82 27.82 0 0 1 3.917 10zm-5.321-12h-7.229a7.008 7.008 0 0 0 -7 7 7.008 7.008 0 0 0 7 7h12.832c.071.661.127 1.326.15 2h-55.964a27.871 27.871 0 0 1 6.695-17.169 13.486 13.486 0 0 0 2.087.169 11.586 11.586 0 0 0 6.93-2.152 9.629 9.629 0 0 1 5.87-1.848 9.607 9.607 0 0 1 5.859 1.847 11.579 11.579 0 0 0 6.931 2.153 11.609 11.609 0 0 0 6.93-2.147 10.129 10.129 0 0 1 4.149-1.72 28.219 28.219 0 0 1 4.76 4.867zm-21.229-38h16v10h-16zm14.3 12-3.3 2.826v-2.826zm12.7 4h-14.3l4.947-4.241-.007-.009a.984.984 0 0 0 .36-.75v-5h9z"/></g></svg>