<svg height="512" viewBox="0 0 64 64" width="512" xmlns="http://www.w3.org/2000/svg"><g id="galaxy"><circle cx="32" cy="32" fill="#bb7fd9" r="27"/><circle cx="32" cy="32" fill="#44ffe8" r="20"/><path d="m52 32a19.994 19.994 0 0 1 -20 20c-.32 0-.65-.01-.97-.03a20 20 0 0 0 0-39.94c.32-.02.65-.03.97-.03a19.994 19.994 0 0 1 20 20z" fill="#00eed1"/><path d="m59 32a27 27 0 0 1 -27 27c-.34 0-.67-.01-1-.03a26.988 26.988 0 0 0 0-53.94c.33-.02.66-.03 1-.03a27 27 0 0 1 27 27z" fill="#933ec5"/><circle cx="59" cy="5" fill="#ffde55" r="2"/><circle cx="59" cy="59" fill="#ffde55" r="2"/><path d="m51 10a3 3 0 1 1 -2.15.91 3 3 0 0 1 2.15-.91z" fill="#2488ff"/><path d="m21 55a2.944 2.944 0 0 1 -.39 1.48 3 3 0 1 1 .39-1.48z" fill="#2488ff"/><g fill="#ffde55"><path d="m20.14 15.9a3 3 0 0 1 -4.24 4.24 2.958 2.958 0 0 1 -.9-2.14 3 3 0 0 1 3-3 2.958 2.958 0 0 1 2.14.9z"/><circle cx="8" cy="8" r="2"/><circle cx="6" cy="55" r="2"/></g><circle cx="32" cy="32" fill="#ff7956" r="10"/><path d="m42 32a10 10 0 0 1 -10 10c-.33 0-.66-.02-.98-.05a10 10 0 0 0 0-19.9c.32-.03.65-.05.98-.05a10 10 0 0 1 10 10z" fill="#ff6243"/><circle cx="51" cy="50" fill="#ffde55" r="6"/><path d="m57 50a6 6 0 0 1 -6 6 5.47 5.47 0 0 1 -1-.09 5.993 5.993 0 0 0 0-11.82 5.47 5.47 0 0 1 1-.09 6 6 0 0 1 6 6z" fill="#ffd422"/><path d="m56.73 51.77a5.99 5.99 0 0 1 -3.96 3.96 3 3 0 1 1 3.96-3.96z" fill="#ff7956"/><path d="m56.447 45.613a27.863 27.863 0 0 0 -2.1-30.438 3.99 3.99 0 0 0 -5.524-5.523 27.636 27.636 0 0 0 -16.823-5.652 27.981 27.981 0 0 0 -17.744 49.632 3.961 3.961 0 0 0 -.256 1.368 3.988 3.988 0 0 0 6.926 2.708 27.881 27.881 0 0 0 25.989-2.035 6.991 6.991 0 0 0 9.532-10.06zm-6.447 7.387a3.975 3.975 0 0 0 .52 1.951 4.986 4.986 0 1 1 5.431-5.431 3.983 3.983 0 0 0 -5.951 3.48zm-30-35a2 2 0 1 1 -2-2 2 2 0 0 1 2 2zm-3.837 3.532a3.947 3.947 0 0 0 1.837.468 4 4 0 0 0 4-4 3.944 3.944 0 0 0 -.468-1.837 18.825 18.825 0 0 1 10.468-3.163 19 19 0 1 1 -19 19 18.823 18.823 0 0 1 3.163-10.468zm34.837-10.532a2 2 0 1 1 -2 2 2 2 0 0 1 2-2zm-33 46a2 2 0 1 1 2-2 2 2 0 0 1 -2 2zm3.876-1.059a3.946 3.946 0 0 0 .124-.941 4 4 0 0 0 -4-4 3.959 3.959 0 0 0 -2.6.985 25.982 25.982 0 0 1 16.6-45.985 25.661 25.661 0 0 1 15.479 5.142 3.947 3.947 0 0 0 -.479 1.858 4 4 0 0 0 4 4 3.947 3.947 0 0 0 1.858-.479 25.868 25.868 0 0 1 2.076 27.694 6.884 6.884 0 0 0 -5.148-1.1 20.969 20.969 0 0 0 -29.6-28.454 3.992 3.992 0 0 0 -5.53 5.53 20.807 20.807 0 0 0 -3.656 11.809 20.97 20.97 0 0 0 33.054 17.168 7.146 7.146 0 0 0 -.054.832 6.959 6.959 0 0 0 1.44 4.236 25.895 25.895 0 0 1 -23.564 1.705zm31-1.313a1.973 1.973 0 0 1 -.876-1.628 2 2 0 0 1 2-2 1.975 1.975 0 0 1 1.628.877 5.024 5.024 0 0 1 -2.751 2.751z"/><path d="m21.018 44.607c1.036 0 2.774-.664 5.815-2.9a11 11 0 0 0 14.84-14.939c3.288-4.576 2.809-6.015 2.129-6.7s-2.133-1.16-6.751 2.17a10.981 10.981 0 0 0 -14.845 14.745c-3.633 4.917-3.147 6.427-2.446 7.129a1.666 1.666 0 0 0 1.258.495zm10.982-3.607a8.948 8.948 0 0 1 -3.388-.667 75.379 75.379 0 0 0 6-5.414 73.7 73.7 0 0 0 5.7-6.365 8.994 8.994 0 0 1 -8.312 12.446zm10.266-19.394a11.556 11.556 0 0 1 -1.8 3.386 11.076 11.076 0 0 0 -1.612-1.577 11.584 11.584 0 0 1 3.412-1.809zm-10.266 1.394a8.984 8.984 0 0 1 7.241 3.677 69.437 69.437 0 0 1 -6.041 6.828 70.838 70.838 0 0 1 -6.474 5.768 8.989 8.989 0 0 1 5.274-16.273zm-8.637 15.79a11.126 11.126 0 0 0 1.7 1.734 12.394 12.394 0 0 1 -3.763 2.052 12.415 12.415 0 0 1 2.063-3.786z"/><path d="m8 11a3 3 0 1 0 -3-3 3 3 0 0 0 3 3zm0-4a1 1 0 1 1 -1 1 1 1 0 0 1 1-1z"/><path d="m59 8a3 3 0 1 0 -3-3 3 3 0 0 0 3 3zm0-4a1 1 0 1 1 -1 1 1 1 0 0 1 1-1z"/><path d="m6 52a3 3 0 1 0 3 3 3 3 0 0 0 -3-3zm0 4a1 1 0 1 1 1-1 1 1 0 0 1 -1 1z"/><path d="m59 56a3 3 0 1 0 3 3 3 3 0 0 0 -3-3zm0 4a1 1 0 1 1 1-1 1 1 0 0 1 -1 1z"/></g></svg>