<svg height="512" viewBox="0 0 64 64" width="512" xmlns="http://www.w3.org/2000/svg"><g id="helmet"><path d="m51 51h-38a10 10 0 0 0 -10 10h58a10 10 0 0 0 -10-10z" fill="#2488ff"/><path d="m58 29v8a14 14 0 0 1 -14 14h-24a14 14 0 0 1 -14-14v-7.41c0-14.27 11.25-26.33 25.52-26.59a26.023 26.023 0 0 1 26.48 26z" fill="#ffde55"/><path d="m58 29v8a14 14 0 0 1 -14 14h-2a14 14 0 0 0 14-14v-8a26.017 26.017 0 0 0 -24.99-25.98c.17-.01.34-.02.51-.02a26.023 26.023 0 0 1 26.48 26z" fill="#ffcd00"/><path d="m53.97 28a22.326 22.326 0 0 1 -1.1 8 6.465 6.465 0 0 1 -.29.79 17.879 17.879 0 0 1 -13.58 6.21 4 4 0 0 0 -4-4h-6a4 4 0 0 0 -4 4 17.983 17.983 0 0 1 -12.73-5.27c-.29-.29-.57-.6-.84-.91a6.258 6.258 0 0 1 -.3-.82 21.817 21.817 0 0 1 -1.1-8 17.4 17.4 0 0 1 .47-3.64v-.01a17.524 17.524 0 0 1 1.77-2.08 17.983 17.983 0 0 1 12.73-5.27h14a17.942 17.942 0 0 1 14.5 7.35 17.478 17.478 0 0 1 .47 3.65z" fill="#44ffe8"/><path d="m53.97 28a22.313 22.313 0 0 1 -1.1 8 5.766 5.766 0 0 1 -.29.79 17.879 17.879 0 0 1 -13.58 6.21.41.41 0 0 0 -.01-.11 17.869 17.869 0 0 0 11.59-6.1 5.766 5.766 0 0 0 .29-.79 22.313 22.313 0 0 0 1.1-8 17.621 17.621 0 0 0 -.47-3.65 17.942 17.942 0 0 0 -14.5-7.35h2a17.942 17.942 0 0 1 14.5 7.35 17.621 17.621 0 0 1 .47 3.65z" fill="#00eed1"/><path d="m53.97 28c.02.33.03.66.03 1a22.175 22.175 0 0 1 -1.13 7h-3.87v-8z" fill="#ff7956"/><path d="m54 29a22.175 22.175 0 0 1 -1.13 7h-2a22.175 22.175 0 0 0 1.13-7c0-.34-.01-.67-.03-1h2c.02.33.03.66.03 1z" fill="#ff6243"/><path d="m52.58 36.79a22.008 22.008 0 0 1 -9.04 10.94 1.981 1.981 0 0 0 -1.54-.73h-3v-4a17.879 17.879 0 0 0 13.58-6.21z" fill="#2488ff"/><path d="m44 51v2a2.006 2.006 0 0 1 -2 2h-20a2.006 2.006 0 0 1 -2-2v-4a2.01 2.01 0 0 1 2-2h20a2.01 2.01 0 0 1 2 2z" fill="#c6c5ca"/><path d="m44 49v4a2.006 2.006 0 0 1 -2 2h-2a2.006 2.006 0 0 0 2-2v-4a2.01 2.01 0 0 0 -2-2h2a2.01 2.01 0 0 1 2 2z" fill="#acabb1"/><path d="m42 61h-20l6-6h8z" fill="#ffde55"/><path d="m42 61h-2l-6-6h2z" fill="#ffcd00"/><path d="m39 43v4h-14v-4a4 4 0 0 1 4-4h6a4 4 0 0 1 4 4z" fill="#ff7956"/><path d="m39 43v4h-2v-4a4 4 0 0 0 -4-4h2a4 4 0 0 1 4 4z" fill="#ff6243"/><path d="m29 39h6v4h-6z" fill="#ffde55"/><path d="m33 39h2v4h-2z" fill="#ffcd00"/><path d="m33.08 7.03q-.54-.03-1.08-.03a21.991 21.991 0 0 0 -21.5 17.35 17.524 17.524 0 0 1 1.77-2.08 17.983 17.983 0 0 1 12.73-5.27h14a17.942 17.942 0 0 1 14.5 7.35 21.99 21.99 0 0 0 -20.42-17.32z" fill="#2488ff"/><path d="m35 13v4h-6v-4h2z" fill="#ff7956"/><path d="m33 13h2v4h-2z" fill="#ff6243"/><g fill="#006df0"><path d="m61 61h-4a10 10 0 0 0 -10-10h4a10 10 0 0 1 10 10z"/><path d="m53.5 24.35a17.955 17.955 0 0 0 -5.77-5.09 22.018 22.018 0 0 0 -17.69-12.17c.65-.06 1.3-.09 1.96-.09q.54 0 1.08.03a21.99 21.99 0 0 1 20.42 17.32z"/><path d="m52.58 36.79a22.008 22.008 0 0 1 -9.04 10.94 1.981 1.981 0 0 0 -1.54-.73h-1.36a21.8 21.8 0 0 0 5.43-5.45 17.8 17.8 0 0 0 6.51-4.76z"/></g><path d="m25 43v4h-3a1.981 1.981 0 0 0 -1.54.73 22.012 22.012 0 0 1 -9.03-10.91c.27.31.55.62.84.91a17.983 17.983 0 0 0 12.73 5.27z" fill="#2488ff"/><path d="m15 28v8h-3.87a22.175 22.175 0 0 1 -1.13-7c0-.34.01-.67.03-1z" fill="#ff7956"/><path d="m51.417 50.021a15 15 0 0 0 7.583-13.021v-8a27.017 27.017 0 0 0 -27.5-27c-14.613.27-26.5 12.643-26.5 27.586v7.414a15 15 0 0 0 7.582 13.02 10.982 10.982 0 0 0 -10.582 10.98 1 1 0 0 0 1 1h58a1 1 0 0 0 1-1 11 11 0 0 0 -10.583-10.979zm-15.831 5.979 4 4h-15.172l4-4zm-13.586-2a1 1 0 0 1 -1-1v-4a1 1 0 0 1 1-1h20a1 1 0 0 1 1 1v4a1 1 0 0 1 -1 1zm-1.617-7.519a20.982 20.982 0 0 1 -5.634-5.493 18.825 18.825 0 0 0 9.251 2.963v2.049h-2a2.974 2.974 0 0 0 -1.617.481zm19.5-4.529a5 5 0 0 0 -4.883-3.952h-6a5.007 5.007 0 0 0 -4.887 3.957 16.905 16.905 0 0 1 -11.136-4.934l-.021-.023h2.044a1 1 0 0 0 1-1v-8a1 1 0 0 0 -1-1h-3.9a20.908 20.908 0 0 1 .324-2.211 16.636 16.636 0 0 1 1.551-1.811 16.926 16.926 0 0 1 12.025-4.978h14a17.035 17.035 0 0 1 13.575 6.79 20.851 20.851 0 0 1 .325 2.21h-3.9a1 1 0 0 0 -1 1v8a1 1 0 0 0 1 1h1.992a16.891 16.891 0 0 1 -11.107 4.952zm-9.883-1.952h4v2h-4zm-1 4h6a1 1 0 0 0 1-1v-2.816a3 3 0 0 1 2 2.816v3h-12v-3a3 3 0 0 1 2-2.816v2.816a1 1 0 0 0 1 1zm5-28h-4v-2h4zm18.127 19h-2.127v-6h3a21.158 21.158 0 0 1 -.873 6zm-13.127-19h-3v-3a1 1 0 0 0 -1-1h-6a1 1 0 0 0 -1 1v3h-3a18.882 18.882 0 0 0 -12.128 4.378 20.968 20.968 0 0 1 38.266.023 19.043 19.043 0 0 0 -12.138-4.401zm-25 13v6h-2.127a21.158 21.158 0 0 1 -.873-6zm28 17h-2v-2.054a18.9 18.9 0 0 0 9.284-3 20.985 20.985 0 0 1 -5.667 5.54 2.974 2.974 0 0 0 -1.617-.486zm-35-9v-7.414c0-13.86 11.006-25.336 24.534-25.586a25.018 25.018 0 0 1 25.466 25v8a13.008 13.008 0 0 1 -12 12.949v-.949a2.958 2.958 0 0 0 -.162-.93 23 23 0 1 0 -35.838-19.07 22.832 22.832 0 0 0 10.162 19.07 2.987 2.987 0 0 0 -.162.93v.949a13.008 13.008 0 0 1 -12-12.949zm-.363 17.637a8.945 8.945 0 0 1 6.363-2.637h6v1a3 3 0 0 0 3 3h3.586l-4 4h-17.531a8.935 8.935 0 0 1 2.582-5.363zm35.777 5.363-4-4h3.586a3 3 0 0 0 3-3v-1h6a9.013 9.013 0 0 1 8.945 8z"/><path d="m31 9h2v2h-2z"/><path d="m38 12h2v2h-2z"/><path d="m24 12h2v2h-2z"/><path d="m31 50h2v2h-2z"/><path d="m35 50h2v2h-2z"/><path d="m27 50h2v2h-2z"/><path d="m7 57h2v2h-2z"/><path d="m55 57h2v2h-2z"/><path d="m54 6h2v2h-2z"/><path d="m56 4h2v2h-2z"/><path d="m56 8h2v2h-2z"/><path d="m58 6h2v2h-2z"/><path d="m8 6h2v2h-2z"/><path d="m6 4h2v2h-2z"/><path d="m6 8h2v2h-2z"/><path d="m4 6h2v2h-2z"/><path d="m56 48h2v2h-2z"/><path d="m58 46h2v2h-2z"/><path d="m58 50h2v2h-2z"/><path d="m60 48h2v2h-2z"/><path d="m6 48h2v2h-2z"/><path d="m4 46h2v2h-2z"/><path d="m4 50h2v2h-2z"/><path d="m2 48h2v2h-2z"/></g></svg>