<svg height="512" viewBox="0 0 64 64" width="512" xmlns="http://www.w3.org/2000/svg"><g id="mars"><circle cx="32" cy="32" fill="#009698" r="29"/><path d="m61 32c0 .88-.04 1.74-.12 2.6-3.53-1.01-4.53-3.6-9.68-3.6-6.41 0-6.41 4-12.81 4s-6.4-4-12.79-4-6.4 4-12.8 4c-5.2 0-6.17-2.64-9.78-3.63a28.965 28.965 0 0 1 16.11-25.36h.01c.15-.01.3-.01.46-.01 6.39 0 6.39 4 12.79 4 6.28 0 6.4-3.86 12.47-3.99a28.794 28.794 0 0 1 9.04 6.99h-13.9a7 7 0 0 0 0 14h20.56a28.435 28.435 0 0 1 .44 5zm-37-11a6 6 0 1 0 -6 6 6 6 0 0 0 6-6z" fill="#44ffe8"/><path d="m44.86 6.01a10.684 10.684 0 0 0 -1.7.16 28.576 28.576 0 0 1 8.74 6.83h2a28.794 28.794 0 0 0 -9.04-6.99zm15.7 20.99h-2a28.435 28.435 0 0 1 .44 5c0 .61-.02 1.2-.06 1.8a9.58 9.58 0 0 0 1.94.8c.08-.86.12-1.72.12-2.6a28.435 28.435 0 0 0 -.44-5z" fill="#00eed1"/><path d="m60.56 27h-20.56a7 7 0 1 1 0-14h13.9a28.644 28.644 0 0 1 6.66 14z" fill="#ffde55"/><path d="m60.88 34.6a28.215 28.215 0 0 1 -1.64 7.36c-2.36-1.19-3.78-2.96-8.04-2.96-6.41 0-6.41 4-12.81 4s-6.4-4-12.79-4-6.4 4-12.8 4c-4.67 0-5.93-2.13-8.76-3.28a28.943 28.943 0 0 1 -1.04-7.72c0-.21 0-.42.02-.63 3.61.99 4.58 3.63 9.78 3.63 6.4 0 6.4-4 12.8-4s6.39 4 12.79 4 6.4-4 12.81-4c5.15 0 6.15 2.59 9.68 3.6z" fill="#2488ff"/><path d="m51.2 39c4.26 0 5.68 1.77 8.04 2.96a28.486 28.486 0 0 1 -3.79 7.1c-2.49-1.19-3.87-3.06-8.25-3.06-6.41 0-6.41 4-12.81 4s-6.4-4-12.79-4c-6.24 0-6.4 3.8-12.34 3.99a28.625 28.625 0 0 1 -5.22-10.27c2.83 1.15 4.09 3.28 8.76 3.28 6.4 0 6.4-4 12.8-4s6.39 4 12.79 4 6.4-4 12.81-4z" fill="#bb7fd9"/><path d="m55.45 49.06a28.949 28.949 0 0 1 -10.58 8.93h-.01c-.15.01-.31.01-.47.01-6.4 0-6.4-4-12.79-4-6.28 0-6.4 3.86-12.46 3.99a28.789 28.789 0 0 1 -9.88-8c5.94-.19 6.1-3.99 12.34-3.99 6.39 0 6.39 4 12.79 4s6.4-4 12.81-4c4.38 0 5.76 1.87 8.25 3.06z" fill="#44ffe8"/><path d="m60.88 34.6a28.215 28.215 0 0 1 -1.64 7.36 19.081 19.081 0 0 1 -1.66-.98 28.227 28.227 0 0 0 1.3-6.38c-3.3-.94-4.39-3.26-8.71-3.57.32-.02.67-.03 1.03-.03 5.15 0 6.15 2.59 9.68 3.6z" fill="#006df0"/><path d="m59.24 41.96a28.486 28.486 0 0 1 -3.79 7.1 16.138 16.138 0 0 1 -1.43-.8 28.569 28.569 0 0 0 3.22-6.3c-2.17-1.1-3.55-2.69-7.09-2.92.33-.03.68-.04 1.05-.04 4.26 0 5.68 1.77 8.04 2.96z" fill="#a25bcd"/><path d="m55.45 49.06a28.949 28.949 0 0 1 -10.58 8.93h-.01c-.15.01-.31.01-.47.01a12.133 12.133 0 0 1 -1.4-.07 28.959 28.959 0 0 0 10.46-8.87c-2.3-1.1-3.65-2.77-7.28-3.03.32-.02.67-.03 1.03-.03 4.38 0 5.76 1.87 8.25 3.06z" fill="#00eed1"/><circle cx="18" cy="21" fill="#ffde55" r="6"/><path d="m60.56 27h-2a28.644 28.644 0 0 0 -6.66-14h2a28.644 28.644 0 0 1 6.66 14z" fill="#ffcd00"/><path d="m24 21a6 6 0 0 1 -6 6 5.47 5.47 0 0 1 -1-.09 5.993 5.993 0 0 0 0-11.82 5.47 5.47 0 0 1 1-.09 6 6 0 0 1 6 6z" fill="#ffcd00"/><path d="m32 2a30 30 0 1 0 30 30 30.034 30.034 0 0 0 -30-30zm21.425 12a27.91 27.91 0 0 1 5.921 12h-19.346a6 6 0 1 1 0-12zm-12.1-8.4a14.368 14.368 0 0 0 -3.069 1.551 9.635 9.635 0 0 1 -5.866 1.849 9.625 9.625 0 0 1 -5.87-1.849 13.5 13.5 0 0 0 -3.455-1.681 27.907 27.907 0 0 1 18.26.133zm-21.919 1.4h.194a9.607 9.607 0 0 1 5.859 1.847 11.579 11.579 0 0 0 6.931 2.153 11.6 11.6 0 0 0 6.924-2.148 9.672 9.672 0 0 1 5.32-1.827 28.123 28.123 0 0 1 6.935 4.975h-11.569a8 8 0 0 0 0 16h19.71a28.076 28.076 0 0 1 .29 4c0 .4-.014.793-.03 1.186a16.506 16.506 0 0 1 -1.845-1.035 12.242 12.242 0 0 0 -13.865 0 9.638 9.638 0 0 1 -5.87 1.849 9.625 9.625 0 0 1 -5.87-1.849 11.561 11.561 0 0 0 -6.92-2.151 11.579 11.579 0 0 0 -6.93 2.152 9.629 9.629 0 0 1 -5.87 1.848 9.607 9.607 0 0 1 -5.866-1.848 14.755 14.755 0 0 0 -2.9-1.5 28.035 28.035 0 0 1 15.372-23.652zm34.73 40.153a12.246 12.246 0 0 0 -13.876 0 9.638 9.638 0 0 1 -5.87 1.847 9.625 9.625 0 0 1 -5.87-1.849 11.561 11.561 0 0 0 -6.92-2.151 11.6 11.6 0 0 0 -6.932 2.15 9.76 9.76 0 0 1 -4.931 1.8 27.928 27.928 0 0 1 -3.968-7.167c.035.022.07.041.106.064a11.576 11.576 0 0 0 6.925 2.153 11.586 11.586 0 0 0 6.93-2.152 9.629 9.629 0 0 1 5.87-1.848 9.607 9.607 0 0 1 5.859 1.847 11.579 11.579 0 0 0 6.931 2.153 11.6 11.6 0 0 0 6.929-2.15 9.647 9.647 0 0 1 5.881-1.85 9.492 9.492 0 0 1 5.87 1.852c.3.185.6.372.916.557a27.968 27.968 0 0 1 -2.854 5.347c-.332-.191-.661-.39-.996-.599zm4-7a12.239 12.239 0 0 0 -13.872 0 9.638 9.638 0 0 1 -5.874 1.847 9.625 9.625 0 0 1 -5.87-1.849 11.561 11.561 0 0 0 -6.92-2.151 11.579 11.579 0 0 0 -6.93 2.152 9.629 9.629 0 0 1 -5.87 1.848 9.625 9.625 0 0 1 -5.866-1.846 18.651 18.651 0 0 0 -2.046-1.149 27.813 27.813 0 0 1 -.867-6.2 16.536 16.536 0 0 1 1.852 1.038 11.561 11.561 0 0 0 6.927 2.157 11.586 11.586 0 0 0 6.93-2.152 9.629 9.629 0 0 1 5.87-1.848 9.607 9.607 0 0 1 5.859 1.847 11.579 11.579 0 0 0 6.931 2.153 11.6 11.6 0 0 0 6.929-2.15 10.252 10.252 0 0 1 11.745 0 15.313 15.313 0 0 0 2.736 1.434 27.763 27.763 0 0 1 -1.122 5.21c-.178-.111-.361-.221-.546-.337zm-35.464 18.247a14.42 14.42 0 0 0 3.062-1.55 9.63 9.63 0 0 1 5.866-1.85 9.607 9.607 0 0 1 5.859 1.847 13.476 13.476 0 0 0 3.469 1.685 27.913 27.913 0 0 1 -18.256-.132zm21.92-1.4c-.046 0-.091 0-.139 0a9.7 9.7 0 0 1 -5.933-1.849 11.561 11.561 0 0 0 -6.92-2.151 11.588 11.588 0 0 0 -6.926 2.15 9.646 9.646 0 0 1 -5.309 1.825 28.161 28.161 0 0 1 -8.12-6.2 12.3 12.3 0 0 0 4.483-1.927 9.645 9.645 0 0 1 5.872-1.848 9.607 9.607 0 0 1 5.859 1.847 11.579 11.579 0 0 0 6.931 2.153 11.6 11.6 0 0 0 6.929-2.15 9.647 9.647 0 0 1 5.881-1.85 9.513 9.513 0 0 1 5.875 1.852c.278.174.563.35.857.524a28.174 28.174 0 0 1 -9.34 7.624z"/><path d="m4 6h2v2h-2z"/><path d="m6 4h2v2h-2z"/><path d="m6 8h2v2h-2z"/><path d="m8 6h2v2h-2z"/><path d="m55 5h2v2h-2z"/><path d="m57 3h2v2h-2z"/><path d="m57 7h2v2h-2z"/><path d="m59 5h2v2h-2z"/><path d="m54 56h2v2h-2z"/><path d="m56 54h2v2h-2z"/><path d="m56 58h2v2h-2z"/><path d="m58 56h2v2h-2z"/><path d="m4 56h2v2h-2z"/><path d="m6 54h2v2h-2z"/><path d="m6 58h2v2h-2z"/><path d="m8 56h2v2h-2z"/><path d="m18 28a7 7 0 1 0 -7-7 7.008 7.008 0 0 0 7 7zm0-12a5 5 0 1 1 -5 5 5.006 5.006 0 0 1 5-5z"/></g></svg>