<svg height="512" viewBox="0 0 64 64" width="512" xmlns="http://www.w3.org/2000/svg"><g id="moon_rover" data-name="moon rover"><path d="m61 39v2h-58v-2a2.006 2.006 0 0 1 2-2h54a2.006 2.006 0 0 1 2 2z" fill="#c6c5ca"/><path d="m61 41-4 6h-8-4-26-4-8l-4-6z" fill="#2488ff"/><circle cx="55" cy="9" fill="#ffde55" r="6"/><path d="m47 25 11 12h-28v-12z" fill="#44ffe8"/><path d="m58 37h-2l-11-12h2z" fill="#00eed1"/><path d="m56 56a4.985 4.985 0 0 1 -5 5h-8a5 5 0 1 1 0-10h8a5 5 0 0 1 5 5z" fill="#2488ff"/><circle cx="51" cy="56" fill="#ffde55" r="2"/><path d="m49 48v3h-4v-3-1h4z" fill="#c6c5ca"/><circle cx="44" cy="19" fill="#ffde55" r="2"/><circle cx="43" cy="56" fill="#ffde55" r="2"/><path d="m37 17h-10l-2-2-2-2v-10l7 7z" fill="#ff7956"/><path d="m30 25v12h-4v-8-7h4z" fill="#ff7956"/><path d="m26 29v8h-20v-8h12 4z" fill="#2488ff"/><path d="m26 56a4.985 4.985 0 0 1 -5 5h-8a5 5 0 1 1 0-10h8a5 5 0 0 1 5 5z" fill="#2488ff"/><path d="m61 41-4 6h-2l4-6z" fill="#006df0"/><path d="m56 56a4.985 4.985 0 0 1 -5 5h-2a5 5 0 0 0 0-10h2a5 5 0 0 1 5 5z" fill="#006df0"/><path d="m24 29h2v8h-2z" fill="#006df0"/><path d="m26 56a4.985 4.985 0 0 1 -5 5h-2a5 5 0 0 0 0-10h2a5 5 0 0 1 5 5z" fill="#006df0"/><circle cx="21" cy="56" fill="#ffde55" r="2"/><path d="m19 48v3h-4v-3-1h4z" fill="#c6c5ca"/><path d="m61 39v2h-2v-2a2.006 2.006 0 0 0 -2-2h2a2.006 2.006 0 0 1 2 2z" fill="#acabb1"/><path d="m47 47h2v4h-2z" fill="#acabb1"/><path d="m28 22h2v15h-2z" fill="#ff6243"/><path d="m17 47h2v4h-2z" fill="#acabb1"/><path d="m17 10v10l-2 2-2 2h-10l7-7z" fill="#ff7956"/><path d="m37 17h-2l-12-12v-2z" fill="#ff6243"/><path d="m17 10v10l-4 4h-2l4-4v-8z" fill="#ff6243"/><circle cx="13" cy="56" fill="#ffde55" r="2"/><g fill="#ffcd00"><path d="m61 9a6 6 0 0 1 -6 6 5.47 5.47 0 0 1 -1-.09 5.993 5.993 0 0 0 0-11.82 5.47 5.47 0 0 1 1-.09 6 6 0 0 1 6 6z"/><path d="m53 56a2 2 0 0 1 -3 1.73 2 2 0 0 0 0-3.46 2 2 0 0 1 3 1.73z"/><path d="m45 56a2 2 0 0 1 -3 1.73 2 2 0 0 0 0-3.46 2 2 0 0 1 3 1.73z"/><path d="m23 56a2 2 0 0 1 -3 1.73 2 2 0 0 0 0-3.46 2 2 0 0 1 3 1.73z"/><path d="m15 56a2 2 0 0 1 -3 1.73 2 2 0 0 0 0-3.46 2 2 0 0 1 3 1.73z"/></g><path d="m59 36h-.56l-10.7-11.676a1 1 0 0 0 -.74-.324h-16v-2a1 1 0 0 0 -1-1h-4a1 1 0 0 0 -1 1v6h-2v-9.586l2-2 1.293 1.293a1 1 0 0 0 .707.293h10a1 1 0 0 0 .707-1.707l-6.293-6.293 2-2h1.586v-2h-2a1 1 0 0 0 -.707.293l-2.293 2.293-6.293-6.293a1 1 0 0 0 -1.707.707v10a1 1 0 0 0 .293.707l1.293 1.293-2.293 2.293a1 1 0 0 0 -.293.707v10h-2v-3a1 1 0 0 0 -.293-.707l-2.293-2.293 1.293-1.293a1 1 0 0 0 .293-.707v-10a1 1 0 0 0 -1.707-.707l-6.293 6.293-2.293-2.293a1 1 0 0 0 -.707-.293h-2v2h1.586l2 2-6.293 6.293a1 1 0 0 0 .707 1.707h10a1 1 0 0 0 .707-.293l1.293-1.293 2 2v2.586h-11a1 1 0 0 0 -1 1v7a3 3 0 0 0 -3 3v2a.976.976 0 0 0 .183.545l-.015.01 4 6a1 1 0 0 0 .832.445h7v2h-1a6 6 0 0 0 0 12h8a6 6 0 0 0 0-12h-1v-2h24v2h-1a6 6 0 0 0 0 12h8a6 6 0 0 0 0-12h-1v-2h7a1 1 0 0 0 .832-.445l4-6-.015-.01a.976.976 0 0 0 .183-.545v-2a3 3 0 0 0 -3-3zm-35-30.586 10.586 10.586h-7.172l-3.414-3.414zm-11.414 17.586h-7.172l10.586-10.586v7.172zm33.975 3 9.166 10h-24.727v-10zm-19.561-3h2v13h-2zm-20 7h18v6h-18zm-3 9a1 1 0 0 1 1-1h54a1 1 0 0 1 1 1v1h-56zm21 17a4 4 0 0 1 -4 4h-8a4 4 0 0 1 0-8h8a4 4 0 0 1 4 4zm-7-6h-2v-2h2zm37 6a4 4 0 0 1 -4 4h-8a4 4 0 0 1 0-8h8a4 4 0 0 1 4 4zm-7-6h-2v-2h2zm8.465-4h-48.93l-2.667-4h54.264z"/><path d="m54 20h2v2h-2z"/><path d="m56 18h2v2h-2z"/><path d="m56 22h2v2h-2z"/><path d="m58 20h2v2h-2z"/><path d="m5 4h2v2h-2z"/><path d="m7 2h2v2h-2z"/><path d="m7 6h2v2h-2z"/><path d="m9 4h2v2h-2z"/><path d="m29 52h2v2h-2z"/><path d="m31 50h2v2h-2z"/><path d="m31 54h2v2h-2z"/><path d="m33 52h2v2h-2z"/><path d="m41 19a3 3 0 1 0 3-3 3 3 0 0 0 -3 3zm4 0a1 1 0 1 1 -1-1 1 1 0 0 1 1 1z"/><path d="m39 4h2v2h-2z"/><path d="m41 2h2v2h-2z"/><path d="m41 6h2v2h-2z"/><path d="m43 4h2v2h-2z"/><path d="m55 16a7 7 0 1 1 7-7 7.009 7.009 0 0 1 -7 7zm0-12a5 5 0 1 0 5 5 5.006 5.006 0 0 0 -5-5z"/><path d="m10 56a3 3 0 1 0 3-3 3 3 0 0 0 -3 3zm4 0a1 1 0 1 1 -1-1 1 1 0 0 1 1 1z"/><path d="m21 59a3 3 0 1 0 -3-3 3 3 0 0 0 3 3zm0-4a1 1 0 1 1 -1 1 1 1 0 0 1 1-1z"/><path d="m40 56a3 3 0 1 0 3-3 3 3 0 0 0 -3 3zm4 0a1 1 0 1 1 -1-1 1 1 0 0 1 1 1z"/><path d="m51 59a3 3 0 1 0 -3-3 3 3 0 0 0 3 3zm0-4a1 1 0 1 1 -1 1 1 1 0 0 1 1-1z"/></g></svg>