<svg height="512" viewBox="0 0 64 64" width="512" xmlns="http://www.w3.org/2000/svg"><g id="moon"><g fill="#ffde55"><path d="m45 6a28.333 28.333 0 0 1 16 26 29 29 0 0 1 -29 29 28.284 28.284 0 0 1 -28-23 24.924 24.924 0 0 0 21 11 26 26 0 0 0 26-26 25.084 25.084 0 0 0 -6-17z"/><path d="m39 22-4 2-2 6-2-6-4-2 4-2 2-6 2 6z"/><circle cx="36" cy="9" r="2"/><circle cx="34" cy="39" r="2"/><path d="m27 35-4 2-2 6-2-6-4-2 4-2 2-6 2 6z"/></g><path d="m61 32a29 29 0 0 1 -29 29c-.36 0-.72-.01-1.08-.02a28.984 28.984 0 0 0 28.08-28.98 28.466 28.466 0 0 0 -12.38-23.92 21.156 21.156 0 0 0 -1.62-2.08 28.333 28.333 0 0 1 16 26z" fill="#ffcd00"/><path d="m39 22-4 2-2 6-1-3 1-3 4-2-4-2-1-3 1-3 2 6z" fill="#ffcd00"/><path d="m27 35-4 2-2 6-1-3 1-3 4-2-4-2-1-3 1-3 2 6z" fill="#ffcd00"/><circle cx="5" cy="20" fill="#ffde55" r="2"/><path d="m56 4h2v2h-2z"/><path d="m58 2h2v2h-2z"/><path d="m58 6h2v2h-2z"/><path d="m60 4h2v2h-2z"/><path d="m2 58h2v2h-2z"/><path d="m4 56h2v2h-2z"/><path d="m4 60h2v2h-2z"/><path d="m6 58h2v2h-2z"/><path d="m19 12h2v2h-2z"/><path d="m21 10h2v2h-2z"/><path d="m21 14h2v2h-2z"/><path d="m23 12h2v2h-2z"/><path d="m5 23a3 3 0 1 0 -3-3 3 3 0 0 0 3 3zm0-4a1 1 0 1 1 -1 1 1 1 0 0 1 1-1z"/><path d="m39 29h2v2h-2z"/><path d="m41 27h2v2h-2z"/><path d="m41 31h2v2h-2z"/><path d="m43 29h2v2h-2z"/><path d="m26.553 22.9 3.629 1.814 1.869 5.607a1 1 0 0 0 1.9 0l1.869-5.607 3.627-1.814a1 1 0 0 0 0-1.79l-3.629-1.814-1.869-5.607a1 1 0 0 0 -1.9 0l-1.869 5.607-3.629 1.814a1 1 0 0 0 0 1.79zm4.894-2a1 1 0 0 0 .5-.579l1.053-3.159 1.051 3.154a1 1 0 0 0 .5.579l2.213 1.105-2.211 1.105a1 1 0 0 0 -.5.579l-1.053 3.154-1.051-3.154a1 1 0 0 0 -.5-.579l-2.213-1.105z"/><path d="m14 35a1 1 0 0 0 .553.9l3.629 1.814 1.869 5.607a1 1 0 0 0 1.9 0l1.869-5.607 3.627-1.814a1 1 0 0 0 0-1.79l-3.629-1.814-1.869-5.607a1 1 0 0 0 -1.9 0l-1.869 5.607-3.627 1.804a1 1 0 0 0 -.553.9zm5.447-1.1a1 1 0 0 0 .5-.579l1.053-3.159 1.051 3.154a1 1 0 0 0 .5.579l2.213 1.105-2.211 1.1a1 1 0 0 0 -.5.579l-1.053 3.159-1.051-3.154a1 1 0 0 0 -.5-.579l-2.213-1.105z"/><path d="m11 24h2v2h-2z"/><path d="m13 22h2v2h-2z"/><path d="m13 26h2v2h-2z"/><path d="m15 24h2v2h-2z"/><path d="m54 56h2v2h-2z"/><path d="m56 54h2v2h-2z"/><path d="m56 58h2v2h-2z"/><path d="m58 56h2v2h-2z"/><path d="m31 39a3 3 0 1 0 3-3 3 3 0 0 0 -3 3zm4 0a1 1 0 1 1 -1-1 1 1 0 0 1 1 1z"/><path d="m36 12a3 3 0 1 0 -3-3 3 3 0 0 0 3 3zm0-4a1 1 0 1 1 -1 1 1 1 0 0 1 1-1z"/><path d="m45.432 5.1a1 1 0 0 0 -1.182 1.561c3.815 4.339 5.75 9.839 5.75 16.339a25.028 25.028 0 0 1 -25 25 23.832 23.832 0 0 1 -20.176-10.567 1 1 0 0 0 -1.8.763 29.288 29.288 0 0 0 28.976 23.804 30.034 30.034 0 0 0 30-30 29.427 29.427 0 0 0 -16.568-26.9zm-13.432 54.9a27.249 27.249 0 0 1 -25.72-17.662 25.726 25.726 0 0 0 18.72 7.662 27.03 27.03 0 0 0 27-27 27.44 27.44 0 0 0 -3.459-13.758 27.644 27.644 0 0 1 11.459 22.758 28.032 28.032 0 0 1 -28 28z"/></g></svg>