<svg height="512" viewBox="0 0 64 64" width="512" xmlns="http://www.w3.org/2000/svg"><g id="observatory"><path d="m59 33h2v-4h-2a25.893 25.893 0 0 0 -10.09-20.55 24.846 24.846 0 0 0 -3.67-2.39 25.852 25.852 0 0 0 -12.24-3.06h-2a25.852 25.852 0 0 0 -12.24 3.06 24.846 24.846 0 0 0 -3.67 2.39 25.893 25.893 0 0 0 -10.09 20.55h-2v4h2v20h-2v8h58v-8h-2z" fill="#2488ff"/><g fill="#006df0"><path d="m59 29h-2a25.893 25.893 0 0 0 -10.09-20.55 24.846 24.846 0 0 0 -3.67-2.39 25.852 25.852 0 0 0 -12.24-3.06h2a25.852 25.852 0 0 1 12.24 3.06 24.846 24.846 0 0 1 3.67 2.39 25.893 25.893 0 0 1 10.09 20.55z"/><path d="m57 33h2v20h-2z"/><path d="m59 29h2v4h-2z"/><path d="m59 53h2v8h-2z"/></g><path d="m61 57v4h-22v-4h3z" fill="#c0ab91"/><path d="m61 53v4h-19-3v-4h20z" fill="#b39a7c"/><path d="m61 29v4h-2-54-2v-4h2 21.96 5.04 5.04 21.96z" fill="#c0ab91"/><path d="m5 33h54v4h-54z" fill="#00b6bd"/><path d="m59 57h2v4h-2z" fill="#b39a7c"/><path d="m59 53h2v4h-2z" fill="#a78966"/><path d="m59 29h2v4h-2z" fill="#b39a7c"/><path d="m57 33h2v4h-2z" fill="#009698"/><path d="m48.91 8.45-11.87 20.55h-5.04l3.24-5.61 5.65-9.8 4.35-7.53a24.846 24.846 0 0 1 3.67 2.39z" fill="#c0ab91"/><path d="m40.89 13.59-5.65 9.8a8.91 8.91 0 0 1 -6.48 0l-5.65-9.79v-.01a9 9 0 0 1 17.78 0zm-5.89 1.41a3 3 0 1 0 -3 3 3 3 0 0 0 3-3z" fill="#44ffe8"/><path d="m40.89 13.59-5.65 9.8a8.91 8.91 0 0 1 -6.48 0l-5.65-9.79v-.01a9 9 0 0 1 17.78 0z" fill="#44ffe8"/><path d="m40.89 13.59-5.65 9.8a8.724 8.724 0 0 1 -3.24.61 8.262 8.262 0 0 1 -1-.06 8.353 8.353 0 0 0 2.24-.55l5.65-9.8a9 9 0 0 0 -7.89-7.53 8.262 8.262 0 0 1 1-.06 9.006 9.006 0 0 1 8.89 7.59z" fill="#00eed1"/><path d="m39 57v4h-14v-13a7 7 0 1 1 14 0z" fill="#00b6bd"/><path d="m39 48v13h-2v-13a6.958 6.958 0 0 0 -2.05-4.95 6.874 6.874 0 0 0 -3.95-1.97 5.474 5.474 0 0 1 1-.08 7 7 0 0 1 7 7z" fill="#009698"/><path d="m35.24 23.39-3.24 5.61-3.24-5.61a8.91 8.91 0 0 0 6.48 0z" fill="#00b6bd"/><circle cx="32" cy="15" fill="#ffde55" r="3"/><path d="m35 15a3 3 0 0 1 -3 3 2.772 2.772 0 0 1 -1-.18 2.988 2.988 0 0 0 0-5.64 2.772 2.772 0 0 1 1-.18 3 3 0 0 1 3 3z" fill="#ffcd00"/><path d="m33 3h-2a25.852 25.852 0 0 0 -12.24 3.06l4.35 7.53a9 9 0 0 1 17.78 0l4.35-7.53a25.852 25.852 0 0 0 -12.24-3.06z" fill="#00b6bd"/><path d="m45.24 6.06-4.35 7.53a9.245 9.245 0 0 0 -.68-2.28l3.03-5.25a25.852 25.852 0 0 0 -12.24-3.06h2a25.852 25.852 0 0 1 12.24 3.06z" fill="#009698"/><path d="m28.76 23.39 3.24 5.61h-5.04l-11.87-20.55a24.846 24.846 0 0 1 3.67-2.39l4.35 7.53v.01z" fill="#c0ab91"/><path d="m25 57v4h-22v-4h19z" fill="#c0ab91"/><path d="m25 53v4h-3-19v-4h2z" fill="#b39a7c"/><path d="m61 34a1 1 0 0 0 1-1v-4a1 1 0 0 0 -1-1h-1.025a27.029 27.029 0 0 0 -26.975-26h-2a27.029 27.029 0 0 0 -26.975 26h-1.025a1 1 0 0 0 -1 1v4a1 1 0 0 0 1 1h1v18h-1a1 1 0 0 0 -1 1v8a1 1 0 0 0 1 1h58a1 1 0 0 0 1-1v-8a1 1 0 0 0 -1-1h-1v-18zm-3.025-6h-19.2l10.412-18.03a24.955 24.955 0 0 1 8.788 18.03zm-30.438 0-11.137-19.277q.962-.695 1.99-1.3l11.878 20.577zm7.021-5.433a7.973 7.973 0 0 1 -5.116 0l-5.278-9.145a7.992 7.992 0 0 1 15.672 0zm-1.358 2.354-1.2 2.079-1.2-2.078a9.153 9.153 0 0 0 2.4 0zm12.407-17.5q1.028.6 1.99 1.3l-11.134 19.279h-2.731zm-12.607-3.421a24.852 24.852 0 0 1 10.845 2.477l-2.651 4.592a10 10 0 0 0 -18.388 0l-2.651-4.592a24.852 24.852 0 0 1 10.845-2.477zm-18.187 5.97 10.414 18.03h-19.202a24.955 24.955 0 0 1 8.788-18.03zm-10.813 20.03h56v2h-56zm0 28h18v-2h-18v-2h20v6h-20zm34 2h-12v-12a6 6 0 0 1 12 0zm2 0v-6h20v2h-18v2h18v2zm0-8v-4a8 8 0 0 0 -16 0v4h-18v-14h52v14zm18-16h-52v-2h52z"/><path d="m32 11a4 4 0 1 0 4 4 4 4 0 0 0 -4-4zm0 6a2 2 0 1 1 2-2 2 2 0 0 1 -2 2z"/><path d="m8 40h8v2h-8z"/><path d="m8 44h8v2h-8z"/><path d="m8 48h8v2h-8z"/><path d="m48 40h8v2h-8z"/><path d="m48 44h8v2h-8z"/><path d="m48 48h8v2h-8z"/></g></svg>