<svg height="512" viewBox="0 0 64 64" width="512" xmlns="http://www.w3.org/2000/svg"><g id="planets"><circle cx="32" cy="32" fill="#00b6bd" r="22"/><path d="m54 32a22 22 0 0 1 -22 22c-.34 0-.67-.01-1-.03a21.992 21.992 0 0 0 0-43.94c.33-.02.66-.03 1-.03a22 22 0 0 1 22 22z" fill="#009698"/><circle cx="58" cy="56" fill="#ffde55" r="2"/><path d="m47.73 47.38a21.988 21.988 0 0 1 -23.86 5.06l3.25-2.71a1.991 1.991 0 0 0 .69-1.86l-.71-4.28a1.949 1.949 0 0 1 .14-1.14l3.01-6.76a2 2 0 0 0 -.87-2.57l-7.17-3.92a2 2 0 0 1 -.54-3.08l4.91-5.52a2 2 0 0 0 -.27-2.91l-5.76-4.48a21.764 21.764 0 0 1 10.96-3.2l3.8 5.07a1.964 1.964 0 0 1 .23 1.98l-2.04 4.78a1.987 1.987 0 0 0 .33 2.11l5.42 6.19a2.024 2.024 0 0 1 .39 1.95l-2.16 6.48a1.988 1.988 0 0 0 .76 2.28z" fill="#2488ff"/><path d="m47.73 47.38a21.952 21.952 0 0 1 -15.73 6.62q-.48 0-.96-.03a21.888 21.888 0 0 0 14.69-6.59l-9.49-6.53a1.988 1.988 0 0 1 -.76-2.28l2.16-6.48a2.024 2.024 0 0 0 -.39-1.95l-5.42-6.19a1.987 1.987 0 0 1 -.33-2.11l2.04-4.78a1.964 1.964 0 0 0 -.23-1.98l-3.71-4.94a17.172 17.172 0 0 1 1.91-.13l3.8 5.07a1.964 1.964 0 0 1 .23 1.98l-2.04 4.78a1.987 1.987 0 0 0 .33 2.11l5.42 6.19a2.024 2.024 0 0 1 .39 1.95l-2.16 6.48a1.988 1.988 0 0 0 .76 2.28z" fill="#006df0"/><g fill="#ffde55"><circle cx="41" cy="5" r="2"/><circle cx="7" cy="20" r="2"/><circle cx="5" cy="59" r="2"/><circle cx="55" cy="9" r="6"/></g><path d="m61 9a6 6 0 0 1 -6 6 5.47 5.47 0 0 1 -1-.09 5.993 5.993 0 0 0 0-11.82 5.47 5.47 0 0 1 1-.09 6 6 0 0 1 6 6z" fill="#ffd422"/><path d="m60.73 10.77a5.99 5.99 0 0 1 -3.96 3.96 3 3 0 1 1 3.96-3.96z" fill="#ff7956"/><path d="m32 9a23 23 0 1 0 23 23 23.026 23.026 0 0 0 -23-23zm21 23a20.894 20.894 0 0 1 -5.438 14.051l-8.755-6.023a1 1 0 0 1 -.383-1.139l2.162-6.489a3.009 3.009 0 0 0 -.586-2.921l-5.416-6.19a1 1 0 0 1 -.167-1.052l2.049-4.781a3.005 3.005 0 0 0 -.358-2.98l-2.545-3.4a21.013 21.013 0 0 1 19.437 20.924zm-42 0a20.989 20.989 0 0 1 9.509-17.556l5.191 4.035a1 1 0 0 1 .134 1.453l-4.91 5.524a3 3 0 0 0 .8 4.627l7.176 3.912a1.006 1.006 0 0 1 .435 1.284l-3.005 6.766a3 3 0 0 0 -.218 1.712l.713 4.275a1.008 1.008 0 0 1 -.346.934l-2.779 2.316a21.027 21.027 0 0 1 -12.7-19.282zm14.863 20.08 1.895-1.58a3.011 3.011 0 0 0 1.04-2.8l-.713-4.276a1 1 0 0 1 .073-.571l3.007-6.766a3.016 3.016 0 0 0 -1.306-3.852l-7.172-3.912a1 1 0 0 1 -.269-1.542l4.911-5.524a3 3 0 0 0 -.4-4.362l-4.556-3.54a20.835 20.835 0 0 1 8.668-2.31l3.467 4.626a1 1 0 0 1 .12.993l-2.049 4.78a3.014 3.014 0 0 0 .5 3.158l5.417 6.19a1 1 0 0 1 .2.975l-2.163 6.486a3.014 3.014 0 0 0 1.148 3.419l8.454 5.815a20.887 20.887 0 0 1 -20.272 4.593z"/><path d="m5 56a3 3 0 1 0 3 3 3 3 0 0 0 -3-3zm0 4a1 1 0 1 1 1-1 1 1 0 0 1 -1 1z"/><path d="m58 53a3 3 0 1 0 3 3 3 3 0 0 0 -3-3zm0 4a1 1 0 1 1 1-1 1 1 0 0 1 -1 1z"/><path d="m56 40h2v2h-2z"/><path d="m58 38h2v2h-2z"/><path d="m58 42h2v2h-2z"/><path d="m60 40h2v2h-2z"/><path d="m54 20h2v2h-2z"/><path d="m56 18h2v2h-2z"/><path d="m56 22h2v2h-2z"/><path d="m58 20h2v2h-2z"/><path d="m3 40h2v2h-2z"/><path d="m5 38h2v2h-2z"/><path d="m5 42h2v2h-2z"/><path d="m7 40h2v2h-2z"/><path d="m13 56h2v2h-2z"/><path d="m15 54h2v2h-2z"/><path d="m15 58h2v2h-2z"/><path d="m17 56h2v2h-2z"/><path d="m14 6h2v2h-2z"/><path d="m16 4h2v2h-2z"/><path d="m16 8h2v2h-2z"/><path d="m18 6h2v2h-2z"/><path d="m41 58h2v2h-2z"/><path d="m43 56h2v2h-2z"/><path d="m43 60h2v2h-2z"/><path d="m45 58h2v2h-2z"/><path d="m7 23a3 3 0 1 0 -3-3 3 3 0 0 0 3 3zm0-4a1 1 0 1 1 -1 1 1 1 0 0 1 1-1z"/><path d="m41 8a3 3 0 1 0 -3-3 3 3 0 0 0 3 3zm0-4a1 1 0 1 1 -1 1 1 1 0 0 1 1-1z"/><path d="m55 2a7 7 0 1 0 7 7 7.008 7.008 0 0 0 -7-7zm-5 7a4.994 4.994 0 0 1 9.911-.882 3.963 3.963 0 0 0 -.911-.118 4.006 4.006 0 0 0 -3.5 5.949 4.923 4.923 0 0 1 -.5.051 5.006 5.006 0 0 1 -5-5zm7.491 4.309a2 2 0 0 1 1.509-3.309 1.933 1.933 0 0 1 .84.193 4.99 4.99 0 0 1 -2.349 3.116z"/></g></svg>