<svg height="512" viewBox="0 0 64 64" width="512" xmlns="http://www.w3.org/2000/svg"><g id="rocket"><path d="m61 37v-4l-4-4-20-20v-1.18a2.006 2.006 0 0 0 -.59-1.42l-3-2.99a1.992 1.992 0 0 0 -2.82 0l-3 2.99a2.006 2.006 0 0 0 -.59 1.42v1.18l-20 20-4 4v4h12l-8 8-4 4v4h14l-1 4h8l-1-4h7l-1 4h6l-1-4h7l-1 4h8l-1-4h14v-4l-4-4-8-8z" fill="#2488ff"/><path d="m61 49v4h-4v-8z" fill="#ff7956"/><path d="m61 33v4h-4v-8z" fill="#ff7956"/><path d="m57 45v8h-2v-8l-18-18v-2z" fill="#006df0"/><path d="m57 29v8h-2v-8l-18-18v-2z" fill="#006df0"/><path d="m49 44h-12v-5h7z" fill="#ff7956"/><path d="m49 31a3.988 3.988 0 0 1 -2.36 3.64l-5.28-5.28a3.995 3.995 0 0 1 7.64 1.64z" fill="#ffde55"/><path d="m47 53 1 4h-8l1-4z" fill="#ffde55"/><path d="m43 22h-6v-4h3z" fill="#ff7956"/><g fill="#ff6243"><path d="m61 49v4h-2v-4l-2-2v-2z"/><path d="m61 33v4h-2v-4l-2-2v-2z"/><path d="m49 44h-2l-5-5h2z"/><path d="m43 22h-2l-3-4h2z"/></g><path d="m41 50v3h-7v-3h-4v3h-7v-3l4-4v-38.18a2.006 2.006 0 0 1 .59-1.42l3-2.99a1.992 1.992 0 0 1 2.82 0l3 2.99a2.006 2.006 0 0 1 .59 1.42v38.18z" fill="#ff7956"/><path d="m41 50v3h-2v-3l-4-4v-38.18a2.006 2.006 0 0 0 -.59-1.42l-3-2.99a1.7 1.7 0 0 0 -.41-.31 1.988 1.988 0 0 1 2.41.31l3 2.99a2.006 2.006 0 0 1 .59 1.42v38.18z" fill="#ff6243"/><path d="m35 57h-6l1-4v-3h4v3z" fill="#ff7956"/><path d="m34 10v36h-4v-36a2.006 2.006 0 0 1 2-2 2.015 2.015 0 0 1 2 2z" fill="#44ffe8"/><path d="m34 10v36h-2v-36a1.955 1.955 0 0 0 -.59-1.41 1.813 1.813 0 0 0 -.41-.32 2 2 0 0 1 1-.27 2.015 2.015 0 0 1 2 2z" fill="#00eed1"/><path d="m27 25v14h-2v-12z" fill="#006df0"/><path d="m25 44h2v2l-4 4v3h-2v-3l4-4z" fill="#006df0"/><path d="m27 39v5h-12l5-5z" fill="#ff7956"/><path d="m27 9v9h-2v-7z" fill="#006df0"/><path d="m25 22h2v3l-4.36 4.36a3.786 3.786 0 0 0 -.82-1.18l3.18-3.18z" fill="#006df0"/><path d="m27 18v4h-6l4-4z" fill="#ff7956"/><path d="m25 39h2v5h-2z" fill="#ff6243"/><path d="m25 18h2v4h-2z" fill="#ff6243"/><path d="m23 53 1 4h-8l1-4z" fill="#ffde55"/><path d="m48 57h-2l-1-4h2z" fill="#ffcd00"/><path d="m35 57h-2l-1-4v-3h2v3z" fill="#ff6243"/><path d="m24 57h-2l-1-4h2z" fill="#ffcd00"/><path d="m22.64 29.36-5.28 5.28a3.995 3.995 0 1 1 5.28-5.28z" fill="#ffde55"/><path d="m7 45v8h-4v-4z" fill="#ff7956"/><path d="m7 29v8h-4v-4z" fill="#ff7956"/><path d="m19 60h2v2h-2z"/><path d="m22 60h2v2h-2z"/><path d="m16 60h2v2h-2z"/><path d="m43 60h2v2h-2z"/><path d="m40 60h2v2h-2z"/><path d="m46 60h2v2h-2z"/><path d="m29 60h2v2h-2z"/><path d="m33 60h2v2h-2z"/><path d="m35 46v-36a3 3 0 0 0 -6 0v36a1 1 0 0 0 1 1h4a1 1 0 0 0 1-1zm-2-1h-2v-35a1 1 0 0 1 2 0z"/><path d="m62 37v-4a1 1 0 0 0 -.293-.707l-23.707-23.707v-.767a2.98 2.98 0 0 0 -.881-2.119l-3-2.994a3 3 0 0 0 -4.238 0l-3 2.994a2.98 2.98 0 0 0 -.881 2.119v.767l-23.707 23.707a1 1 0 0 0 -.293.707v4a1 1 0 0 0 1 1h9.586l-10.293 10.293a1 1 0 0 0 -.293.707v4a1 1 0 0 0 1 1h12.719l-.689 2.758a1 1 0 0 0 .97 1.242h8a1 1 0 0 0 .97-1.242l-.689-2.758h4.438l-.689 2.758a1 1 0 0 0 .97 1.242h6a1 1 0 0 0 .97-1.242l-.689-2.758h4.438l-.689 2.758a1 1 0 0 0 .97 1.242h8a1 1 0 0 0 .97-1.242l-.689-2.758h12.719a1 1 0 0 0 1-1v-4a1 1 0 0 0 -.293-.707l-10.293-10.293h9.586a1 1 0 0 0 1-1zm-24 3h5.586l3 3h-8.586zm0-21h1.5l1.5 2h-3zm-12 24h-8.586l3-3h5.586zm0-22h-2.586l2-2h.586zm-22 12.414 2-2v4.586h-2zm4 2.586v-6.586l18-18v5.586h-1a1 1 0 0 0 -.707.293l-4 4a1 1 0 0 0 .707 1.707h5v1.586l-3.189 3.189a4.993 4.993 0 1 0 -7.036 7.036l-1.189 1.189zm9.2-2.615a2.99 2.99 0 1 1 4.185-4.185zm-13.2 16.029 2-2v4.586h-2zm4 2.586v-6.586l18-18v10.586h-6a1 1 0 0 0 -.707.293l-5 5a1 1 0 0 0 .707 1.707h11v.586l-3.707 3.707a1 1 0 0 0 -.293.707v2zm9.281 4 .5-2h4.438l.5 2zm11.719-6v2h-5v-1.586l3.707-3.707a1 1 0 0 0 .293-.707v-38.181a.99.99 0 0 1 .294-.707l3-2.994a1 1 0 0 1 1.412 0l3 2.994a.993.993 0 0 1 .294.707v38.181a1 1 0 0 0 .293.707l3.707 3.707v1.586h-5v-2a1 1 0 0 0 -1-1h-4a1 1 0 0 0 -1 1zm1.281 6 .689-2.758a.984.984 0 0 0 .03-.242v-2h2v2a.984.984 0 0 0 .03.242l.689 2.758zm11 0 .5-2h4.438l.5 2zm.719-4v-2a1 1 0 0 0 -.293-.707l-3.707-3.707v-.586h11a1 1 0 0 0 .707-1.707l-5-5a1 1 0 0 0 -.707-.293h-6v-10.586l18 18v6.586zm4.8-18.615-4.185-4.185a2.99 2.99 0 1 1 4.185 4.185zm13.2 18.615h-2v-4.586l2 2zm-11.775-17.189a4.993 4.993 0 1 0 -7.036-7.036l-3.189-3.189v-1.586h5a1 1 0 0 0 .8-1.6l-3-4a1 1 0 0 0 -.8-.4h-2v-5.586l18 18v6.586h-6.586zm11.775 1.189h-2v-4.586l2 2z"/></g></svg>