<svg height="512" viewBox="0 0 64 64" width="512" xmlns="http://www.w3.org/2000/svg"><g id="satellite_dish" data-name="satellite dish"><path d="m61 41v6h-5-48-5v-6h15 8 12 8z" fill="#00b6bd"/><path d="m59 41h2v6h-2z" fill="#009698"/><path d="m56 47v12a2.006 2.006 0 0 1 -2 2h-44a2.006 2.006 0 0 1 -2-2v-12z" fill="#2488ff"/><path d="m56 47v12a2.006 2.006 0 0 1 -2 2h-2a2.006 2.006 0 0 0 2-2v-12z" fill="#006df0"/><path d="m40 51h12v6h-12z" fill="#44ffe8"/><path d="m46 41h-28l8.68-8.68h10.64z" fill="#2488ff"/><path d="m46 41h-2l-8.68-8.68h2z" fill="#006df0"/><path d="m48 19c0 6.97-4.46 11.66-10.68 13.32a2.172 2.172 0 0 1 -.24.07 21.458 21.458 0 0 1 -10.16 0 2.172 2.172 0 0 1 -.24-.07c-6.22-1.66-10.68-6.35-10.68-13.32a16 16 0 0 1 32 0z" fill="#ff7956"/><path d="m48 19c0 6.97-4.46 11.66-10.68 13.32a2.172 2.172 0 0 1 -.24.07 20.856 20.856 0 0 1 -5.08.61c-.34 0-.67-.01-1-.03a20.578 20.578 0 0 0 4.08-.58 2.172 2.172 0 0 0 .24-.07c6.22-1.66 10.68-6.35 10.68-13.32a16 16 0 0 0 -15-15.97c.33-.02.66-.03 1-.03a16 16 0 0 1 16 16z" fill="#ff6243"/><path d="m44 19c0 5.74-3.91 8.6-8.26 9.59a17.263 17.263 0 0 1 -7.48 0c-4.35-.99-8.26-3.85-8.26-9.59a12 12 0 0 1 24 0z" fill="#ffde55"/><path d="m44 19c0 5.74-3.91 8.6-8.26 9.59a17.071 17.071 0 0 1 -3.74.41c-.33 0-.66-.01-1-.03a17.2 17.2 0 0 0 2.74-.38c4.35-.99 8.26-3.85 8.26-9.59a12.018 12.018 0 0 0 -11-11.96c.33-.03.66-.04 1-.04a12.01 12.01 0 0 1 12 12z" fill="#ffcd00"/><path d="m36 37 2 4h-12l2-4z" fill="#ffde55"/><path d="m38 41h-2l-2-4h2z" fill="#ffcd00"/><path d="m32 15a3 3 0 0 1 1 5.82 2.868 2.868 0 0 1 -2 0 3 3 0 0 1 1-5.82z" fill="#ff7956"/><path d="m35 18a2.968 2.968 0 0 1 -2 2.82 2.772 2.772 0 0 1 -1 .18 2.592 2.592 0 0 1 -.48-.04 4.344 4.344 0 0 0 .48-.14 2.989 2.989 0 0 0 -.5-5.77 2.071 2.071 0 0 1 .5-.05 3 3 0 0 1 3 3z" fill="#ff6243"/><path d="m12 51h12v6h-12z" fill="#44ffe8"/><path d="m50 51h2v6h-2z" fill="#00eed1"/><path d="m22 51h2v6h-2z" fill="#00eed1"/><path d="m9 6h2v2h-2z"/><path d="m11 4h2v2h-2z"/><path d="m11 8h2v2h-2z"/><path d="m13 6h2v2h-2z"/><path d="m2 19h2v2h-2z"/><path d="m4 17h2v2h-2z"/><path d="m4 21h2v2h-2z"/><path d="m6 19h2v2h-2z"/><path d="m9 31h2v2h-2z"/><path d="m11 29h2v2h-2z"/><path d="m11 33h2v2h-2z"/><path d="m13 31h2v2h-2z"/><path d="m53 6h2v2h-2z"/><path d="m51 4h2v2h-2z"/><path d="m51 8h2v2h-2z"/><path d="m49 6h2v2h-2z"/><path d="m60 19h2v2h-2z"/><path d="m58 17h2v2h-2z"/><path d="m58 21h2v2h-2z"/><path d="m56 19h2v2h-2z"/><path d="m53 31h2v2h-2z"/><path d="m51 29h2v2h-2z"/><path d="m51 33h2v2h-2z"/><path d="m49 31h2v2h-2z"/><path d="m61 40h-14.586l-7.225-7.225a14.3 14.3 0 0 0 9.811-13.775 17 17 0 0 0 -34 0 14.293 14.293 0 0 0 9.811 13.774l-7.225 7.226h-14.586a1 1 0 0 0 -1 1v6a1 1 0 0 0 1 1h4v11a3 3 0 0 0 3 3h44a3 3 0 0 0 3-3v-11h4a1 1 0 0 0 1-1v-6a1 1 0 0 0 -1-1zm-31-22a2 2 0 1 1 2 2 2 2 0 0 1 -2-2zm2-4a4 4 0 0 0 -2.235 7.316l-2.138 6.061c-3.587-1.071-6.627-3.621-6.627-8.377a11 11 0 0 1 22 0c0 4.756-3.04 7.306-6.627 8.377l-2.138-6.061a4 4 0 0 0 -2.235-7.316zm-.343 7.965c.115.01.225.035.343.035s.228-.025.343-.035l2.063 5.849a15.654 15.654 0 0 1 -4.812 0zm.343 8.035a18.406 18.406 0 0 0 3.083-.266l.672 1.906a19.763 19.763 0 0 1 -7.51 0l.672-1.906a18.406 18.406 0 0 0 3.083.266zm-15-11a15 15 0 0 1 30 0c0 6.643-4.125 10.564-9.293 12.159l-.664-1.883c4.294-1.285 7.957-4.406 7.957-10.276a13 13 0 0 0 -26 0c0 5.87 3.663 8.991 7.957 10.276l-.664 1.883c-5.168-1.595-9.293-5.516-9.293-12.159zm9.985 14.428a22.27 22.27 0 0 0 10.03 0l6.571 6.572h-4.968l-1.718-3.447a1 1 0 0 0 -.9-.553h-8a1 1 0 0 0 -.895.553l-1.723 3.447h-4.968zm9.397 6.572h-8.764l1-2h6.764zm18.618 19a1 1 0 0 1 -1 1h-44a1 1 0 0 1 -1-1v-11h46zm5-13h-56v-4h56z"/><path d="m12 58h12a1 1 0 0 0 1-1v-6a1 1 0 0 0 -1-1h-12a1 1 0 0 0 -1 1v6a1 1 0 0 0 1 1zm1-6h10v4h-10z"/><path d="m40 58h12a1 1 0 0 0 1-1v-6a1 1 0 0 0 -1-1h-12a1 1 0 0 0 -1 1v6a1 1 0 0 0 1 1zm1-6h10v4h-10z"/><path d="m31 10h2v2h-2z"/><path d="m26.05 12.05h2v2h-2z" transform="matrix(.707 -.707 .707 .707 -1.302 22.96)"/><path d="m24 17h2v2h-2z"/><path d="m38 17h2v2h-2z"/><path d="m35.949 12.05h2v2h-2z" transform="matrix(.707 -.707 .707 .707 1.589 29.938)"/></g></svg>