<svg height="512" viewBox="0 0 64 64" width="512" xmlns="http://www.w3.org/2000/svg"><g id="satellite_orbits" data-name="satellite orbits"><circle cx="32" cy="32" fill="#bb7fd9" r="22"/><g fill="#a25bcd"><path d="m40.9 43.24a2 2 0 1 1 -2.83 2.83l-2.83-2.83 1.42-1.41 1.41-1.42z"/><path d="m35.95 36.88-2.12 2.12-4.95 4.95-1.79-1.79-1.04-1.04 4.95-4.95 2.12-2.12 1.16 1.16z"/><path d="m28.18 33.35-1.42 1.41-2.83-2.83a2 2 0 1 1 2.83-2.83l2.83 2.83z"/><path d="m54 32a22 22 0 0 1 -22 22c-.34 0-.67-.01-1-.03a21.992 21.992 0 0 0 0-43.94c.33-.02.66-.03 1-.03a22 22 0 0 1 22 22z"/></g><circle cx="59" cy="42" fill="#ffde55" r="2"/><path d="m43.9 43.24a2 2 0 1 1 -2.83 2.83l-2.83-2.83 1.42-1.41 1.41-1.42z" fill="#ff7956"/><path d="m38.95 36.88-2.12 2.12-4.95 4.95-1.79-1.79-1.04-1.04 4.95-4.95 2.12-2.12 1.16 1.16z" fill="#2488ff"/><path d="m31.18 33.35-1.42 1.41-2.83-2.83a2 2 0 1 1 2.83-2.83l2.83 2.83z" fill="#ff7956"/><circle cx="21" cy="24" fill="#ffde55" r="2"/><circle cx="20" cy="59" fill="#ffde55" r="2"/><path d="m17 9a3.059 3.059 0 0 1 -.5 1.66 3 3 0 1 1 .5-1.66z" fill="#ff7956"/><circle cx="5" cy="21" fill="#ffde55" r="2"/><path d="m55 32a22.848 22.848 0 0 0 -3.214-11.707c9.058-11.748 7.052-13.784 6.378-14.462s-2.712-2.673-14.457 6.383a22.93 22.93 0 0 0 -23.418 0q-1.312-1.008-2.534-1.883a3.937 3.937 0 0 0 -2.755-5.189v-1.8h-2v1.8a3.993 3.993 0 0 0 -1.874 1.087c-2.613-1.241-4.314-1.374-5.3-.394-.668.674-2.674 2.71 6.384 14.458a22.928 22.928 0 0 0 0 23.414c-9.054 11.748-7.048 13.784-6.374 14.462a2.105 2.105 0 0 0 1.681.667c1.761 0 5.313-1.3 12.775-7.05a22.932 22.932 0 0 0 23.416 0c7.459 5.75 11.01 7.048 12.773 7.048a2.124 2.124 0 0 0 1.689-.669c.668-.674 2.674-2.71-6.384-14.458a22.848 22.848 0 0 0 3.214-11.707zm-4.545 10.013c-2.524-3.166-5.47-6.549-8.714-10.007 3.271-3.494 6.22-6.886 8.715-10.018a20.972 20.972 0 0 1 0 20.025zm6.3-34.768c.3.306.07 3.121-6.13 11.277a23.182 23.182 0 0 0 -5.142-5.142c8.154-6.203 10.972-6.435 11.267-6.135zm-7.41 12.93c-2.533 3.22-5.576 6.74-8.977 10.376q-1.668-1.744-3.416-3.5a183.281 183.281 0 0 0 -14.96-13.508 20.972 20.972 0 0 1 27.353 6.63zm-35.345-13.175a2 2 0 1 1 -2 2 2 2 0 0 1 2-2zm-6.753.247s.6-.339 2.9.731a3.918 3.918 0 0 0 2.853 4.88v1.8h2v-1.8a3.979 3.979 0 0 0 1.632-.869q.916.657 1.887 1.393a23.207 23.207 0 0 0 -5.14 5.14c-6.199-8.156-6.434-10.971-6.132-11.275zm12.928 7.413a178.877 178.877 0 0 1 15.358 13.807q1.773 1.773 3.454 3.538-.846.888-1.717 1.78l-.442-.442a1 1 0 0 0 -1.414 0l-1.414 1.414-1.414-1.414.707-.707a1 1 0 0 0 0-1.414l-2.828-2.828a3 3 0 1 0 -4.243 4.242l2.829 2.828a1 1 0 0 0 1.414 0l.707-.707 1.414 1.414-4.243 4.243a1 1 0 0 0 0 1.414l.3.3c-2.954 2.689-5.795 5.11-8.466 7.214a20.972 20.972 0 0 1 0-34.678zm10.289 26.461 5.657-5.657 1.415 1.415-5.657 5.657zm-3.121-10.606a1 1 0 0 1 1.708-.707l2.121 2.121-1.414 1.414-2.122-2.121a.985.985 0 0 1 -.293-.707zm-20.093 26.24c-.3-.306-.07-3.121 6.129-11.277a23.208 23.208 0 0 0 5.143 5.142c-8.158 6.203-10.974 6.436-11.272 6.135zm14.733-6.3c2.562-2.042 5.266-4.356 8.072-6.912l1.117 1.117a1 1 0 0 0 1.414 0l4.243-4.243 1.414 1.414-.708.708a1 1 0 0 0 0 1.414l2.829 2.828a3 3 0 0 0 4.242-4.243l-2.828-2.829a1 1 0 0 0 -1.414 0l-.707.707-1.414-1.416 1.414-1.414a1 1 0 0 0 0-1.414l-.972-.973q.849-.871 1.678-1.738c3.368 3.595 6.41 7.1 8.977 10.364a20.97 20.97 0 0 1 -27.357 6.627zm19.088-8.624 2.121 2.122a1 1 0 0 1 -1.414 1.414l-2.122-2.121zm15.685 14.919c-.307.3-3.125.068-11.278-6.13a23.208 23.208 0 0 0 5.143-5.142c6.199 8.156 6.434 10.971 6.135 11.272z"/><path d="m56 19h2v2h-2z"/><path d="m58 17h2v2h-2z"/><path d="m58 21h2v2h-2z"/><path d="m60 19h2v2h-2z"/><path d="m35 19h2v2h-2z"/><path d="m37 17h2v2h-2z"/><path d="m37 21h2v2h-2z"/><path d="m39 19h2v2h-2z"/><path d="m17 35h2v2h-2z"/><path d="m19 33h2v2h-2z"/><path d="m19 37h2v2h-2z"/><path d="m21 35h2v2h-2z"/><path d="m3 43h2v2h-2z"/><path d="m5 41h2v2h-2z"/><path d="m5 45h2v2h-2z"/><path d="m7 43h2v2h-2z"/><path d="m39 5h2v2h-2z"/><path d="m41 3h2v2h-2z"/><path d="m41 7h2v2h-2z"/><path d="m43 5h2v2h-2z"/><path d="m8 21a3 3 0 1 0 -3 3 3 3 0 0 0 3-3zm-4 0a1 1 0 1 1 1 1 1 1 0 0 1 -1-1z"/><path d="m21 27a3 3 0 1 0 -3-3 3 3 0 0 0 3 3zm0-4a1 1 0 1 1 -1 1 1 1 0 0 1 1-1z"/><path d="m20 56a3 3 0 1 0 3 3 3 3 0 0 0 -3-3zm0 4a1 1 0 1 1 1-1 1 1 0 0 1 -1 1z"/><path d="m59 39a3 3 0 1 0 3 3 3 3 0 0 0 -3-3zm0 4a1 1 0 1 1 1-1 1 1 0 0 1 -1 1z"/><path d="m42 58h2v2h-2z"/><path d="m44 56h2v2h-2z"/><path d="m44 60h2v2h-2z"/><path d="m46 58h2v2h-2z"/></g></svg>