<svg height="512" viewBox="0 0 64 64" width="512" xmlns="http://www.w3.org/2000/svg"><g id="space_colony" data-name="space colony"><path d="m61 11v22h-58v-22a8 8 0 0 1 8-8h42a8 8 0 0 1 8 8z" fill="#44ffe8"/><path d="m61 11v22h-2v-22a8 8 0 0 0 -8-8h2a8 8 0 0 1 8 8z" fill="#00eed1"/><path d="m61 36v5l-4 4-5-5v12l-12-12h-16l-12 12v-12l-5 5-4-4v-5z" fill="#2488ff"/><path d="m61 36v5l-4 4-1-1 3-3v-5z" fill="#006df0"/><path d="m61 33v3h-58v-3h4 12 6 10 5 4 5 4 4z" fill="#bb7fd9"/><path d="m57 12v21h-4v-16-1-8z" fill="#ffde55"/><path d="m57 12v21h-2v-21l-2-2v-2z" fill="#ffcd00"/><path d="m53 17v16h-4v-13l4-4z" fill="#ff7956"/><path d="m49 12v1h-10v-1a5 5 0 1 1 10 0z" fill="#ffde55"/><path d="m49 12v1h-2v-1a4.985 4.985 0 0 0 -3.99-4.9 4.619 4.619 0 0 1 .99-.1 4.985 4.985 0 0 1 5 5z" fill="#ffcd00"/><path d="m49 13-2 4h-3-3l-2-4z" fill="#ff7956"/><path d="m49 13-2 4h-2l2-4z" fill="#ff6243"/><path d="m40 44v3l-3 3h-2-3-3-2l-3-3v-3z" fill="#ffde55"/><path d="m24 40h16v4h-16z" fill="#bb7fd9"/><path d="m59 33h2v3h-2z" fill="#a25bcd"/><path d="m40 44v3l-3 3h-2l3-3v-3z" fill="#ffcd00"/><path d="m38 40h2v4h-2z" fill="#a25bcd"/><path d="m35 24h5v9h-5z" fill="#ffde55"/><path d="m53 16v17h-2v-15z" fill="#ff6243"/><path d="m38 24h2v9h-2z" fill="#ffcd00"/><path d="m35 24v9h-10v-14h4 4 2z" fill="#ff7956"/><path d="m33 15v4h-4v-4h2z" fill="#ff7956"/><path d="m25 19v14h-6v-9l-4-3v-12h10z" fill="#ffde55"/><path d="m19 24v9h-12v-18l8 6z" fill="#ff7956"/><path d="m33 19h2v14h-2z" fill="#ff6243"/><path d="m23 9h2v24h-2z" fill="#ffcd00"/><path d="m19 24v9h-2v-9l-10-7.5v-1.5z" fill="#ff6243"/><path d="m53 2h-42a9.01 9.01 0 0 0 -9 9v30a1 1 0 0 0 .293.707l4 4a1 1 0 0 0 1.414 0l3.293-3.293v9.586a1 1 0 0 0 1.707.707l10.293-10.293v4.586a1 1 0 0 0 .293.707l3 3a1 1 0 0 0 .707.293h10a1 1 0 0 0 .707-.293l3-3a1 1 0 0 0 .293-.707v-4.586l10.293 10.293a1 1 0 0 0 1.707-.707v-9.586l3.293 3.293a1 1 0 0 0 1.414 0l4-4a1 1 0 0 0 .293-.707v-30a9.01 9.01 0 0 0 -9-9zm-49 9a7.008 7.008 0 0 1 7-7h42a7.008 7.008 0 0 1 7 7v21h-2v-20a1 1 0 0 0 -.293-.707l-4-4a1 1 0 0 0 -1.707.707v7.586l-3.707 3.707a1 1 0 0 0 -.293.707v12h-3v-14h2a1 1 0 0 0 .9-.553l2-4c.006-.012.007-.025.013-.037s.014-.044.023-.066a.993.993 0 0 0 .062-.308c0-.012.007-.023.007-.036v-1a6 6 0 0 0 -12 0v1c0 .013.007.024.007.037a.993.993 0 0 0 .062.307c.009.022.014.044.023.066s.007.025.013.037l2 4a1 1 0 0 0 .89.553h2v14h-2v-8a1 1 0 0 0 -1-1h-4v-4a1 1 0 0 0 -1-1h-1v-3a1 1 0 0 0 -1-1h-1v-8h-2v8h-1a1 1 0 0 0 -1 1v3h-2v-9a1 1 0 0 0 -1-1h-10a1 1 0 0 0 -1 1v10l-6.4-4.8a1 1 0 0 0 -1.6.8v17h-2zm0 23h56v1h-56zm22-14h8v12h-8zm13 12h-3v-7h3zm-7-16v2h-2v-2zm-8 16h-4v-8a1 1 0 0 0 -.4-.8l-3.6-2.7v-10.5h8zm-6-7.5v7.5h-10v-15zm36-7.5v-6.586l2 2v19.586h-2zm-2 15h-2v-11.586l2-2zm-12-20a4 4 0 0 1 8 0zm7.382 2-1 2h-4.764l-1-2zm-22.382 27h14v2h-14zm11.586 8h-9.172l-2.414-2.414v-1.586h14v1.586zm20.414-5.414-4.293-4.293a1 1 0 0 0 -1.707.707v9.586l-10.293-10.293a.99.99 0 0 0 -.707-.283v-.01h-16v.01a.99.99 0 0 0 -.707.283l-10.293 10.293v-9.586a1 1 0 0 0 -1.707-.707l-4.293 4.293-3-3v-3.586h56v3.586z"/><path d="m43.707 48.293-1.414 1.414 2.293 2.293h-6.586a1 1 0 0 0 -.9 1.447l1.282 2.553h-2.382a1 1 0 0 0 -.781.375l-3.219 4.025-3.219-4.024a1 1 0 0 0 -.781-.376h-2.382l1.282-2.553a1 1 0 0 0 -.9-1.447h-6.586l2.293-2.293-1.414-1.414-4 4a1 1 0 0 0 .707 1.707h7.382l-1.277 2.553a1 1 0 0 0 .895 1.447h3.52l3.7 4.625a1 1 0 0 0 1.562 0l3.698-4.625h3.52a1 1 0 0 0 .9-1.447l-1.282-2.553h7.382a1 1 0 0 0 .707-1.707z"/><path d="m2 52h2v2h-2z"/><path d="m4 50h2v2h-2z"/><path d="m4 54h2v2h-2z"/><path d="m6 52h2v2h-2z"/><path d="m9 58h2v2h-2z"/><path d="m11 56h2v2h-2z"/><path d="m11 60h2v2h-2z"/><path d="m13 58h2v2h-2z"/><path d="m60 52h2v2h-2z"/><path d="m58 50h2v2h-2z"/><path d="m58 54h2v2h-2z"/><path d="m56 52h2v2h-2z"/><path d="m53 58h2v2h-2z"/><path d="m51 56h2v2h-2z"/><path d="m51 60h2v2h-2z"/><path d="m49 58h2v2h-2z"/><path d="m32 58a1 1 0 0 0 .8-.4l3-4-1.6-1.2-2.2 2.933-2.2-2.933-1.6 1.2 3 4a1 1 0 0 0 .8.4z"/></g></svg>