<svg height="512" viewBox="0 0 64 64" width="512" xmlns="http://www.w3.org/2000/svg"><g id="space_gun" data-name="space gun"><path d="m60.24 8h-4.24v-4.24a5 5 0 0 0 -5.66 5.65l-3.53 3.54-2.12-2.12a2 2 0 0 0 -2.83 2.83 2 2 0 0 0 -2.83 2.83 2 2 0 0 0 -2.83 2.82 2 2 0 1 0 -2.83 2.83 2 2 0 0 0 -2.83 0 2.016 2.016 0 0 0 0 2.83l2.13 2.12-3.1 3.1a11.988 11.988 0 0 0 -12.19 0l-3.1-3.1 2.12-2.12a2.016 2.016 0 0 0 0-2.83 2 2 0 0 0 -2.83 0l-8.48 8.49a1.993 1.993 0 0 0 -.59 1.41 2.033 2.033 0 0 0 .59 1.42 2 2 0 0 0 2.83 0l2.12-2.13 3.1 3.1a11.942 11.942 0 0 0 0 12.19l-3.1 3.1-2.12-2.12a2 2 0 0 0 -2.83 2.83l8.48 8.48a2 2 0 0 0 2.83-2.83l-2.12-2.12 3.1-3.1a11.953 11.953 0 0 0 10.27.92l10.67 10.67 4.24-4.25a3.978 3.978 0 0 0 0-5.65l-1.41-1.42-2.83-2.82-2.83-2.83-.76-.77a12.01 12.01 0 0 0 -.92-10.28l3.1-3.1 2.12 2.13a2.022 2.022 0 0 0 2.83 0 2.016 2.016 0 0 0 0-2.83 2 2 0 0 0 2.83-2.83 2 2 0 0 0 2.82-2.83 2 2 0 0 0 2.83-2.83 2 2 0 1 0 2.83-2.83l-2.12-2.12 3.54-3.53a5 5 0 0 0 5.65-5.66z" fill="#44ffe8"/><path d="m42.56 52.55a3.978 3.978 0 0 1 0 5.65l-4.24 4.25-2-2 2.24-2.25a3.978 3.978 0 0 0 0-5.65l-1.41-1.42-2.83-2.82-2.83-2.83-.76-.77a12.01 12.01 0 0 0 -.92-10.28l3.1-3.1 2 2-1.1 1.1a12.01 12.01 0 0 1 .92 10.28l.76.77 2.83 2.83 2.83 2.82z" fill="#00eed1"/><path d="m58.83 12.24a5 5 0 0 1 -4.24 1.42l-3.54 3.53 2.12 2.12a2 2 0 1 1 -2.83 2.83 2 2 0 0 1 -2.83 2.83 2 2 0 0 1 -2.82 2.83 2 2 0 0 1 -2.83 2.83 2.016 2.016 0 0 1 0 2.83 2.022 2.022 0 0 1 -2.83 0l-.71-.72a2.06 2.06 0 0 0 .12-.7 1.983 1.983 0 0 0 -.58-1.41 2 2 0 0 0 2.83-2.83 2 2 0 0 0 2.82-2.83 2 2 0 0 0 2.83-2.83 2 2 0 1 0 2.83-2.83l-2.12-2.12 3.54-3.53a5 5 0 0 0 5.65-5.66h4a5.043 5.043 0 0 1 -1.41 4.24z" fill="#00eed1"/><path d="m60.24 8a5 5 0 1 1 -4.24-4.24v4.24z" fill="#ffde55"/><path d="m54.59 13.66-3.54 3.53-4.24-4.24 3.53-3.54a5.028 5.028 0 0 0 4.25 4.25z" fill="#ff7956"/><circle cx="51" cy="56" fill="#ffde55" r="2"/><path d="m42.56 58.2-4.24 4.25-10.67-10.67-3.47-3.47 3.54-3.54 3.53-3.54 3.48 3.48.76.77 2.83 2.83 2.83 2.82 1.41 1.42a3.978 3.978 0 0 1 0 5.65z" fill="#2488ff"/><path d="m41.86 26.38-2.12 2.13-2.83 2.82-3.1 3.1a11.961 11.961 0 0 0 -4.24-4.24l3.1-3.1 4.95-4.95a1.992 1.992 0 0 1 2.82 0l.71.71.71.71a1.992 1.992 0 0 1 0 2.82z" fill="#ff7956"/><path d="m41.86 26.38-2.12 2.13-2.83 2.82-3.1 3.1a12.069 12.069 0 0 0 -1.73-2.27l.83-.83 2.83-2.82 2.12-2.13a1.992 1.992 0 0 0 0-2.82l-.71-.71-.12-.12.59-.59a1.992 1.992 0 0 1 2.82 0l.71.71.71.71a1.992 1.992 0 0 1 0 2.82z" fill="#ff6243"/><path d="m53.17 22.14a2 2 0 0 1 -2.83 0 2 2 0 0 1 -2.83 2.83 2 2 0 0 1 -2.82 2.83 2 2 0 0 1 -2.83 2.83 2.016 2.016 0 0 1 0 2.83 2.022 2.022 0 0 1 -2.83 0l-2.12-2.13 2.83-2.82 2.12-2.13a1.992 1.992 0 0 0 0-2.82l-.71-.71-.71-.71a1.992 1.992 0 0 0 -2.82 0l-4.95 4.95-2.13-2.12a2.016 2.016 0 0 1 0-2.83 2 2 0 0 1 2.83 0 2 2 0 1 1 2.83-2.83 2 2 0 0 1 2.83-2.82 2 2 0 0 1 2.83-2.83 2 2 0 0 1 2.83-2.83l2.12 2.12 6.36 6.36a2 2 0 0 1 0 2.83z" fill="#2488ff"/><path d="m42.56 58.2-4.24 4.25-2-2 2.24-2.25a3.978 3.978 0 0 0 0-5.65l-1.41-1.42-2.83-2.82-2.83-2.83-.76-.77-1.48-1.48 2-2 3.48 3.48.76.77 2.83 2.83 2.83 2.82 1.41 1.42a3.978 3.978 0 0 1 0 5.65z" fill="#006df0"/><path d="m53.17 22.14a2 2 0 0 1 -2.83 0 2 2 0 0 1 -2.83 2.83 2 2 0 0 1 -2.82 2.83 2 2 0 0 1 -2.83 2.83 2.016 2.016 0 0 1 0 2.83 2.022 2.022 0 0 1 -2.83 0l-.71-.72a2.06 2.06 0 0 0 .12-.7 1.983 1.983 0 0 0 -.58-1.41 2 2 0 0 0 2.83-2.83 2 2 0 0 0 2.82-2.83 2 2 0 0 0 2.83-2.83 2 2 0 1 0 2.83-2.83l-7.76-7.76a1.9 1.9 0 0 1 .45-.72 2 2 0 0 1 2.83 0l2.12 2.12 6.36 6.36a2 2 0 0 1 0 2.83z" fill="#006df0"/><path d="m23.47 34.87a4 4 0 1 1 -5.65 0 3.99 3.99 0 0 1 5.65 0z" fill="#ffde55"/><path d="m17.38 50.86-3.1 3.1-4.24-4.24 3.1-3.1a11.961 11.961 0 0 0 4.24 4.24z" fill="#ff7956"/><path d="m14.28 27.09 3.1 3.1a11.694 11.694 0 0 0 -2.39 1.85 11.888 11.888 0 0 0 -1.85 2.39l-3.1-3.1z" fill="#ff7956"/><path d="m16.4 22.14a2.016 2.016 0 0 1 0 2.83l-2.12 2.12-4.24 4.24-2.12 2.13a2 2 0 0 1 -2.83 0 2.033 2.033 0 0 1 -.59-1.42 1.993 1.993 0 0 1 .59-1.41l8.48-8.49a2 2 0 0 1 2.83 0z" fill="#ffde55"/><path d="m16.4 56.08a2 2 0 1 1 -2.83 2.83l-8.48-8.48a2 2 0 0 1 0-2.83 2.016 2.016 0 0 1 2.83 0l2.12 2.12 4.24 4.24z" fill="#ffde55"/><g fill="#ffcd00"><path d="m56 8h-2v-4.12a5.2 5.2 0 0 1 2-.12z"/><path d="m58.83 12.24a5 5 0 0 1 -4.24 1.42 2.5 2.5 0 0 1 -.29-.05 5.01 5.01 0 0 0 3.94-5.61h2a5.043 5.043 0 0 1 -1.41 4.24z"/><path d="m23.47 40.53a3.981 3.981 0 0 1 -3.82 1.04 3.942 3.942 0 0 0 1.82-1.04 3.99 3.99 0 0 0 0-5.66 3.942 3.942 0 0 0 -1.82-1.04 4 4 0 0 1 3.82 6.7z"/><path d="m16.98 23.56a1.983 1.983 0 0 1 -.58 1.41l-2.12 2.12-4.24 4.24-2.12 2.13a1.988 1.988 0 0 1 -2.41.31 1.7 1.7 0 0 0 .41-.31l2.12-2.13 4.24-4.24 2.12-2.12a2.016 2.016 0 0 0 0-2.83 1.7 1.7 0 0 0 -.41-.31 1.985 1.985 0 0 1 2.99 1.73z"/><path d="m16.4 58.91a2 2 0 0 1 -1.42.59 1.883 1.883 0 0 1 -.99-.28 1.7 1.7 0 0 0 .41-.31 2 2 0 0 0 0-2.83l-2.12-2.12-4.24-4.24-2.12-2.12a1.7 1.7 0 0 0 -.41-.31 1.967 1.967 0 0 1 .99-.27 1.989 1.989 0 0 1 1.42.58l2.12 2.12 4.24 4.24 2.12 2.12a2 2 0 0 1 0 2.83z"/></g><circle cx="15" cy="15" fill="#ffde55" r="2"/><path d="m35.863 44.431a12.877 12.877 0 0 0 -.828-9.81l1.873-1.872 1.414 1.414a3 3 0 0 0 4.243 0 2.93 2.93 0 0 0 .871-1.957 2.992 2.992 0 0 0 2.83-2.828 2.992 2.992 0 0 0 2.828-2.828 2.99 2.99 0 0 0 2.828-2.828 3 3 0 0 0 1.956-5.116l-1.414-1.414 2.5-2.5c.109.006.217.016.327.016a5.96 5.96 0 0 0 4.243-1.758 6.079 6.079 0 0 0 1.7-5.082 1 1 0 0 0 -.991-.868h-3.243v-3.242a1 1 0 0 0 -.867-.991 6.069 6.069 0 0 0 -5.083 1.7 5.959 5.959 0 0 0 -1.757 4.242c0 .11.01.218.016.327l-2.5 2.5-1.414-1.415a3 3 0 0 0 -5.116 1.957 2.992 2.992 0 0 0 -2.828 2.828 2.992 2.992 0 0 0 -2.828 2.828 2.992 2.992 0 0 0 -2.829 2.829 2.973 2.973 0 0 0 -1.956.873 3.013 3.013 0 0 0 0 4.242l1.415 1.414-1.881 1.881a12.906 12.906 0 0 0 -11.8 0l-1.872-1.881 1.414-1.414a3 3 0 0 0 0-4.242 3.072 3.072 0 0 0 -4.242 0l-8.491 8.484a3 3 0 1 0 4.243 4.243l1.414-1.414 1.88 1.88a12.912 12.912 0 0 0 0 11.8l-1.88 1.88-1.414-1.418a3 3 0 0 0 -4.243 4.243l8.486 8.485a3 3 0 1 0 4.242-4.243l-1.409-1.414 1.86-1.859a12.884 12.884 0 0 0 5.91 1.439 13.02 13.02 0 0 0 3.919-.62l10.226 10.232a1 1 0 0 0 1.414 0l4.243-4.243a5 5 0 0 0 0-7.07zm5.288-20.167a1 1 0 0 1 0 1.414l-7.193 7.192a11.722 11.722 0 0 0 -2.828-2.828l7.192-7.192a1 1 0 0 1 1.415 0zm11.313-2.828a1 1 0 0 1 -1.414 0 1 1 0 1 0 -1.414 1.414 1 1 0 0 1 0 1.414 1 1 0 0 1 -1.414 0 1 1 0 1 0 -1.414 1.414 1.006 1.006 0 0 1 0 1.414 1.028 1.028 0 0 1 -1.413 0 1 1 0 0 0 -1.415 1.414 1 1 0 0 1 0 1.414 1.029 1.029 0 0 1 -1.414 0 1 1 0 1 0 -1.415 1.413.983.983 0 0 1 .288.724.96.96 0 0 1 -.287.692 1 1 0 0 1 -1.415 0l-1.414-1.414 4.243-4.243a3 3 0 0 0 0-4.242l6.364-6.365 3.535 3.536a1 1 0 0 1 -.001 1.415zm0-15.557a4.031 4.031 0 0 1 2.536-1.153v3.274a1 1 0 0 0 1 1h3.275a4.034 4.034 0 0 1 -1.153 2.535 4.1 4.1 0 0 1 -5.658 0 4 4 0 0 1 0-5.656zm-2.582 5.411a5.929 5.929 0 0 0 2.829 2.828l-1.661 1.66-2.828-2.828zm-18.631 12.974a.977.977 0 0 1 -.287-.722.955.955 0 0 1 .287-.692 1.029 1.029 0 0 1 1.414 0 1 1 0 1 0 1.415-1.414 1 1 0 0 1 1.414-1.415 1 1 0 0 0 1.414-1.415 1.006 1.006 0 0 1 0-1.414 1.028 1.028 0 0 1 1.413 0 1 1 0 0 0 1.415-1.414 1 1 0 0 1 0-1.414 1.028 1.028 0 0 1 1.413 0 1 1 0 1 0 1.415-1.414 1 1 0 0 1 1.414-1.415l3.536 3.536-6.364 6.365a3 3 0 0 0 -4.243 0l-4.242 4.242zm-24.042 8.485a1.021 1.021 0 0 1 -1.414 0 1 1 0 0 1 0-1.415l8.486-8.484a1 1 0 1 1 1.419 1.414zm7.072-4.243 1.535 1.536a12.892 12.892 0 0 0 -1.535 1.293 13.052 13.052 0 0 0 -1.293 1.535l-1.536-1.535zm1.414 29.7a1 1 0 0 1 -1.414 0l-8.481-8.486a1 1 0 0 1 1.414-1.415l8.486 8.485a1 1 0 0 1 0 1.415zm-4.243-8.486 1.536-1.535a11.75 11.75 0 0 0 2.828 2.829l-1.535 1.535zm6.433.28a11 11 0 1 1 16.347-7.2l-2.274-2.274a1 1 0 0 0 -1.414 0l-2.828 2.829-2.9-2.9a4.99 4.99 0 1 0 -1.416 1.415l2.9 2.9-2.827 2.83a1 1 0 0 0 0 1.414l2.275 2.274a10.9 10.9 0 0 1 -7.863-1.288zm.638-10.183a3 3 0 1 1 4.243 0 3.005 3.005 0 0 1 -4.243.003zm23.335 17.683-3.536 3.536-12.728-12.731 5.657-5.657 2.829 2.829-2.829 2.828 1.415 1.414 2.828-2.828 1.414 1.414-2.828 2.829 1.414 1.414 2.828-2.829 1.415 1.415-2.829 2.828 1.414 1.414 2.829-2.828.707.707a3 3 0 0 1 0 4.242z"/><path d="m33.029 31h33.941v2h-33.941z" transform="matrix(.707 -.707 .707 .707 -7.983 44.728)"/><path d="m41.757 41h8.485v2h-8.485z" transform="matrix(.707 -.707 .707 .707 -16.225 44.828)"/><path d="m49.343 32h11.314v2h-11.314z" transform="matrix(.707 -.707 .707 .707 -7.225 48.556)"/><path d="m51 53a3 3 0 1 0 3 3 3 3 0 0 0 -3-3zm0 4a1 1 0 1 1 1-1 1 1 0 0 1 -1 1z"/><path d="m15 18a3 3 0 1 0 -3-3 3 3 0 0 0 3 3zm0-4a1 1 0 1 1 -1 1 1 1 0 0 1 1-1z"/><path d="m51 45h2v2h-2z"/><path d="m53 43h2v2h-2z"/><path d="m53 47h2v2h-2z"/><path d="m55 45h2v2h-2z"/><path d="m21 58h2v2h-2z"/><path d="m23 56h2v2h-2z"/><path d="m23 60h2v2h-2z"/><path d="m25 58h2v2h-2z"/><path d="m2 58h2v2h-2z"/><path d="m4 56h2v2h-2z"/><path d="m4 60h2v2h-2z"/><path d="m6 58h2v2h-2z"/><path d="m2 40h2v2h-2z"/><path d="m4 38h2v2h-2z"/><path d="m4 42h2v2h-2z"/><path d="m6 40h2v2h-2z"/><path d="m41 4h2v2h-2z"/><path d="m43 2h2v2h-2z"/><path d="m43 6h2v2h-2z"/><path d="m45 4h2v2h-2z"/><path d="m19.757 15h8.485v2h-8.485z" transform="matrix(.707 -.707 .707 .707 -4.284 21.657)"/><path d="m27.343 6h11.314v2h-11.314z" transform="matrix(.707 -.707 .707 .707 4.716 25.385)"/><path d="m19.757 21h8.485v2h-8.485z" transform="matrix(.707 -.707 .707 .707 -8.527 23.414)"/><path d="m27.343 12h11.314v2h-11.314z" transform="matrix(.707 -.707 .707 .707 .473 27.142)"/></g></svg>