<svg height="512" viewBox="0 0 64 64" width="512" xmlns="http://www.w3.org/2000/svg"><g id="space_shuttle" data-name="space shuttle"><path d="m41 13v27h-18v-27l7.51-8.35a2.012 2.012 0 0 1 2.98 0z" fill="#ff7956"/><path d="m41 13v27h-2v-27l-7.51-8.35a2 2 0 0 0 -.49-.39 2 2 0 0 1 2.49.39z" fill="#ff6243"/><path d="m19 9-4 4v9 1 4 12 9l8-8v-17-1-9z" fill="#2488ff"/><path d="m45 9 4 4v9 1 4 12 9l-8-8v-17-1-9z" fill="#2488ff"/><path d="m55 57h6v4h-6z" fill="#2488ff"/><path d="m55 3v12 12 12 12 6h6v-12-12-12-12-6z" fill="#c0ab91"/><path d="m51 51v3h-4-6v-3z" fill="#ff7956"/><path d="m51 50v1h-10l-4-4v-11z" fill="#ffde55"/><path d="m49 18v4h-8v-4h4z" fill="#44ffe8"/><path d="m47 54 1 4h-8l1-4z" fill="#ffde55"/><path d="m34 51h7v3h-7z" fill="#ff6243"/><path d="m41 51h-18l4-4v-32.01l5-4.99 5 4.99v32.01z" fill="#2488ff"/><path d="m23 13v27l-8 8v-2l6-6v-27l-3-3 1-1z" fill="#006df0"/><path d="m49 13v35l-2-2v-33l-3-3 1-1z" fill="#006df0"/><path d="m41 51h-2l-4-4v-32.01l-4-3.99 1-1 5 4.99v32.01z" fill="#006df0"/><path d="m35 58h-6l1-4v-3h4v3z" fill="#ffde55"/><path d="m34 19v2h-4v-2a2.006 2.006 0 0 1 2-2 2.015 2.015 0 0 1 2 2z" fill="#ffde55"/><path d="m23 51h7v3h-7z" fill="#ff6243"/><path d="m27 36v11l-4 4h-10v-1z" fill="#ffde55"/><path d="m23 54 1 4h-8l1-4z" fill="#ffde55"/><g fill="#ffcd00"><path d="m51 50v1h-2v-1l-12-12v-2z"/><path d="m48 58h-2l-1-4h2z"/><path d="m35 58h-2l-1-4v-3h2v3z"/><path d="m27 36v11l-4 4h-2l4-4v-9z"/><path d="m24 58h-2l-1-4h2z"/></g><path d="m23 51v3h-6-4v-3z" fill="#ff7956"/><path d="m15 18h8v4h-8z" fill="#44ffe8"/><path d="m3 57h6v4h-6z" fill="#2488ff"/><path d="m3 3v6 12 12 12 12h6v-6-12-12-12-12z" fill="#c0ab91"/><path d="m59 57h2v4h-2z" fill="#006df0"/><path d="m59 3h2v54h-2z" fill="#b39a7c"/><path d="m7 57h2v4h-2z" fill="#006df0"/><path d="m7 3h2v54h-2z" fill="#b39a7c"/><path d="m61 2h-6a1 1 0 0 0 -1 1v23h-4v-13a1 1 0 0 0 -.293-.707l-4-4a1 1 0 0 0 -1.414 0l-3.255 3.255-6.808-7.565a3.1 3.1 0 0 0 -4.46 0l-6.808 7.565-3.255-3.255a1 1 0 0 0 -1.414 0l-4 4a1 1 0 0 0 -.293.707v13h-4v-23a1 1 0 0 0 -1-1h-6a1 1 0 0 0 -1 1v58a1 1 0 0 0 1 1h6a1 1 0 0 0 1-1v-21h4v7.586l-1.707 1.707a1 1 0 0 0 -.293.707v4a1 1 0 0 0 1 1h2.719l-.689 2.757a1 1 0 0 0 .97 1.243h8a1 1 0 0 0 .97-1.243l-.689-2.757h4.438l-.689 2.757a1 1 0 0 0 .97 1.243h6a1 1 0 0 0 .97-1.243l-.689-2.757h4.438l-.689 2.757a1 1 0 0 0 .97 1.243h8a1 1 0 0 0 .97-1.243l-.689-2.757h2.719a1 1 0 0 0 1-1v-4a1 1 0 0 0 -.293-.707l-1.707-1.707v-7.586h4v21a1 1 0 0 0 1 1h6a1 1 0 0 0 1-1v-58a1 1 0 0 0 -1-1zm-1 4.586-2.586-2.586h2.586zm0 48-3.586-3.586 3.586-3.586zm-4-1.172 2.586 2.586h-2.586zm3.586-44.414-3.586 3.586v-7.172zm-3.586 39.586v-7.172l3.586 3.586zm.414-9.586 3.586-3.586v7.172zm-.414-2.414v-7.172l3.586 3.586zm.414-9.586 3.586-3.586v7.172zm-.414-2.414v-7.172l3.586 3.586zm.414-9.586 3.586-3.586v7.172zm-31 35 2.293-2.293a1 1 0 0 0 .293-.707v-31.595l4-3.992 4 3.992v31.595a1 1 0 0 0 .293.707l2.293 2.293zm-11 0 11.586-11.586v8.172l-3.414 3.414zm7.586-29h-6v-2h6zm19.414 29-3.414-3.414v-8.172l11.586 11.586zm.586-31h6v2h-6zm3-8.586 3 3v3.586h-6v-3.586zm-13.744-5.093a1.024 1.024 0 0 1 1.488 0l7.256 8.063v24.2l-2-2v-20.594a1 1 0 0 0 -.293-.708l-5-4.99a1 1 0 0 0 -1.414 0l-5 4.99a1 1 0 0 0 -.293.708v20.6l-2 2v-24.2zm-12.256 5.093 3 3v3.586h-6v-3.586zm-11.414 4.586-3.586 3.586v-7.172zm-3.172-6 3.586-3.586v7.172zm3.586 8.414v7.172l-3.586-3.586zm-.414 9.586-3.586 3.586v-7.172zm.414 26.414v2.586h-2.586zm-4 1.172v-7.172l3.586 3.586zm.414-9.586 3.586-3.586v7.172zm-.414-2.414v-7.172l3.586 3.586zm.414-9.586 3.586-3.586v7.172zm2.172-29-2.586 2.586v-2.586zm-2.586 56v-2h4v2zm6-22v-10h4v10zm6-15h6v16.586l-6 6zm-2 29h8v1h-8zm3.281 5 .5-2h4.438l.5 2zm6.719-4v-1h5v1zm6.281 4 .689-2.757a1 1 0 0 0 .03-.243v-2h2v2a1 1 0 0 0 .03.243l.689 2.757zm4.719-4v-1h5v1zm11.719 4h-5.438l.5-2h4.438zm-4.719-4v-1h8v1zm0-13.414v-16.586h6v22.586zm8-11.586h4v10h-4zm6 32v-2h4v2z"/><path d="m16 60h2v2h-2z"/><path d="m19 60h2v2h-2z"/><path d="m22 60h2v2h-2z"/><path d="m46 60h2v2h-2z"/><path d="m43 60h2v2h-2z"/><path d="m40 60h2v2h-2z"/><path d="m29 60h2v2h-2z"/><path d="m33 60h2v2h-2z"/><path d="m32 16a3 3 0 0 0 -3 3v2a1 1 0 0 0 1 1h4a1 1 0 0 0 1-1v-2a3 3 0 0 0 -3-3zm1 4h-2v-1a1 1 0 0 1 2 0z"/><path d="m31 46h2v2h-2z"/><path d="m31 42h2v2h-2z"/><path d="m44 13h2v2h-2z"/><path d="m18 13h2v2h-2z"/></g></svg>