<svg height="512" viewBox="0 0 64 64" width="512" xmlns="http://www.w3.org/2000/svg"><g id="space"><path d="m61 32a19.986 19.986 0 0 1 -11.09 17.91 20.007 20.007 0 0 1 -35.82 0 20.007 20.007 0 0 1 0-35.82 20.007 20.007 0 0 1 35.82 0 19.986 19.986 0 0 1 11.09 17.91z" fill="#d5b4eb"/><circle cx="32" cy="32" fill="#bb7fd9" r="25"/><circle cx="32" cy="32" fill="#a25bcd" r="20"/><circle cx="55" cy="5" fill="#ffde55" r="2"/><circle cx="54" cy="59" fill="#ffde55" r="2"/><path d="m52 41a1.275 1.275 0 0 1 -.01.2 2 2 0 1 1 .01-.2z" fill="#ff7956"/><path d="m42.99 31.8a1.34 1.34 0 0 1 .01.2 2 2 0 1 1 -.01-.2z" fill="#2488ff"/><path d="m41.2 12.01a2 2 0 1 1 -.2-.01 1.275 1.275 0 0 1 .2.01z" fill="#44ffe8"/><path d="m32 21a2 2 0 1 1 -.2.01 1.34 1.34 0 0 1 .2-.01z" fill="#ffde55"/><circle cx="32" cy="32" fill="#ff7956" r="2"/><path d="m32 39a2 2 0 0 1 .2 3.99 1.34 1.34 0 0 1 -.2.01 2 2 0 0 1 0-4z" fill="#ffde55"/><path d="m23 30a2 2 0 1 1 -1.99 2.2 1.34 1.34 0 0 1 -.01-.2 2.006 2.006 0 0 1 2-2z" fill="#44ffe8"/><path d="m23 48a2 2 0 0 1 0 4 1.275 1.275 0 0 1 -.2-.01 2 2 0 0 1 .2-3.99z" fill="#2488ff"/><path d="m14 21a2 2 0 1 1 -2 2 1.275 1.275 0 0 1 .01-.2 2.006 2.006 0 0 1 1.99-1.8z" fill="#ff7956"/><circle cx="12" cy="5" fill="#ffde55" r="2"/><circle cx="5" cy="53" fill="#ffde55" r="2"/><path d="m12 8a3 3 0 1 0 -3-3 3 3 0 0 0 3 3zm0-4a1 1 0 1 1 -1 1 1 1 0 0 1 1-1z"/><path d="m32 35a3 3 0 1 0 -3-3 3 3 0 0 0 3 3zm0-4a1 1 0 1 1 -1 1 1 1 0 0 1 1-1z"/><path d="m55 8a3 3 0 1 0 -3-3 3 3 0 0 0 3 3zm0-4a1 1 0 1 1 -1 1 1 1 0 0 1 1-1z"/><path d="m5 50a3 3 0 1 0 3 3 3 3 0 0 0 -3-3zm0 4a1 1 0 1 1 1-1 1 1 0 0 1 -1 1z"/><path d="m9 58h2v2h-2z"/><path d="m11 56h2v2h-2z"/><path d="m11 60h2v2h-2z"/><path d="m13 58h2v2h-2z"/><path d="m54 56a3 3 0 1 0 3 3 3 3 0 0 0 -3-3zm0 4a1 1 0 1 1 1-1 1 1 0 0 1 -1 1z"/><path d="m56 12h2v2h-2z"/><path d="m58 10h2v2h-2z"/><path d="m58 14h2v2h-2z"/><path d="m60 12h2v2h-2z"/><path d="m56 50h2v2h-2z"/><path d="m58 48h2v2h-2z"/><path d="m58 52h2v2h-2z"/><path d="m60 50h2v2h-2z"/><path d="m2 12h2v2h-2z"/><path d="m4 10h2v2h-2z"/><path d="m4 14h2v2h-2z"/><path d="m6 12h2v2h-2z"/><path d="m50.637 13.363a20.965 20.965 0 0 0 -37.274 0 20.965 20.965 0 0 0 0 37.274 20.965 20.965 0 0 0 37.274 0 20.965 20.965 0 0 0 0-37.274zm1.324 34.129a20.9 20.9 0 0 0 1.039-6.492 3.05 3.05 0 1 0 -2.244 2.892 18.8 18.8 0 0 1 -1.615 5.249 18.928 18.928 0 0 1 -26.9-14.249 2.994 2.994 0 1 0 -2.241-2.892 20.973 20.973 0 0 0 27.492 19.961 18.947 18.947 0 0 1 -30.984 0 20.9 20.9 0 0 0 6.492 1.039 3.05 3.05 0 1 0 -2.892-2.244 18.8 18.8 0 0 1 -5.249-1.615 18.928 18.928 0 0 1 14.249-26.9 2.994 2.994 0 1 0 2.892-2.241 20.973 20.973 0 0 0 -19.961 27.492 18.947 18.947 0 0 1 0-30.984 20.9 20.9 0 0 0 -1.039 6.492 3.05 3.05 0 1 0 2.244-2.892 18.8 18.8 0 0 1 1.615-5.249 18.928 18.928 0 0 1 26.9 14.249 2.994 2.994 0 1 0 2.241 2.892 20.973 20.973 0 0 0 -27.492-19.961 18.947 18.947 0 0 1 30.984 0 20.9 20.9 0 0 0 -6.492-1.039 3.05 3.05 0 1 0 2.892 2.244 18.8 18.8 0 0 1 5.249 1.615 18.928 18.928 0 0 1 -14.249 26.9 2.994 2.994 0 1 0 -2.892 2.241 20.973 20.973 0 0 0 19.961-27.492 18.947 18.947 0 0 1 0 30.984zm-.961-6.492a1 1 0 1 1 -1-1 1 1 0 0 1 1 1zm-29-9a1 1 0 1 1 1 1 1 1 0 0 1 -1-1zm0 18a1 1 0 1 1 1 1 1 1 0 0 1 -1-1zm10-28a1 1 0 1 1 -1 1 1 1 0 0 1 1-1zm-19 1a1 1 0 1 1 1 1 1 1 0 0 1 -1-1zm29 9a1 1 0 1 1 -1-1 1 1 0 0 1 1 1zm0-18a1 1 0 1 1 -1-1 1 1 0 0 1 1 1zm-10 28a1 1 0 1 1 1-1 1 1 0 0 1 -1 1z"/></g></svg>