<svg height="512" viewBox="0 0 64 64" width="512" xmlns="http://www.w3.org/2000/svg"><g id="star"><path d="m61 13-6 2-2 8-2-8-6-2 6-2 2.27-8.35 1.69 8.42z" fill="#ffde55"/><path d="m59 46-4 2-2 6-2-6-4-2 4-2 2-6 2 6z" fill="#ffde55"/><path d="m47.39 27.54a1 1 0 0 1 .59 1.81l-8.34 6.06a.987.987 0 0 0 -.36 1.12l3.18 9.79a1 1 0 0 1 -1.54 1.12l-8.33-6.05a.99.99 0 0 0 -1.18 0l-8.33 6.05a1 1 0 0 1 -1.54-1.12l3.18-9.79a.987.987 0 0 0 -.36-1.12l-8.34-6.06a1 1 0 0 1 .59-1.81h10.3a1.012 1.012 0 0 0 .96-.69l3.18-9.8a1 1 0 0 1 1.9 0l3.18 9.8a1.012 1.012 0 0 0 .96.69z" fill="#ffde55"/><path d="m19 51-6 2-2 8-2-8-6-2 6-2 2-8 2 8z" fill="#ffde55"/><path d="m17 14-4 2-2 6-2-6-4-2 4-2 2-6 2 6z" fill="#ffde55"/><g fill="#ffcd00"><path d="m61 13-6 2-2 8-1-4 1-4 6-2-6.04-1.93-.84-4.19 1.15-4.23 1.69 8.42z"/><path d="m59 46-4 2-2 6-1-3 1-3 4-2-4-2-1-3 1-3 2 6z"/><path d="m37.09 27.54h-2a1.012 1.012 0 0 1 -.96-.69l-3.13-9.65.05-.15a1 1 0 0 1 1.9 0l3.18 9.8a1.012 1.012 0 0 0 .96.69z"/><path d="m39.28 36.53 3.18 9.79a1 1 0 0 1 -1.54 1.12l-.51-.37a.958.958 0 0 0 .05-.75l-3.18-9.79a.987.987 0 0 1 .36-1.12l8.34-6.06a1 1 0 0 0 -.59-1.81h2a1 1 0 0 1 .59 1.81l-8.34 6.06a.987.987 0 0 0 -.36 1.12z"/><path d="m19 51-6 2-2 8-1-4 1-4 6-2-6-2-1-4 1-4 2 8z"/><path d="m17 14-4 2-2 6-1-3 1-3 4-2-4-2-1-3 1-3 2 6z"/></g><path d="m40.229 36.217 8.335-6.056a2 2 0 0 0 -1.176-3.618h-10.3l-3.184-9.8a2 2 0 0 0 -3.8 0l-3.184 9.8h-10.3a2 2 0 0 0 -1.176 3.618l8.335 6.055-3.184 9.8a2 2 0 0 0 3.078 2.236l8.327-6.052 8.335 6.056a1.971 1.971 0 0 0 2.351 0 1.972 1.972 0 0 0 .727-2.236zm-7.054 4.36a2 2 0 0 0 -2.351 0l-8.334 6.056 3.183-9.8a1.992 1.992 0 0 0 -.726-2.235l-8.335-6.056h10.3a1.994 1.994 0 0 0 1.9-1.382l3.188-9.81v.012l3.184 9.8a1.994 1.994 0 0 0 1.9 1.382h10.3l-8.33 6.056a1.993 1.993 0 0 0 -.727 2.236l3.184 9.8z"/><path d="m19 7h2v2h-2z"/><path d="m21 5h2v2h-2z"/><path d="m21 9h2v2h-2z"/><path d="m23 7h2v2h-2z"/><path d="m4 33h2v2h-2z"/><path d="m6 31h2v2h-2z"/><path d="m6 35h2v2h-2z"/><path d="m8 33h2v2h-2z"/><path d="m30 58h2v2h-2z"/><path d="m32 56h2v2h-2z"/><path d="m32 60h2v2h-2z"/><path d="m34 58h2v2h-2z"/><path d="m56 28h2v2h-2z"/><path d="m58 26h2v2h-2z"/><path d="m58 30h2v2h-2z"/><path d="m60 28h2v2h-2z"/><path d="m40 18h2v2h-2z"/><path d="m42 16h2v2h-2z"/><path d="m42 20h2v2h-2z"/><path d="m44 18h2v2h-2z"/><path d="m44.684 13.949 5.479 1.826 1.867 7.468a1 1 0 0 0 1.94 0l1.867-7.468 5.479-1.826a1 1 0 0 0 -.011-1.9l-5.485-1.756-1.569-7.843a1 1 0 0 0 -.946-.8 1.019 1.019 0 0 0 -1 .738l-2.13 7.837-5.492 1.83a1 1 0 0 0 0 1.9zm6.632-2a1 1 0 0 0 .649-.687l1.158-4.262.852 4.259a1 1 0 0 0 .675.757l3.129 1-3.1 1.031a1 1 0 0 0 -.654.706l-1.025 4.124-1.03-4.12a1 1 0 0 0 -.654-.706l-3.154-1.051z"/><path d="m60 46a1 1 0 0 0 -.553-.9l-3.629-1.814-1.869-5.607a1 1 0 0 0 -1.9 0l-1.869 5.607-3.629 1.814a1 1 0 0 0 0 1.79l3.629 1.814 1.869 5.607a1 1 0 0 0 1.9 0l1.869-5.607 3.629-1.804a1 1 0 0 0 .553-.9zm-5.447 1.1a1 1 0 0 0 -.5.579l-1.053 3.159-1.051-3.154a1 1 0 0 0 -.5-.579l-2.213-1.105 2.211-1.1a1 1 0 0 0 .5-.579l1.053-3.159 1.051 3.154a1 1 0 0 0 .5.579l2.213 1.105z"/><path d="m19.316 50.051-5.479-1.826-1.867-7.468a1 1 0 0 0 -1.94 0l-1.867 7.468-5.479 1.826a1 1 0 0 0 0 1.9l5.479 1.826 1.867 7.468a1 1 0 0 0 1.94 0l1.867-7.468 5.479-1.826a1 1 0 0 0 0-1.9zm-6.632 2a1 1 0 0 0 -.654.706l-1.03 4.12-1.03-4.12a1 1 0 0 0 -.654-.706l-3.154-1.051 3.154-1.051a1 1 0 0 0 .654-.706l1.03-4.12 1.03 4.12a1 1 0 0 0 .654.706l3.154 1.051z"/><path d="m4.553 14.9 3.629 1.814 1.869 5.607a1 1 0 0 0 1.9 0l1.869-5.607 3.627-1.814a1 1 0 0 0 0-1.79l-3.629-1.814-1.869-5.612a1 1 0 0 0 -1.9 0l-1.867 5.607-3.629 1.814a1 1 0 0 0 0 1.79zm4.894-2a1 1 0 0 0 .5-.579l1.053-3.159 1.051 3.154a1 1 0 0 0 .5.579l2.213 1.105-2.211 1.105a1 1 0 0 0 -.5.579l-1.053 3.154-1.051-3.154a1 1 0 0 0 -.5-.579l-2.213-1.105z"/><path d="m56 58h2v2h-2z"/><path d="m58 56h2v2h-2z"/><path d="m58 60h2v2h-2z"/><path d="m60 58h2v2h-2z"/></g></svg>