<svg height="512" viewBox="0 0 64 64" width="512" xmlns="http://www.w3.org/2000/svg"><g id="sun"><path d="m58.39 35.14a1 1 0 0 0 -.18 1.29l1.96 3.05a.994.994 0 0 1 -.43 1.45l-3.3 1.51a1 1 0 0 0 -.54 1.19l1.02 3.49a1.006 1.006 0 0 1 -.82 1.27l-3.59.51a1.009 1.009 0 0 0 -.86.99v3.63a1 1 0 0 1 -1.14.99l-3.6-.51a1 1 0 0 0 -1.1.71l-1.02 3.48a1 1 0 0 1 -1.37.63l-3.31-1.51a1 1 0 0 0 -1.25.37l-1.97 3.05a.993.993 0 0 1 -1.49.21l-2.75-2.37a.977.977 0 0 0 -1.3 0l-2.75 2.37a.993.993 0 0 1 -1.49-.21l-1.97-3.05a1.008 1.008 0 0 0 -1.26-.37l-3.3 1.51a1 1 0 0 1 -1.37-.63l-1.02-3.48a1 1 0 0 0 -1.1-.71l-3.6.51a1 1 0 0 1 -1.14-.99v-3.63a1 1 0 0 0 -.86-.99l-3.59-.51a1.006 1.006 0 0 1 -.82-1.27l1.02-3.49a1 1 0 0 0 -.54-1.19l-3.3-1.51a.994.994 0 0 1 -.43-1.45l1.96-3.05a1 1 0 0 0 -.18-1.29l-2.74-2.39a.988.988 0 0 1 0-1.5l2.74-2.39a1 1 0 0 0 .18-1.29l-1.96-3.05a.994.994 0 0 1 .43-1.45l3.3-1.51a1 1 0 0 0 .54-1.19l-1.02-3.49a1.006 1.006 0 0 1 .82-1.27l3.59-.51a1.009 1.009 0 0 0 .86-.99v-3.63a1 1 0 0 1 1.14-.99l3.6.51a1 1 0 0 0 1.1-.71l1.02-3.48a1 1 0 0 1 1.37-.63l3.31 1.51a1 1 0 0 0 1.25-.37l1.97-3.05a.993.993 0 0 1 1.49-.21l2.75 2.37a.977.977 0 0 0 1.3 0l2.75-2.37a.993.993 0 0 1 1.49.21l1.97 3.05a1.008 1.008 0 0 0 1.26.37l3.3-1.51a1 1 0 0 1 1.37.63l1.02 3.48a1 1 0 0 0 1.1.71l3.6-.51a1 1 0 0 1 1.14.99v3.63a1 1 0 0 0 .86.99l3.59.51a1.006 1.006 0 0 1 .82 1.27l-1.02 3.49a1 1 0 0 0 .54 1.19l3.3 1.51a.994.994 0 0 1 .43 1.45l-1.96 3.05a1 1 0 0 0 .18 1.29l2.74 2.39a.988.988 0 0 1 0 1.5z" fill="#ffde55"/><circle cx="32" cy="32" fill="#ff7956" r="19"/><path d="m51 32a19 19 0 0 1 -19 19c-.33 0-.65-.01-.98-.02a19.008 19.008 0 0 0 0-37.96c.33-.01.65-.02.98-.02a19 19 0 0 1 19 19z" fill="#ff6243"/><path d="m49.96 25.81a18.727 18.727 0 0 1 .94 4.25 4.96 4.96 0 0 0 -3.32 1.53c-3 3-.17 5.83-3.17 8.83s-5.83.17-8.83 3.17c-2.5 2.5-.95 4.89-2.11 7.35-.48.04-.98.06-1.47.06a18.894 18.894 0 0 1 -6.41-1.11 4.877 4.877 0 0 0 2.82-1.47c3-3 .17-5.83 3.17-8.83s5.83-.17 8.83-3.17.17-5.83 3.17-8.83c2.17-2.17 4.26-1.29 6.38-1.78z" fill="#ffbcab"/><path d="m40.51 15.02a5.293 5.293 0 0 0 -3.93 1.57c-3 3-.17 5.83-3.17 8.83s-5.83.17-8.83 3.17-.17 5.83-3.17 8.83c-2.36 2.36-4.61 1.11-6.92 1.94a18.3 18.3 0 0 1 -1.25-4.37 5.4 5.4 0 0 0 4.17-1.57c3-3 .17-5.83 3.17-8.83s5.83-.17 8.83-3.17c2.86-2.86.42-5.57 2.79-8.42a18.736 18.736 0 0 1 8.31 2.02z" fill="#ffbcab"/><path d="m50.9 30.06a4.96 4.96 0 0 0 -3.32 1.53c-3 3-.17 5.83-3.17 8.83s-5.83.17-8.83 3.17c-2.5 2.5-.95 4.89-2.11 7.35-.48.04-.98.06-1.47.06-.35 0-.7-.01-1.04-.03.17 0 .34-.02.51-.03 1.16-2.46-.39-4.85 2.11-7.35 3-3 5.83-.17 8.83-3.17s.17-5.83 3.17-8.83a4.96 4.96 0 0 1 3.32-1.53 18.148 18.148 0 0 0 -.88-4.05 10.644 10.644 0 0 0 1.94-.2 18.727 18.727 0 0 1 .94 4.25z" fill="#ff9478"/><path d="m40.51 15.02a5.293 5.293 0 0 0 -3.93 1.57c-3 3-.17 5.83-3.17 8.83s-5.83.17-8.83 3.17-.17 5.83-3.17 8.83c-2.36 2.36-4.61 1.11-6.92 1.94-.05-.11-.09-.22-.13-.33 1.67-.09 3.33.11 5.05-1.61 3-3 .17-5.83 3.17-8.83s5.83-.17 8.83-3.17.17-5.83 3.17-8.83a5.293 5.293 0 0 1 3.93-1.57 18.708 18.708 0 0 0 -6.4-1.9l.09-.12a18.736 18.736 0 0 1 8.31 2.02z" fill="#ff9478"/><path d="m62.476 32a2 2 0 0 0 -.688-1.51l-2.74-2.381 1.961-3.051a2 2 0 0 0 -.85-2.9l-3.3-1.51 1.017-3.483a2 2 0 0 0 -1.635-2.54l-3.592-.517v-3.629a2 2 0 0 0 -2.283-1.979l-3.593.512-1.022-3.482a2 2 0 0 0 -2.751-1.257l-3.3 1.505-1.968-3.05a2 2 0 0 0 -2.99-.428l-2.742 2.377-2.742-2.377a2 2 0 0 0 -2.991.427l-1.967 3.051-3.3-1.504a2 2 0 0 0 -2.75 1.256l-1.022 3.481-3.593-.511a2 2 0 0 0 -2.282 1.98v3.628l-3.591.517a2 2 0 0 0 -1.635 2.54l1.017 3.483-3.3 1.51a2 2 0 0 0 -.85 2.9l1.961 3.052-2.742 2.38a2 2 0 0 0 0 3.02l2.74 2.381-1.962 3.051a2 2 0 0 0 .85 2.9l3.3 1.51-1.018 3.483a2 2 0 0 0 1.635 2.54l3.592.517v3.629a2 2 0 0 0 2.284 1.979l3.593-.512 1.022 3.482a2 2 0 0 0 2.751 1.257l3.3-1.5 1.968 3.05a2 2 0 0 0 2.99.428l2.742-2.382 2.742 2.377a2 2 0 0 0 1.31.489 1.924 1.924 0 0 0 .283-.02 2 2 0 0 0 1.4-.9l1.967-3.05 3.3 1.5a2 2 0 0 0 2.748-1.249l1.022-3.481 3.593.512a2 2 0 0 0 2.282-1.98v-3.628l3.591-.517a2 2 0 0 0 1.635-2.54l-1.017-3.483 3.3-1.51a2 2 0 0 0 .85-2.9l-1.961-3.052 2.739-2.381a2 2 0 0 0 .692-1.51zm-2 0-2.739 2.381a2.011 2.011 0 0 0 -.371 2.591l1.962 3.053-3.3 1.509a2.011 2.011 0 0 0 -1.088 2.379l1.016 3.487-3.591.517a2.01 2.01 0 0 0 -1.716 1.978v3.629l-3.592-.512a2.007 2.007 0 0 0 -2.2 1.417l-1.022 3.48-3.3-1.5a2.011 2.011 0 0 0 -2.51.736l-1.968 3.05-2.747-2.383a2.012 2.012 0 0 0 -2.62 0l-2.742 2.376-1.968-3.05a2.012 2.012 0 0 0 -2.51-.737l-3.3 1.5-1.021-3.482a2.01 2.01 0 0 0 -2.2-1.416l-3.593.512v-3.63a2.008 2.008 0 0 0 -1.716-1.977l-3.597-.508 1.017-3.487a2.011 2.011 0 0 0 -1.088-2.38l-3.3-1.509 1.962-3.052a2.012 2.012 0 0 0 -.37-2.591l-2.739-2.381 2.739-2.381a2.011 2.011 0 0 0 .371-2.591l-1.962-3.053 3.3-1.509a2.011 2.011 0 0 0 1.088-2.379l-1.017-3.487 3.591-.517a2.01 2.01 0 0 0 1.716-1.978v-3.629l3.592.512a2.006 2.006 0 0 0 2.2-1.417l1.022-3.48 3.3 1.5a2.01 2.01 0 0 0 2.51-.736l1.968-3.05 2.747 2.383a2.011 2.011 0 0 0 2.62 0l2.742-2.376 1.968 3.05a2.013 2.013 0 0 0 2.51.737l3.3-1.5 1.021 3.482a2.005 2.005 0 0 0 2.2 1.416l3.593-.512v3.63a2.008 2.008 0 0 0 1.716 1.977l3.591.517-1.011 3.478a2.011 2.011 0 0 0 1.088 2.38l3.3 1.509-1.962 3.052a2.012 2.012 0 0 0 .37 2.591l2.741 2.381z"/><path d="m56 4h2v2h-2z"/><path d="m58 2h2v2h-2z"/><path d="m58 6h2v2h-2z"/><path d="m60 4h2v2h-2z"/><path d="m54 56h2v2h-2z"/><path d="m56 54h2v2h-2z"/><path d="m56 58h2v2h-2z"/><path d="m58 56h2v2h-2z"/><path d="m4 55h2v2h-2z"/><path d="m6 53h2v2h-2z"/><path d="m6 57h2v2h-2z"/><path d="m8 55h2v2h-2z"/><path d="m4 6h2v2h-2z"/><path d="m6 4h2v2h-2z"/><path d="m6 8h2v2h-2z"/><path d="m8 6h2v2h-2z"/><path d="m32 12a20 20 0 1 0 20 20 20.023 20.023 0 0 0 -20-20zm.678 2.034a17.989 17.989 0 0 1 4.628.766 6.312 6.312 0 0 0 -1.433 1.083 6.553 6.553 0 0 0 -1.873 5.093 4.523 4.523 0 0 1 -5.03 5.029 6.479 6.479 0 0 0 -6.97 6.971 4.522 4.522 0 0 1 -5.019 5.03 12.137 12.137 0 0 0 -1.865.164 17.889 17.889 0 0 1 -.671-2.257 5.956 5.956 0 0 0 3.676-1.786 6.559 6.559 0 0 0 1.879-5.093 4.523 4.523 0 0 1 5.024-5.034 6.479 6.479 0 0 0 6.976-6.967 5.327 5.327 0 0 1 .678-2.999zm-2.248.046a8.77 8.77 0 0 0 -.435 2.9 4.522 4.522 0 0 1 -5.029 5.03 6.479 6.479 0 0 0 -6.966 6.966 4.652 4.652 0 0 1 -1.3 3.737 3.934 3.934 0 0 1 -2.595 1.224 18.221 18.221 0 0 1 -.105-1.937 18.016 18.016 0 0 1 16.43-17.92zm-14.5 25.986c.359-.037.728-.049 1.107-.061a6.479 6.479 0 0 0 6.963-6.971 4.523 4.523 0 0 1 5.024-5.034 6.479 6.479 0 0 0 6.971-6.97 4.65 4.65 0 0 1 1.292-3.73 4.159 4.159 0 0 1 2.995-1.262 18.107 18.107 0 0 1 8.289 8.94c-.2.01-.4.021-.608.028a6.482 6.482 0 0 0 -6.963 6.97 4.523 4.523 0 0 1 -5.03 5.029 6.479 6.479 0 0 0 -6.97 6.971 4.652 4.652 0 0 1 -1.3 3.737 3.887 3.887 0 0 1 -2 1.127 18.079 18.079 0 0 1 -9.769-8.774zm12.581 9.588a6.95 6.95 0 0 0 .605-.527 6.559 6.559 0 0 0 1.884-5.093 4.523 4.523 0 0 1 5.024-5.034 6.479 6.479 0 0 0 6.976-6.966 4.526 4.526 0 0 1 5.025-5.034c.4-.013.814-.029 1.236-.072a17.916 17.916 0 0 1 .5 2.3 5.836 5.836 0 0 0 -2.892 1.651 6.553 6.553 0 0 0 -1.869 5.097 4.523 4.523 0 0 1 -5.03 5.029 6.48 6.48 0 0 0 -6.971 6.969 7.962 7.962 0 0 1 -.226 1.987c-.257.011-.509.039-.769.039a17.977 17.977 0 0 1 -3.492-.346zm6.345.1a13.371 13.371 0 0 0 .137-1.717 4.524 4.524 0 0 1 5.031-5.037 6.479 6.479 0 0 0 6.976-6.966 4.652 4.652 0 0 1 1.3-3.74 3.949 3.949 0 0 1 1.672-1.046c.01.251.038.5.038.752a18.013 18.013 0 0 1 -15.153 17.751z"/></g></svg>