<svg height="512" viewBox="0 0 64 64" width="512" xmlns="http://www.w3.org/2000/svg"><g id="ufo"><path d="m61 32-7 1-7-2-7 2-8.01-2-7.99 2-7-2-7 2-7-1a4.985 4.985 0 0 1 5-5h48a5 5 0 0 1 5 5z" fill="#2488ff"/><path d="m61 32-7 1-.67-.19 5.67-.81a5 5 0 0 0 -5-5h2a5 5 0 0 1 5 5z" fill="#006df0"/><path d="m54 33 7-1a4.985 4.985 0 0 1 -5 5h-48a5 5 0 0 1 -5-5l7 1 7-2 7 2 7.99-2 8.01 2 7-2z" fill="#bb7fd9"/><g fill="#ffde55"><circle cx="55" cy="5" r="2"/><circle cx="55" cy="51" r="2"/><path d="m56 37-4 6h-40l-4-6z"/></g><path d="m56 37-4 6h-2l4-6z" fill="#ffcd00"/><path d="m8 27a24 24 0 0 1 48 0z" fill="#44ffe8"/><path d="m56 27h-2a24.012 24.012 0 0 0 -23-23.98c.33-.01.66-.02 1-.02a24.006 24.006 0 0 1 24 24z" fill="#00eed1"/><path d="m38 17v10h-12v-10a6 6 0 0 1 6-6 .757.757 0 0 1 .15.01 5.98 5.98 0 0 1 5.84 5.84.757.757 0 0 1 .01.15z" fill="#bb7fd9"/><path d="m61 32a4.985 4.985 0 0 1 -5 5h-2a5.022 5.022 0 0 0 3.54-1.46 4.933 4.933 0 0 0 1.44-3.25z" fill="#a25bcd"/><path d="m38 17v10h-2v-10a.757.757 0 0 0 -.01-.15 5.974 5.974 0 0 0 -5.01-5.76 5.691 5.691 0 0 1 1.02-.09.757.757 0 0 1 .15.01 5.98 5.98 0 0 1 5.84 5.84.757.757 0 0 1 .01.15z" fill="#a25bcd"/><path d="m32 14c1.66 0 3 3 3 3s-1.34 3-3 3-3-3-3-3 1.34-3 3-3z" fill="#ff7956"/><path d="m35 17s-1.34 3-3 3a1.735 1.735 0 0 1 -1-.35 7.4 7.4 0 0 0 2-2.65 7.4 7.4 0 0 0 -2-2.65 1.735 1.735 0 0 1 1-.35c1.66 0 3 3 3 3z" fill="#ff6243"/><circle cx="9" cy="5" fill="#ffde55" r="2"/><circle cx="9" cy="51" fill="#ffde55" r="2"/><path d="m56.977 26.087a24.993 24.993 0 0 0 -49.954 0 5.995 5.995 0 0 0 .423 11.885l3.722 5.583a1 1 0 0 0 .832.445h40a1 1 0 0 0 .832-.445l3.722-5.583a5.995 5.995 0 0 0 .423-11.885zm-24.977-22.087a23.026 23.026 0 0 1 22.975 22h-15.975v-5.757c.036.07.068.13.1.2.544 1.081 1.282 2.557 2.9 2.557s2.356-1.476 2.9-2.553c.418-.847.746-1.447 1.1-1.447v-2c-1.618 0-2.356 1.476-2.9 2.553-.418.847-.746 1.447-1.1 1.447s-.682-.6-1.1-1.447a4.726 4.726 0 0 0 -1.9-2.327v-.226a7 7 0 0 0 -14 0v.226a4.726 4.726 0 0 0 -1.895 2.327c-.423.847-.751 1.447-1.105 1.447s-.682-.6-1.105-1.447c-.539-1.077-1.277-2.553-2.895-2.553v2c.354 0 .682.6 1.105 1.447.539 1.077 1.277 2.553 2.895 2.553s2.356-1.476 2.895-2.553c.037-.074.069-.134.105-.2v5.753h-15.975a23.026 23.026 0 0 1 22.975-22zm5 22h-10v-9a5 5 0 0 1 10 0zm-29 2h48a4 4 0 0 1 3.9 3.146l-5.833.833-6.8-1.941a1.008 1.008 0 0 0 -.55 0l-6.743 1.927-7.741-1.935a.972.972 0 0 0 -.485 0l-7.731 1.935-6.742-1.927a1.008 1.008 0 0 0 -.55 0l-6.8 1.941-5.825-.833a4 4 0 0 1 3.9-3.146zm43.465 14h-38.93l-2.667-4h44.264zm4.535-6h-48a3.993 3.993 0 0 1 -3.8-2.818l5.66.808a1.03 1.03 0 0 0 .417-.028l6.723-1.922 6.725 1.922a1 1 0 0 0 .518.008l7.748-1.939 7.767 1.939a1 1 0 0 0 .517-.008l6.725-1.922 6.725 1.922a1.025 1.025 0 0 0 .275.038.978.978 0 0 0 .142-.01l5.66-.808a3.993 3.993 0 0 1 -3.802 2.818z"/><path d="m55 8a3 3 0 1 0 -3-3 3 3 0 0 0 3 3zm0-4a1 1 0 1 1 -1 1 1 1 0 0 1 1-1z"/><path d="m56 12h2v2h-2z"/><path d="m58 10h2v2h-2z"/><path d="m58 14h2v2h-2z"/><path d="m60 12h2v2h-2z"/><path d="m9 8a3 3 0 1 0 -3-3 3 3 0 0 0 3 3zm0-4a1 1 0 1 1 -1 1 1 1 0 0 1 1-1z"/><path d="m6 12h2v2h-2z"/><path d="m4 10h2v2h-2z"/><path d="m4 14h2v2h-2z"/><path d="m2 12h2v2h-2z"/><path d="m55 48a3 3 0 1 0 3 3 3 3 0 0 0 -3-3zm0 4a1 1 0 1 1 1-1 1 1 0 0 1 -1 1z"/><path d="m56 42h2v2h-2z"/><path d="m58 44h2v2h-2z"/><path d="m58 40h2v2h-2z"/><path d="m60 42h2v2h-2z"/><path d="m9 48a3 3 0 1 0 3 3 3 3 0 0 0 -3-3zm0 4a1 1 0 1 1 1-1 1 1 0 0 1 -1 1z"/><path d="m6 42h2v2h-2z"/><path d="m4 44h2v2h-2z"/><path d="m4 40h2v2h-2z"/><path d="m2 42h2v2h-2z"/><path d="m32 13c-2.193 0-3.644 2.991-3.913 3.592a1 1 0 0 0 0 .816c.269.601 1.72 3.592 3.913 3.592s3.644-2.991 3.913-3.592a1 1 0 0 0 0-.816c-.269-.601-1.72-3.592-3.913-3.592zm0 6c-.52 0-1.345-.985-1.886-2 .5-.927 1.322-2 1.886-2 .52 0 1.345.985 1.886 2-.496.927-1.322 2-1.886 2z"/><path d="m40 11h2v2h-2z"/><path d="m42 9h2v2h-2z"/><path d="m42 13h2v2h-2z"/><path d="m44 11h2v2h-2z"/><path d="m22 11h2v2h-2z"/><path d="m20 9h2v2h-2z"/><path d="m20 13h2v2h-2z"/><path d="m18 11h2v2h-2z"/><path d="m20 46h2v16h-2z"/><path d="m31 46h2v16h-2z"/><path d="m26 46h2v5h-2z"/><path d="m26 53h2v7h-2z"/><path d="m14 46h2v5h-2z"/><path d="m14 53h2v7h-2z"/><path d="m42 46h2v16h-2z"/><path d="m36 46h2v5h-2z"/><path d="m36 53h2v7h-2z"/><path d="m48 46h2v5h-2z"/><path d="m48 53h2v7h-2z"/></g></svg>