<svg height="512" viewBox="0 0 64 64" width="512" xmlns="http://www.w3.org/2000/svg"><g id="world"><circle cx="58" cy="8" fill="#ffde55" r="2"/><circle cx="41" cy="59" fill="#ffde55" r="2"/><path d="m47.97 16.87a21.926 21.926 0 0 0 -15.63-6.86c-.11-.01-.22-.01-.34-.01a22 22 0 1 0 0 44c.12 0 .23 0 .34-.01a21.994 21.994 0 0 0 15.63-37.12z" fill="#2488ff"/><path d="m54 32a21.99 21.99 0 0 1 -21.66 21.99c-.11.01-.22.01-.34.01v-44c.12 0 .23 0 .34.01a21.99 21.99 0 0 1 21.66 21.99z" fill="#006df0"/><path d="m54 32a21.99 21.99 0 0 1 -21.66 21.99c-.11.01-.22.01-.34.01v-.11a21.979 21.979 0 0 0 0-43.78v-.11c.12 0 .23 0 .34.01a21.99 21.99 0 0 1 21.66 21.99z" fill="#005ece"/><path d="m32 10v44a22 22 0 0 1 -7.47-1.3l4.11-6.16a1 1 0 0 0 .02-1.09l-4.44-7.1a.993.993 0 0 1 -.13-.75l1.84-8.29a.925.925 0 0 0 -.06-.61l-2.6-6.08a1 1 0 0 1 .21-1.1l3.54-3.54a1 1 0 0 0 -.26-1.6l-6.27-3.14a21.956 21.956 0 0 1 11.51-3.24z" fill="#2488ff"/><path d="m32 10v44c-.68 0-1.34-.03-2-.09v-43.82c.66-.06 1.33-.09 2-.09z" fill="#006df0"/><path d="m28.66 45.45a1 1 0 0 1 -.02 1.09l-4.11 6.16a22.014 22.014 0 0 1 -4.04-39.46l6.27 3.14a1 1 0 0 1 .26 1.6l-3.54 3.54a1 1 0 0 0 -.21 1.1l2.6 6.08a.925.925 0 0 1 .06.61l-1.84 8.29a.993.993 0 0 0 .13.75z" fill="#00b6bd"/><path d="m28.64 46.54-4.11 6.16c-.53-.19-1.06-.41-1.57-.64l3.68-5.52a1 1 0 0 0 .02-1.09l-4.44-7.1a.993.993 0 0 1 -.13-.75l1.84-8.29a.925.925 0 0 0 -.06-.61l-2.6-6.08a1 1 0 0 1 .21-1.1l3.54-3.54a1 1 0 0 0 -.26-1.6l-5.14-2.57q.42-.3.87-.57l6.27 3.14a1 1 0 0 1 .26 1.6l-3.54 3.54a1 1 0 0 0 -.21 1.1l2.6 6.08a.925.925 0 0 1 .06.61l-1.84 8.29a.993.993 0 0 0 .13.75l4.44 7.1a1 1 0 0 1 -.02 1.09z" fill="#009698"/><g fill="#ffde55"><circle cx="7" cy="44" r="2"/><circle cx="5" cy="5" r="2"/><circle cx="55" cy="55" r="6"/></g><path d="m61 55a6 6 0 0 1 -6 6 5.47 5.47 0 0 1 -1-.09 5.993 5.993 0 0 0 0-11.82 5.47 5.47 0 0 1 1-.09 6 6 0 0 1 6 6z" fill="#ffd422"/><path d="m60.73 56.77a5.99 5.99 0 0 1 -3.96 3.96 3 3 0 1 1 3.96-3.96z" fill="#ff7956"/><path d="m8 5a3 3 0 1 0 -3 3 3 3 0 0 0 3-3zm-4 0a1 1 0 1 1 1 1 1 1 0 0 1 -1-1z"/><path d="m58 11a3 3 0 1 0 -3-3 3 3 0 0 0 3 3zm0-4a1 1 0 1 1 -1 1 1 1 0 0 1 1-1z"/><path d="m56 22h2v2h-2z"/><path d="m58 24h2v2h-2z"/><path d="m58 20h2v2h-2z"/><path d="m60 22h2v2h-2z"/><path d="m54 42h2v2h-2z"/><path d="m56 44h2v2h-2z"/><path d="m56 40h2v2h-2z"/><path d="m58 42h2v2h-2z"/><path d="m3 22h2v2h-2z"/><path d="m5 24h2v2h-2z"/><path d="m5 20h2v2h-2z"/><path d="m7 22h2v2h-2z"/><path d="m13 6h2v2h-2z"/><path d="m15 8h2v2h-2z"/><path d="m15 4h2v2h-2z"/><path d="m17 6h2v2h-2z"/><path d="m14 56h2v2h-2z"/><path d="m16 58h2v2h-2z"/><path d="m16 54h2v2h-2z"/><path d="m18 56h2v2h-2z"/><path d="m41 4h2v2h-2z"/><path d="m43 6h2v2h-2z"/><path d="m43 2h2v2h-2z"/><path d="m45 4h2v2h-2z"/><path d="m7 41a3 3 0 1 0 3 3 3 3 0 0 0 -3-3zm0 4a1 1 0 1 1 1-1 1 1 0 0 1 -1 1z"/><path d="m41 56a3 3 0 1 0 3 3 3 3 0 0 0 -3-3zm0 4a1 1 0 1 1 1-1 1 1 0 0 1 -1 1z"/><path d="m55 32a23 23 0 1 0 -23 23 23.026 23.026 0 0 0 23-23zm-44 0a20.981 20.981 0 0 1 9.586-17.593l5.726 2.866-3.541 3.541a1.99 1.99 0 0 0 -.423 2.2l2.606 6.086-1.841 8.285a1.987 1.987 0 0 0 .256 1.495l4.441 7.1-3.652 5.474a21.015 21.015 0 0 1 -13.158-19.454zm20 20.977a20.855 20.855 0 0 1 -4.891-.842l3.365-5.043a2.006 2.006 0 0 0 .032-2.17l-4.441-7.1 1.841-8.286a1.979 1.979 0 0 0 -.114-1.22l-2.606-6.082 3.541-3.541a2 2 0 0 0 -.519-3.2l-4.541-2.273a20.828 20.828 0 0 1 8.333-2.197zm12.987-21.977a39.823 39.823 0 0 0 -1.74-11.132 30.906 30.906 0 0 0 5.438-1.783 20.876 20.876 0 0 1 5.264 12.915zm-2.42-13.038a19.09 19.09 0 0 0 -3.7-6.111 20.958 20.958 0 0 1 8.311 4.706 30.448 30.448 0 0 1 -4.611 1.405zm-2.042.4a44.867 44.867 0 0 1 -6.525.615v-7.867c2.572.565 4.885 3.29 6.525 7.256zm.715 1.917a37.768 37.768 0 0 1 1.735 10.721h-8.975v-10.023a46.528 46.528 0 0 0 7.24-.694zm1.735 12.721a37.768 37.768 0 0 1 -1.735 10.717 46.528 46.528 0 0 0 -7.24-.694v-10.023zm-2.45 12.634c-1.64 3.966-3.953 6.691-6.525 7.256v-7.867a44.867 44.867 0 0 1 6.525.611zm2.042.4a30.448 30.448 0 0 1 4.614 1.405 20.958 20.958 0 0 1 -8.311 4.706 19.09 19.09 0 0 0 3.697-6.107zm.68-1.906a39.823 39.823 0 0 0 1.74-11.128h8.962a20.876 20.876 0 0 1 -5.264 12.915 30.906 30.906 0 0 0 -5.438-1.783z"/><path d="m55 48a7 7 0 1 0 7 7 7.008 7.008 0 0 0 -7-7zm4.84 5.808a1.946 1.946 0 0 1 -.84.192 2 2 0 0 1 -1.509-3.309 4.99 4.99 0 0 1 2.349 3.117zm-4.84 6.192a5 5 0 0 1 0-10 4.923 4.923 0 0 1 .5.051 3.972 3.972 0 0 0 4.408 5.831 5 5 0 0 1 -4.908 4.118z"/></g></svg>